%TF.GenerationSoftware,KiCad,Pcbnew,9.0.2*%
%TF.CreationDate,2025-07-10T14:50:25+03:00*%
%TF.ProjectId,rechargeble_pack,72656368-6172-4676-9562-6c655f706163,rev?*%
%TF.SameCoordinates,Original*%
%TF.FileFunction,Copper,L1,Top*%
%TF.FilePolarity,Positive*%
%FSLAX46Y46*%
G04 Gerber Fmt 4.6, Leading zero omitted, Abs format (unit mm)*
G04 Created by KiCad (PCBNEW 9.0.2) date 2025-07-10 14:50:25*
%MOMM*%
%LPD*%
G01*
G04 APERTURE LIST*
G04 Aperture macros list*
%AMRoundRect*
0 Rectangle with rounded corners*
0 $1 Rounding radius*
0 $2 $3 $4 $5 $6 $7 $8 $9 X,Y pos of 4 corners*
0 Add a 4 corners polygon primitive as box body*
4,1,4,$2,$3,$4,$5,$6,$7,$8,$9,$2,$3,0*
0 Add four circle primitives for the rounded corners*
1,1,$1+$1,$2,$3*
1,1,$1+$1,$4,$5*
1,1,$1+$1,$6,$7*
1,1,$1+$1,$8,$9*
0 Add four rect primitives between the rounded corners*
20,1,$1+$1,$2,$3,$4,$5,0*
20,1,$1+$1,$4,$5,$6,$7,0*
20,1,$1+$1,$6,$7,$8,$9,0*
20,1,$1+$1,$8,$9,$2,$3,0*%
G04 Aperture macros list end*
%TA.AperFunction,SMDPad,CuDef*%
%ADD10RoundRect,0.150000X0.150000X-0.587500X0.150000X0.587500X-0.150000X0.587500X-0.150000X-0.587500X0*%
%TD*%
%TA.AperFunction,SMDPad,CuDef*%
%ADD11RoundRect,0.150000X0.587500X0.150000X-0.587500X0.150000X-0.587500X-0.150000X0.587500X-0.150000X0*%
%TD*%
%TA.AperFunction,SMDPad,CuDef*%
%ADD12RoundRect,0.250000X-0.457500X-0.445000X0.457500X-0.445000X0.457500X0.445000X-0.457500X0.445000X0*%
%TD*%
%TA.AperFunction,SMDPad,CuDef*%
%ADD13RoundRect,0.140000X-0.140000X-0.170000X0.140000X-0.170000X0.140000X0.170000X-0.140000X0.170000X0*%
%TD*%
%TA.AperFunction,SMDPad,CuDef*%
%ADD14RoundRect,0.250000X-0.945000X0.420000X-0.945000X-0.420000X0.945000X-0.420000X0.945000X0.420000X0*%
%TD*%
%TA.AperFunction,SMDPad,CuDef*%
%ADD15RoundRect,0.250000X-0.450000X0.262500X-0.450000X-0.262500X0.450000X-0.262500X0.450000X0.262500X0*%
%TD*%
%TA.AperFunction,SMDPad,CuDef*%
%ADD16RoundRect,0.250000X-0.475000X0.250000X-0.475000X-0.250000X0.475000X-0.250000X0.475000X0.250000X0*%
%TD*%
%TA.AperFunction,SMDPad,CuDef*%
%ADD17RoundRect,0.250000X-0.262500X-0.450000X0.262500X-0.450000X0.262500X0.450000X-0.262500X0.450000X0*%
%TD*%
%TA.AperFunction,SMDPad,CuDef*%
%ADD18RoundRect,0.218750X-0.218750X-0.381250X0.218750X-0.381250X0.218750X0.381250X-0.218750X0.381250X0*%
%TD*%
%TA.AperFunction,SMDPad,CuDef*%
%ADD19RoundRect,0.250000X0.450000X-0.262500X0.450000X0.262500X-0.450000X0.262500X-0.450000X-0.262500X0*%
%TD*%
%TA.AperFunction,SMDPad,CuDef*%
%ADD20RoundRect,0.250000X0.475000X-0.250000X0.475000X0.250000X-0.475000X0.250000X-0.475000X-0.250000X0*%
%TD*%
%TA.AperFunction,ComponentPad*%
%ADD21RoundRect,0.250001X-0.899999X-0.899999X0.899999X-0.899999X0.899999X0.899999X-0.899999X0.899999X0*%
%TD*%
%TA.AperFunction,ComponentPad*%
%ADD22C,2.300000*%
%TD*%
%TA.AperFunction,SMDPad,CuDef*%
%ADD23RoundRect,0.243750X-0.456250X0.243750X-0.456250X-0.243750X0.456250X-0.243750X0.456250X0.243750X0*%
%TD*%
%TA.AperFunction,SMDPad,CuDef*%
%ADD24RoundRect,0.250000X-0.250000X-0.475000X0.250000X-0.475000X0.250000X0.475000X-0.250000X0.475000X0*%
%TD*%
%TA.AperFunction,SMDPad,CuDef*%
%ADD25RoundRect,0.218750X-0.381250X0.218750X-0.381250X-0.218750X0.381250X-0.218750X0.381250X0.218750X0*%
%TD*%
%TA.AperFunction,SMDPad,CuDef*%
%ADD26RoundRect,0.243750X0.456250X-0.243750X0.456250X0.243750X-0.456250X0.243750X-0.456250X-0.243750X0*%
%TD*%
%TA.AperFunction,SMDPad,CuDef*%
%ADD27RoundRect,0.250000X0.445000X-0.457500X0.445000X0.457500X-0.445000X0.457500X-0.445000X-0.457500X0*%
%TD*%
%TA.AperFunction,SMDPad,CuDef*%
%ADD28RoundRect,0.250000X0.457500X0.445000X-0.457500X0.445000X-0.457500X-0.445000X0.457500X-0.445000X0*%
%TD*%
%TA.AperFunction,SMDPad,CuDef*%
%ADD29RoundRect,0.150000X-0.512500X-0.150000X0.512500X-0.150000X0.512500X0.150000X-0.512500X0.150000X0*%
%TD*%
%TA.AperFunction,SMDPad,CuDef*%
%ADD30RoundRect,0.250000X-0.785000X-1.045000X0.785000X-1.045000X0.785000X1.045000X-0.785000X1.045000X0*%
%TD*%
%TA.AperFunction,ComponentPad*%
%ADD31RoundRect,0.250001X0.899999X-0.899999X0.899999X0.899999X-0.899999X0.899999X-0.899999X-0.899999X0*%
%TD*%
%TA.AperFunction,SMDPad,CuDef*%
%ADD32RoundRect,0.218750X0.218750X0.381250X-0.218750X0.381250X-0.218750X-0.381250X0.218750X-0.381250X0*%
%TD*%
%TA.AperFunction,SMDPad,CuDef*%
%ADD33RoundRect,0.150000X0.825000X0.150000X-0.825000X0.150000X-0.825000X-0.150000X0.825000X-0.150000X0*%
%TD*%
%TA.AperFunction,ComponentPad*%
%ADD34RoundRect,0.250001X-0.899999X0.899999X-0.899999X-0.899999X0.899999X-0.899999X0.899999X0.899999X0*%
%TD*%
%TA.AperFunction,SMDPad,CuDef*%
%ADD35RoundRect,0.250000X0.262500X0.450000X-0.262500X0.450000X-0.262500X-0.450000X0.262500X-0.450000X0*%
%TD*%
%TA.AperFunction,ViaPad*%
%ADD36C,0.600000*%
%TD*%
%TA.AperFunction,Conductor*%
%ADD37C,0.500000*%
%TD*%
%TA.AperFunction,Conductor*%
%ADD38C,1.000000*%
%TD*%
%TA.AperFunction,Conductor*%
%ADD39C,0.600000*%
%TD*%
%TA.AperFunction,Conductor*%
%ADD40C,0.700000*%
%TD*%
%TA.AperFunction,Conductor*%
%ADD41C,1.500000*%
%TD*%
G04 APERTURE END LIST*
D10*
%TO.P,Q1,2,G*%
%TO.N,VBUS*%
X26500000Y-6000000D03*
%TO.P,Q1,3,S*%
%TO.N,Net-(D2-K)*%
X28500000Y-6000000D03*
%TO.P,Q1,1,D*%
%TO.N,+BATT*%
X27500000Y-4000000D03*
%TD*%
%TO.P,Q6,1,B*%
%TO.N,Net-(Q6-B)*%
X42550000Y-22375000D03*
%TO.P,Q6,2,E*%
%TO.N,+9V*%
X44450000Y-22375000D03*
%TO.P,Q6,3,C*%
%TO.N,+10V*%
X43500000Y-20500000D03*
%TD*%
D11*
%TO.P,Q7,1,B*%
%TO.N,Net-(Q7-B)*%
X43375000Y-14450000D03*
%TO.P,Q7,2,E*%
%TO.N,VCC*%
X43375000Y-12550000D03*
%TO.P,Q7,3,C*%
%TO.N,Net-(Q7-C)*%
X41500000Y-13500000D03*
%TD*%
D10*
%TO.P,Q2,1,B*%
%TO.N,Net-(Q2-B)*%
X58550000Y-4937500D03*
%TO.P,Q2,2,E*%
%TO.N,Net-(D1-K)*%
X60450000Y-4937500D03*
%TO.P,Q2,3,C*%
%TO.N,Net-(Q2-C)*%
X59500000Y-3062500D03*
%TD*%
D12*
%TO.P,C13,1*%
%TO.N,+BATT*%
X14647500Y-4000000D03*
%TO.P,C13,2*%
%TO.N,GND*%
X17352500Y-4000000D03*
%TD*%
D13*
%TO.P,C10,1*%
%TO.N,Net-(Q2-C)*%
X59020000Y-9500000D03*
%TO.P,C10,2*%
%TO.N,Net-(U2-FB)*%
X59980000Y-9500000D03*
%TD*%
D14*
%TO.P,C7,1*%
%TO.N,Net-(D1-K)*%
X65000000Y-7960000D03*
%TO.P,C7,2*%
%TO.N,GND*%
X65000000Y-11040000D03*
%TD*%
D15*
%TO.P,R11,1*%
%TO.N,Net-(D3-A)*%
X4500000Y-14587500D03*
%TO.P,R11,2*%
%TO.N,VBUS*%
X4500000Y-16412500D03*
%TD*%
D16*
%TO.P,C9,1*%
%TO.N,Net-(Q2-C)*%
X54500000Y-15000000D03*
%TO.P,C9,2*%
%TO.N,GND*%
X54500000Y-16900000D03*
%TD*%
%TO.P,C11,1*%
%TO.N,VCC*%
X60000000Y-15000000D03*
%TO.P,C11,2*%
%TO.N,GND*%
X60000000Y-16900000D03*
%TD*%
%TO.P,C14,1*%
%TO.N,VBUS*%
X18000000Y-22050000D03*
%TO.P,C14,2*%
%TO.N,GND*%
X18000000Y-23950000D03*
%TD*%
D15*
%TO.P,R1,1*%
%TO.N,+10V*%
X43500000Y-28087500D03*
%TO.P,R1,2*%
%TO.N,Net-(Q6-B)*%
X43500000Y-29912500D03*
%TD*%
D17*
%TO.P,R2,1*%
%TO.N,Net-(C4-Pad2)*%
X58587500Y-21500000D03*
%TO.P,R2,2*%
%TO.N,GND*%
X60412500Y-21500000D03*
%TD*%
D15*
%TO.P,R10,1*%
%TO.N,Net-(D4-A)*%
X8500000Y-14587500D03*
%TO.P,R10,2*%
%TO.N,VBUS*%
X8500000Y-16412500D03*
%TD*%
D18*
%TO.P,L1,1,1*%
%TO.N,VCC*%
X29937500Y-11000000D03*
%TO.P,L1,2,2*%
%TO.N,Net-(D1-A)*%
X32062500Y-11000000D03*
%TD*%
D19*
%TO.P,R3,1*%
%TO.N,+9V*%
X60000000Y-28912500D03*
%TO.P,R3,2*%
%TO.N,GND*%
X60000000Y-27087500D03*
%TD*%
D20*
%TO.P,C1,1*%
%TO.N,Net-(Q6-B)*%
X49500000Y-29900000D03*
%TO.P,C1,2*%
%TO.N,GND*%
X49500000Y-28000000D03*
%TD*%
D21*
%TO.P,J2,1,Pin_1*%
%TO.N,+BATT*%
X34500000Y-3500000D03*
D22*
%TO.P,J2,2,Pin_2*%
%TO.N,GND*%
X39300000Y-3500000D03*
%TD*%
D15*
%TO.P,R9,1*%
%TO.N,VBUS*%
X18000000Y-27587500D03*
%TO.P,R9,2*%
%TO.N,GND*%
X18000000Y-29412500D03*
%TD*%
D16*
%TO.P,C8,1*%
%TO.N,+10V*%
X28500000Y-27550000D03*
%TO.P,C8,2*%
%TO.N,GND*%
X28500000Y-29450000D03*
%TD*%
D23*
%TO.P,D4,1,K*%
%TO.N,Net-(D4-K)*%
X8500000Y-9625000D03*
%TO.P,D4,2,A*%
%TO.N,Net-(D4-A)*%
X8500000Y-11500000D03*
%TD*%
D24*
%TO.P,C4,1*%
%TO.N,+9V*%
X53050000Y-21000000D03*
%TO.P,C4,2*%
%TO.N,Net-(C4-Pad2)*%
X54950000Y-21000000D03*
%TD*%
D25*
%TO.P,L3,1,1*%
%TO.N,Net-(D2-K)*%
X24000000Y-9437500D03*
%TO.P,L3,2,2*%
%TO.N,VCC*%
X24000000Y-11562500D03*
%TD*%
D26*
%TO.P,D2,1,K*%
%TO.N,Net-(D2-K)*%
X23000000Y-24000000D03*
%TO.P,D2,2,A*%
%TO.N,VBUS*%
X23000000Y-22125000D03*
%TD*%
%TO.P,D1,1,K*%
%TO.N,Net-(D1-K)*%
X65000000Y-4937500D03*
%TO.P,D1,2,A*%
%TO.N,Net-(D1-A)*%
X65000000Y-3062500D03*
%TD*%
D27*
%TO.P,C6,1*%
%TO.N,VCC*%
X44000000Y-6352500D03*
%TO.P,C6,2*%
%TO.N,GND*%
X44000000Y-3647500D03*
%TD*%
D28*
%TO.P,C2,1*%
%TO.N,+10V*%
X37352500Y-28000000D03*
%TO.P,C2,2*%
%TO.N,GND*%
X34647500Y-28000000D03*
%TD*%
D17*
%TO.P,R5,1*%
%TO.N,Net-(Q7-B)*%
X48587500Y-19500000D03*
%TO.P,R5,2*%
%TO.N,/OUT_EN*%
X50412500Y-19500000D03*
%TD*%
D15*
%TO.P,R6,1*%
%TO.N,Net-(Q2-B)*%
X49500000Y-4175000D03*
%TO.P,R6,2*%
%TO.N,VCC*%
X49500000Y-6000000D03*
%TD*%
D29*
%TO.P,U2,1,SW*%
%TO.N,Net-(D1-A)*%
X35362500Y-20050000D03*
%TO.P,U2,2,GND*%
%TO.N,GND*%
X35362500Y-21000000D03*
%TO.P,U2,3,FB*%
%TO.N,Net-(U2-FB)*%
X35362500Y-21950000D03*
%TO.P,U2,4,EN*%
%TO.N,Net-(Q7-C)*%
X37637500Y-21950000D03*
%TO.P,U2,5,VIN*%
%TO.N,VCC*%
X37637500Y-20050000D03*
%TD*%
D30*
%TO.P,C5,1*%
%TO.N,VCC*%
X24260000Y-18000000D03*
%TO.P,C5,2*%
%TO.N,GND*%
X30500000Y-18000000D03*
%TD*%
D31*
%TO.P,J1,1,Pin_1*%
%TO.N,+9V*%
X65500000Y-28100000D03*
D22*
%TO.P,J1,2,Pin_2*%
%TO.N,GND*%
X65500000Y-23300000D03*
%TO.P,J1,3,Pin_3*%
%TO.N,/OUT_EN*%
X65500000Y-18500000D03*
%TD*%
D32*
%TO.P,L2,1,1*%
%TO.N,Net-(Q2-C)*%
X50562500Y-25000000D03*
%TO.P,L2,2,2*%
%TO.N,+10V*%
X48437500Y-25000000D03*
%TD*%
D27*
%TO.P,C3,1*%
%TO.N,Net-(Q6-B)*%
X55000000Y-29852500D03*
%TO.P,C3,2*%
%TO.N,GND*%
X55000000Y-27147500D03*
%TD*%
D15*
%TO.P,R7,1*%
%TO.N,Net-(Q2-C)*%
X55000000Y-5175000D03*
%TO.P,R7,2*%
%TO.N,Net-(U2-FB)*%
X55000000Y-7000000D03*
%TD*%
D33*
%TO.P,U1,1,TEMP*%
%TO.N,GND*%
X18070000Y-16880000D03*
%TO.P,U1,2,PROG*%
%TO.N,Net-(U1-PROG)*%
X18070000Y-15610000D03*
%TO.P,U1,3,GND*%
%TO.N,GND*%
X18070000Y-14340000D03*
%TO.P,U1,4,V_{CC}*%
%TO.N,VBUS*%
X18070000Y-13070000D03*
%TO.P,U1,5,BAT*%
%TO.N,+BATT*%
X13120000Y-13070000D03*
%TO.P,U1,6,~{STDBY}*%
%TO.N,Net-(D3-K)*%
X13120000Y-14340000D03*
%TO.P,U1,7,~{CHRG}*%
%TO.N,Net-(D4-K)*%
X13120000Y-15610000D03*
%TO.P,U1,8,CE*%
%TO.N,VBUS*%
X13120000Y-16880000D03*
%TD*%
D15*
%TO.P,R8,1*%
%TO.N,Net-(U2-FB)*%
X55000000Y-9087500D03*
%TO.P,R8,2*%
%TO.N,GND*%
X55000000Y-10912500D03*
%TD*%
D34*
%TO.P,J3,1,Pin_1*%
%TO.N,VBUS*%
X4500000Y-22500000D03*
D22*
%TO.P,J3,2,Pin_2*%
%TO.N,GND*%
X4500000Y-27300000D03*
%TD*%
D15*
%TO.P,R4,1*%
%TO.N,VCC*%
X49000000Y-12587500D03*
%TO.P,R4,2*%
%TO.N,Net-(Q7-B)*%
X49000000Y-14412500D03*
%TD*%
D16*
%TO.P,C12,1*%
%TO.N,Net-(D2-K)*%
X23000000Y-27550000D03*
%TO.P,C12,2*%
%TO.N,GND*%
X23000000Y-29450000D03*
%TD*%
D35*
%TO.P,Rref1,1*%
%TO.N,Net-(U1-PROG)*%
X11912500Y-27500000D03*
%TO.P,Rref1,2*%
%TO.N,GND*%
X10087500Y-27500000D03*
%TD*%
D23*
%TO.P,D3,1,K*%
%TO.N,Net-(D3-K)*%
X4500000Y-9562500D03*
%TO.P,D3,2,A*%
%TO.N,Net-(D3-A)*%
X4500000Y-11437500D03*
%TD*%
D36*
%TO.N,GND*%
X33387200Y-19217700D03*
X39300000Y-7735000D03*
%TO.N,+10V*%
X51087500Y-22740800D03*
X47326800Y-19843900D03*
%TO.N,+9V*%
X61545300Y-23332600D03*
%TO.N,Net-(Q2-C)*%
X56937500Y-15681600D03*
X57050500Y-6938700D03*
X54012500Y-25060300D03*
X57050500Y-9715000D03*
%TO.N,Net-(U2-FB)*%
X45732800Y-9715000D03*
X38112800Y-22966100D03*
%TO.N,Net-(D2-K)*%
X25291300Y-9849200D03*
X24963000Y-25168000D03*
%TO.N,Net-(D1-A)*%
X45237500Y-1441000D03*
X41804400Y-10563900D03*
X35987200Y-18889300D03*
%TO.N,Net-(U1-PROG)*%
X16413000Y-15513200D03*
X18912500Y-31208000D03*
%TD*%
D37*
%TO.N,Net-(D2-K)*%
X29000000Y-9000000D02*
X29000000Y-6500000D01*
X29000000Y-6500000D02*
X28500000Y-6000000D01*
D38*
%TO.N,+BATT*%
X27500000Y-4000000D02*
X34000000Y-4000000D01*
X34000000Y-4000000D02*
X34500000Y-3500000D01*
X13120000Y-7500000D02*
X18500000Y-7500000D01*
X18500000Y-7500000D02*
X22000000Y-4000000D01*
X22000000Y-4000000D02*
X27500000Y-4000000D01*
%TO.N,VBUS*%
X22000000Y-6500000D02*
X26000000Y-6500000D01*
X26000000Y-6500000D02*
X26500000Y-6000000D01*
%TO.N,GND*%
X44641200Y-10912500D02*
X41463700Y-7735000D01*
X41463700Y-7735000D02*
X39387500Y-7735000D01*
X16000000Y-25000000D02*
X16950000Y-25000000D01*
X32147500Y-21000000D02*
X32147500Y-19647500D01*
D39*
X49500000Y-28000000D02*
X50352500Y-27147500D01*
D38*
X16000000Y-25000000D02*
X10000000Y-25000000D01*
X28500000Y-29450000D02*
X26500000Y-29450000D01*
X16000000Y-28500000D02*
X16000000Y-25000000D01*
X64872500Y-10912500D02*
X55000000Y-10912500D01*
X26500000Y-25500000D02*
X32147500Y-25500000D01*
X63700000Y-21500000D02*
X60412500Y-21500000D01*
D39*
X18070000Y-16880000D02*
X19120000Y-16880000D01*
D38*
X68000000Y-14500000D02*
X68000000Y-23500000D01*
X65700000Y-23500000D02*
X65500000Y-23300000D01*
X18000000Y-1500000D02*
X17352500Y-2147500D01*
X2000000Y-27500000D02*
X4300000Y-27500000D01*
X16950000Y-25000000D02*
X18000000Y-23950000D01*
X65000000Y-14500000D02*
X68000000Y-14500000D01*
X4300000Y-27500000D02*
X4500000Y-27300000D01*
X62500000Y-14500000D02*
X62500000Y-17000000D01*
X20500000Y-19310000D02*
X18070000Y-16880000D01*
X32147500Y-19647500D02*
X32957400Y-19647500D01*
X32147500Y-25500000D02*
X34647500Y-28000000D01*
D39*
X43852500Y-3500000D02*
X44000000Y-3647500D01*
D38*
X18000000Y-1500000D02*
X39500000Y-1500000D01*
D39*
X20000000Y-15000000D02*
X19340000Y-14340000D01*
D38*
X65000000Y-11040000D02*
X65000000Y-14500000D01*
X65500000Y-23300000D02*
X63700000Y-21500000D01*
X62500000Y-17000000D02*
X60100000Y-17000000D01*
X26500000Y-29450000D02*
X23000000Y-29450000D01*
X17352500Y-2147500D02*
X17352500Y-4000000D01*
X18000000Y-1500000D02*
X3000000Y-1500000D01*
X3000000Y-1500000D02*
X2000000Y-2500000D01*
D39*
X4500000Y-27300000D02*
X4700000Y-27500000D01*
D38*
X18000000Y-29412500D02*
X16912500Y-29412500D01*
D39*
X50352500Y-27147500D02*
X55000000Y-27147500D01*
X59940000Y-27147500D02*
X55000000Y-27147500D01*
X60000000Y-27087500D02*
X59940000Y-27147500D01*
D37*
X35362500Y-21000000D02*
X32147500Y-21000000D01*
D38*
X2000000Y-2500000D02*
X2000000Y-27500000D01*
X68000000Y-23500000D02*
X68000000Y-31500000D01*
X60000000Y-25500000D02*
X63300000Y-25500000D01*
X42352500Y-2000000D02*
X44000000Y-3647500D01*
D39*
X39387500Y-7735000D02*
X39300000Y-7735000D01*
D38*
X30550000Y-31500000D02*
X28500000Y-29450000D01*
X32957400Y-19647500D02*
X33387200Y-19217700D01*
D39*
X19120000Y-16880000D02*
X20000000Y-16000000D01*
D38*
X39500000Y-2000000D02*
X42352500Y-2000000D01*
X16912500Y-29412500D02*
X16000000Y-28500000D01*
D39*
X19340000Y-14340000D02*
X18070000Y-14340000D01*
X60000000Y-16900000D02*
X60201700Y-16698300D01*
D37*
X39500000Y-3300000D02*
X39300000Y-3500000D01*
D38*
X60100000Y-17000000D02*
X60000000Y-16900000D01*
X55000000Y-10912500D02*
X44641200Y-10912500D01*
X32147500Y-19647500D02*
X30500000Y-18000000D01*
X68000000Y-31500000D02*
X30550000Y-31500000D01*
X4700000Y-27500000D02*
X10087500Y-27500000D01*
X18037500Y-29450000D02*
X18000000Y-29412500D01*
D39*
X20000000Y-16000000D02*
X20000000Y-15000000D01*
D38*
X26500000Y-29450000D02*
X26500000Y-25500000D01*
X20500000Y-20500000D02*
X20500000Y-19310000D01*
D39*
X65000000Y-11040000D02*
X64872500Y-10912500D01*
D38*
X60000000Y-27087500D02*
X60000000Y-25500000D01*
X23000000Y-29450000D02*
X18037500Y-29450000D01*
D39*
X54500000Y-16900000D02*
X60000000Y-16900000D01*
D38*
X10000000Y-25000000D02*
X10000000Y-27412500D01*
X32147500Y-25500000D02*
X32147500Y-21000000D01*
X65000000Y-14500000D02*
X62500000Y-14500000D01*
X68000000Y-23500000D02*
X65700000Y-23500000D01*
X28000000Y-20500000D02*
X20500000Y-20500000D01*
X10000000Y-27412500D02*
X10087500Y-27500000D01*
X30500000Y-18000000D02*
X28000000Y-20500000D01*
D39*
X10087500Y-27300000D02*
X10087500Y-27500000D01*
D38*
X39500000Y-2000000D02*
X39500000Y-3300000D01*
X39500000Y-1500000D02*
X39500000Y-2000000D01*
X63300000Y-25500000D02*
X65500000Y-23300000D01*
D37*
%TO.N,Net-(Q6-B)*%
X43685500Y-29900000D02*
X43512500Y-29900000D01*
X54952500Y-29900000D02*
X55000000Y-29852500D01*
X43500000Y-29912500D02*
X43512500Y-29900000D01*
X49500000Y-29900000D02*
X54952500Y-29900000D01*
X44820100Y-24645100D02*
X44820100Y-28765400D01*
X43512500Y-29900000D02*
X49500000Y-29900000D01*
X42550000Y-22375000D02*
X44820100Y-24645100D01*
X44820100Y-28765400D02*
X43685500Y-29900000D01*
D40*
%TO.N,+10V*%
X41000000Y-20000000D02*
X43000000Y-20000000D01*
X40382500Y-24970000D02*
X43500000Y-28087500D01*
X37500000Y-28147500D02*
X37352500Y-28000000D01*
X43000000Y-20000000D02*
X43500000Y-20500000D01*
D38*
X48650000Y-22850000D02*
X51087500Y-22850000D01*
D40*
X46482900Y-19000000D02*
X47326800Y-19843900D01*
X43500000Y-20500000D02*
X43500000Y-20000000D01*
X43500000Y-20000000D02*
X44500000Y-19000000D01*
D38*
X48437500Y-23062500D02*
X48650000Y-22850000D01*
D40*
X44500000Y-19000000D02*
X46482900Y-19000000D01*
X31500000Y-30000000D02*
X37500000Y-30000000D01*
X40382500Y-24970000D02*
X40382500Y-20617500D01*
X37500000Y-30000000D02*
X37500000Y-28147500D01*
D38*
X48437500Y-25000000D02*
X48437500Y-23062500D01*
D40*
X29050000Y-27550000D02*
X31500000Y-30000000D01*
X40382500Y-20617500D02*
X41000000Y-20000000D01*
D37*
X28500000Y-27550000D02*
X29050000Y-27550000D01*
D40*
X40382500Y-24970000D02*
X37352500Y-28000000D01*
D38*
%TO.N,+9V*%
X64687500Y-28912500D02*
X65500000Y-28100000D01*
X53050000Y-22450000D02*
X53050000Y-21000000D01*
X60000000Y-28912500D02*
X64687500Y-28912500D01*
X61497000Y-23332600D02*
X53832600Y-23332600D01*
X53000000Y-22500000D02*
X53050000Y-22450000D01*
X53832600Y-23332600D02*
X53000000Y-22500000D01*
X45325000Y-21500000D02*
X52000000Y-21500000D01*
X52000000Y-21500000D02*
X53000000Y-22500000D01*
X45325000Y-21500000D02*
X44450000Y-22375000D01*
D40*
%TO.N,Net-(C4-Pad2)*%
X56000000Y-21000000D02*
X56500000Y-21500000D01*
X54950000Y-21000000D02*
X56000000Y-21000000D01*
X56500000Y-21500000D02*
X58587500Y-21500000D01*
D38*
%TO.N,VCC*%
X34427900Y-15490400D02*
X29937500Y-11000000D01*
X59500000Y-15000000D02*
X57500000Y-13000000D01*
X34585000Y-6352500D02*
X44000000Y-6352500D01*
X48962500Y-12550000D02*
X43375000Y-12550000D01*
X49412500Y-13000000D02*
X49000000Y-12587500D01*
X60000000Y-15000000D02*
X59500000Y-15000000D01*
X42825000Y-12000000D02*
X43375000Y-12550000D01*
X29937500Y-11000000D02*
X34585000Y-6352500D01*
X24260000Y-14651200D02*
X26286300Y-14651200D01*
X37637500Y-20050000D02*
X37637500Y-15490400D01*
X49147500Y-6352500D02*
X49500000Y-6000000D01*
X24260000Y-18000000D02*
X24260000Y-14651200D01*
X36000000Y-15490400D02*
X34427900Y-15490400D01*
X36000000Y-15490400D02*
X36000000Y-12000000D01*
X37637500Y-15490400D02*
X36000000Y-15490400D01*
X24000000Y-14391200D02*
X24260000Y-14651200D01*
X36000000Y-12000000D02*
X42825000Y-12000000D01*
X49000000Y-12587500D02*
X48962500Y-12550000D01*
X57500000Y-13000000D02*
X49412500Y-13000000D01*
X24000000Y-11562500D02*
X24000000Y-14391200D01*
X26286300Y-14651200D02*
X29937500Y-11000000D01*
X44000000Y-6352500D02*
X49147500Y-6352500D01*
X43290100Y-12465100D02*
X43375000Y-12550000D01*
D37*
%TO.N,Net-(D1-K)*%
X65000000Y-4937500D02*
X60450000Y-4937500D01*
X65000000Y-7960000D02*
X65000000Y-4937500D01*
%TO.N,Net-(Q2-C)*%
X57265500Y-9500000D02*
X59020000Y-9500000D01*
X56255900Y-15000000D02*
X56937500Y-15681600D01*
X57050500Y-9715000D02*
X57265500Y-9500000D01*
X54500000Y-15000000D02*
X56255900Y-15000000D01*
X50622800Y-25060300D02*
X54012500Y-25060300D01*
X59500000Y-5835600D02*
X58396900Y-6938700D01*
X55286800Y-5175000D02*
X55000000Y-5175000D01*
X57050500Y-6938700D02*
X55286800Y-5175000D01*
X50562500Y-25000000D02*
X50622800Y-25060300D01*
X59500000Y-3062500D02*
X59500000Y-5835600D01*
X58396900Y-6938700D02*
X57050500Y-6938700D01*
%TO.N,Net-(U2-FB)*%
X36378600Y-22966100D02*
X38112800Y-22966100D01*
X45732800Y-9715000D02*
X46360300Y-9087500D01*
X55000000Y-9087500D02*
X55000000Y-8551000D01*
X59980000Y-9063800D02*
X59980000Y-9500000D01*
X55000000Y-8551000D02*
X59467200Y-8551000D01*
X45732800Y-9715000D02*
X46360300Y-9087500D01*
X55000000Y-8551000D02*
X55000000Y-7000000D01*
X35362500Y-21950000D02*
X36378600Y-22966100D01*
X46360300Y-9087500D02*
X45732800Y-9715000D01*
X59467200Y-8551000D02*
X59980000Y-9063800D01*
X46360300Y-9087500D02*
X55000000Y-9087500D01*
%TO.N,Net-(D2-K)*%
X24879600Y-9437500D02*
X25291300Y-9849200D01*
X24000000Y-9437500D02*
X24879600Y-9437500D01*
X24963000Y-25168000D02*
X24168000Y-25168000D01*
X25291300Y-9849200D02*
X28150800Y-9849200D01*
X24168000Y-25168000D02*
X23000000Y-24000000D01*
X28150800Y-9849200D02*
X29000000Y-9000000D01*
X23000000Y-27550000D02*
X23000000Y-24000000D01*
D38*
%TO.N,+BATT*%
X13120000Y-5527500D02*
X14647500Y-4000000D01*
X13120000Y-7500000D02*
X13120000Y-5527500D01*
X34000000Y-3000000D02*
X34500000Y-3500000D01*
X13120000Y-13070000D02*
X13120000Y-7500000D01*
D41*
%TO.N,VBUS*%
X12670000Y-22500000D02*
X10000000Y-22500000D01*
D40*
X23000000Y-22125000D02*
X22925000Y-22050000D01*
D38*
X15000000Y-15000000D02*
X15000000Y-17000000D01*
X18027500Y-9500000D02*
X19000000Y-9500000D01*
D41*
X9000000Y-16912500D02*
X8967500Y-16880000D01*
D38*
X5400000Y-22500000D02*
X4950000Y-22050000D01*
D40*
X8500000Y-16412500D02*
X4500000Y-16412500D01*
D38*
X18070000Y-9542500D02*
X18070000Y-13070000D01*
D40*
X18070000Y-13070000D02*
X17220000Y-13070000D01*
X20412500Y-27587500D02*
X20500000Y-27500000D01*
D38*
X20500000Y-22050000D02*
X18000000Y-22050000D01*
X15000000Y-9500000D02*
X15000000Y-12500000D01*
D41*
X18000000Y-22050000D02*
X13120000Y-22050000D01*
D40*
X22888300Y-22125000D02*
X23000000Y-22125000D01*
D41*
X9000000Y-22500000D02*
X9000000Y-16912500D01*
D40*
X13240000Y-17000000D02*
X13120000Y-16880000D01*
D38*
X20500000Y-27500000D02*
X20500000Y-22050000D01*
D40*
X18070000Y-9542500D02*
X18027500Y-9500000D01*
D41*
X9000000Y-22500000D02*
X5400000Y-22500000D01*
D38*
X15500000Y-13000000D02*
X15500000Y-14500000D01*
D40*
X4950000Y-22050000D02*
X4500000Y-22500000D01*
X15000000Y-12500000D02*
X15500000Y-13000000D01*
D38*
X18000000Y-27587500D02*
X20412500Y-27587500D01*
X19000000Y-9500000D02*
X22000000Y-6500000D01*
X18027500Y-9500000D02*
X15000000Y-9500000D01*
X13120000Y-22050000D02*
X12670000Y-22500000D01*
X8967500Y-16880000D02*
X8500000Y-16412500D01*
X15000000Y-17000000D02*
X13240000Y-17000000D01*
X13120000Y-16880000D02*
X8967500Y-16880000D01*
D41*
X10000000Y-22500000D02*
X9000000Y-22500000D01*
D38*
X22925000Y-22050000D02*
X20500000Y-22050000D01*
X15500000Y-14500000D02*
X15000000Y-15000000D01*
D37*
%TO.N,Net-(D1-A)*%
X65000000Y-3062500D02*
X63378500Y-1441000D01*
X41740500Y-10500000D02*
X41804400Y-10563900D01*
X32062500Y-11000000D02*
X32562500Y-10500000D01*
X35987200Y-18889300D02*
X35362500Y-19514000D01*
X32562500Y-10500000D02*
X41740500Y-10500000D01*
X63378500Y-1441000D02*
X45237500Y-1441000D01*
X35831000Y-19045500D02*
X35987200Y-18889300D01*
X35362500Y-19514000D02*
X35362500Y-20050000D01*
X35987200Y-18889300D02*
X35831000Y-19045500D01*
%TO.N,Net-(D3-A)*%
X4500000Y-11437500D02*
X4500000Y-14587500D01*
%TO.N,Net-(D3-K)*%
X9374600Y-8532200D02*
X5530300Y-8532200D01*
X5530300Y-8532200D02*
X4500000Y-9562500D01*
X10692600Y-12684400D02*
X10692600Y-9850200D01*
X13120000Y-14340000D02*
X12348200Y-14340000D01*
X12348200Y-14340000D02*
X10692600Y-12684400D01*
X10692600Y-9850200D02*
X9374600Y-8532200D01*
%TO.N,Net-(D4-K)*%
X13120000Y-15610000D02*
X12348900Y-15610000D01*
X8595500Y-9625000D02*
X8500000Y-9625000D01*
X9821800Y-10851300D02*
X8595500Y-9625000D01*
X12348900Y-15610000D02*
X9821800Y-13082900D01*
X9821800Y-13082900D02*
X9821800Y-10851300D01*
%TO.N,Net-(D4-A)*%
X8500000Y-11500000D02*
X8500000Y-14587500D01*
%TO.N,/OUT_EN*%
X51412500Y-18500000D02*
X50412500Y-19500000D01*
X65500000Y-18500000D02*
X51412500Y-18500000D01*
%TO.N,Net-(Q2-B)*%
X57639100Y-4026600D02*
X49648400Y-4026600D01*
X58550000Y-4937500D02*
X57639100Y-4026600D01*
X49648400Y-4026600D02*
X49500000Y-4175000D01*
%TO.N,Net-(Q7-B)*%
X47733600Y-14412500D02*
X47696100Y-14450000D01*
X47696100Y-14450000D02*
X43375000Y-14450000D01*
X49000000Y-14412500D02*
X47733600Y-14412500D01*
X47696100Y-14450000D02*
X47696100Y-18608600D01*
X47696100Y-18608600D02*
X48587500Y-19500000D01*
%TO.N,Net-(Q7-C)*%
X37637500Y-21950000D02*
X41500000Y-18087500D01*
X41500000Y-18087500D02*
X41500000Y-13500000D01*
%TO.N,Net-(U1-PROG)*%
X15620500Y-31208000D02*
X18912500Y-31208000D01*
X16413000Y-15513200D02*
X17973200Y-15513200D01*
X17973200Y-15513200D02*
X18070000Y-15610000D01*
X11912500Y-27500000D02*
X15620500Y-31208000D01*
%TD*%
M02*
