%TF.GenerationSoftware,KiCad,Pcbnew,9.0.2*%
%TF.CreationDate,2025-07-08T17:36:15+03:00*%
%TF.ProjectId,rechargeble_pack,72656368-6172-4676-9562-6c655f706163,rev?*%
%TF.SameCoordinates,Original*%
%TF.FileFunction,Legend,Top*%
%TF.FilePolarity,Positive*%
%FSLAX46Y46*%
G04 Gerber Fmt 4.6, Leading zero omitted, Abs format (unit mm)*
G04 Created by KiCad (PCBNEW 9.0.2) date 2025-07-08 17:36:15*
%MOMM*%
%LPD*%
G01*
G04 APERTURE LIST*
%ADD10C,0.100000*%
%ADD11C,0.150000*%
%ADD12C,0.120000*%
G04 APERTURE END LIST*
D10*
X64872419Y-18735996D02*
X64872419Y-18545520D01*
X64872419Y-18545520D02*
X64824800Y-18450282D01*
X64824800Y-18450282D02*
X64777180Y-18402663D01*
X64777180Y-18402663D02*
X64634323Y-18307425D01*
X64634323Y-18307425D02*
X64443847Y-18259806D01*
X64443847Y-18259806D02*
X64062895Y-18259806D01*
X64062895Y-18259806D02*
X63967657Y-18307425D01*
X63967657Y-18307425D02*
X63920038Y-18355044D01*
X63920038Y-18355044D02*
X63872419Y-18450282D01*
X63872419Y-18450282D02*
X63872419Y-18640758D01*
X63872419Y-18640758D02*
X63920038Y-18735996D01*
X63920038Y-18735996D02*
X63967657Y-18783615D01*
X63967657Y-18783615D02*
X64062895Y-18831234D01*
X64062895Y-18831234D02*
X64300990Y-18831234D01*
X64300990Y-18831234D02*
X64396228Y-18783615D01*
X64396228Y-18783615D02*
X64443847Y-18735996D01*
X64443847Y-18735996D02*
X64491466Y-18640758D01*
X64491466Y-18640758D02*
X64491466Y-18450282D01*
X64491466Y-18450282D02*
X64443847Y-18355044D01*
X64443847Y-18355044D02*
X64396228Y-18307425D01*
X64396228Y-18307425D02*
X64300990Y-18259806D01*
X63872419Y-17974091D02*
X64872419Y-17640758D01*
X64872419Y-17640758D02*
X63872419Y-17307425D01*
X1372419Y-13807425D02*
X1372419Y-14283615D01*
X1372419Y-14283615D02*
X1848609Y-14331234D01*
X1848609Y-14331234D02*
X1800990Y-14283615D01*
X1800990Y-14283615D02*
X1753371Y-14188377D01*
X1753371Y-14188377D02*
X1753371Y-13950282D01*
X1753371Y-13950282D02*
X1800990Y-13855044D01*
X1800990Y-13855044D02*
X1848609Y-13807425D01*
X1848609Y-13807425D02*
X1943847Y-13759806D01*
X1943847Y-13759806D02*
X2181942Y-13759806D01*
X2181942Y-13759806D02*
X2277180Y-13807425D01*
X2277180Y-13807425D02*
X2324800Y-13855044D01*
X2324800Y-13855044D02*
X2372419Y-13950282D01*
X2372419Y-13950282D02*
X2372419Y-14188377D01*
X2372419Y-14188377D02*
X2324800Y-14283615D01*
X2324800Y-14283615D02*
X2277180Y-14331234D01*
X1372419Y-13474091D02*
X2372419Y-13140758D01*
X2372419Y-13140758D02*
X1372419Y-12807425D01*
X41303884Y-6991466D02*
X42065789Y-6991466D01*
X35303884Y-6991466D02*
X36065789Y-6991466D01*
X35684836Y-7372419D02*
X35684836Y-6610514D01*
X63872419Y-28426472D02*
X63872419Y-27855044D01*
X64872419Y-28140758D02*
X63872419Y-28140758D01*
X64872419Y-27521710D02*
X63872419Y-27521710D01*
X64872419Y-27045520D02*
X63872419Y-27045520D01*
X63872419Y-27045520D02*
X63872419Y-26664568D01*
X63872419Y-26664568D02*
X63920038Y-26569330D01*
X63920038Y-26569330D02*
X63967657Y-26521711D01*
X63967657Y-26521711D02*
X64062895Y-26474092D01*
X64062895Y-26474092D02*
X64205752Y-26474092D01*
X64205752Y-26474092D02*
X64300990Y-26521711D01*
X64300990Y-26521711D02*
X64348609Y-26569330D01*
X64348609Y-26569330D02*
X64396228Y-26664568D01*
X64396228Y-26664568D02*
X64396228Y-27045520D01*
X63920038Y-23259806D02*
X63872419Y-23355044D01*
X63872419Y-23355044D02*
X63872419Y-23497901D01*
X63872419Y-23497901D02*
X63920038Y-23640758D01*
X63920038Y-23640758D02*
X64015276Y-23735996D01*
X64015276Y-23735996D02*
X64110514Y-23783615D01*
X64110514Y-23783615D02*
X64300990Y-23831234D01*
X64300990Y-23831234D02*
X64443847Y-23831234D01*
X64443847Y-23831234D02*
X64634323Y-23783615D01*
X64634323Y-23783615D02*
X64729561Y-23735996D01*
X64729561Y-23735996D02*
X64824800Y-23640758D01*
X64824800Y-23640758D02*
X64872419Y-23497901D01*
X64872419Y-23497901D02*
X64872419Y-23402663D01*
X64872419Y-23402663D02*
X64824800Y-23259806D01*
X64824800Y-23259806D02*
X64777180Y-23212187D01*
X64777180Y-23212187D02*
X64443847Y-23212187D01*
X64443847Y-23212187D02*
X64443847Y-23402663D01*
X64872419Y-22783615D02*
X63872419Y-22783615D01*
X63872419Y-22783615D02*
X64872419Y-22212187D01*
X64872419Y-22212187D02*
X63872419Y-22212187D01*
X64872419Y-21735996D02*
X63872419Y-21735996D01*
X63872419Y-21735996D02*
X63872419Y-21497901D01*
X63872419Y-21497901D02*
X63920038Y-21355044D01*
X63920038Y-21355044D02*
X64015276Y-21259806D01*
X64015276Y-21259806D02*
X64110514Y-21212187D01*
X64110514Y-21212187D02*
X64300990Y-21164568D01*
X64300990Y-21164568D02*
X64443847Y-21164568D01*
X64443847Y-21164568D02*
X64634323Y-21212187D01*
X64634323Y-21212187D02*
X64729561Y-21259806D01*
X64729561Y-21259806D02*
X64824800Y-21355044D01*
X64824800Y-21355044D02*
X64872419Y-21497901D01*
X64872419Y-21497901D02*
X64872419Y-21735996D01*
X37780074Y-7372419D02*
X37303884Y-7372419D01*
X37303884Y-7372419D02*
X37303884Y-6372419D01*
X38113408Y-7372419D02*
X38113408Y-6705752D01*
X38113408Y-6372419D02*
X38065789Y-6420038D01*
X38065789Y-6420038D02*
X38113408Y-6467657D01*
X38113408Y-6467657D02*
X38161027Y-6420038D01*
X38161027Y-6420038D02*
X38113408Y-6372419D01*
X38113408Y-6372419D02*
X38113408Y-6467657D01*
X38589598Y-7372419D02*
X38589598Y-6372419D01*
X38589598Y-6372419D02*
X38970550Y-6372419D01*
X38970550Y-6372419D02*
X39065788Y-6420038D01*
X39065788Y-6420038D02*
X39113407Y-6467657D01*
X39113407Y-6467657D02*
X39161026Y-6562895D01*
X39161026Y-6562895D02*
X39161026Y-6705752D01*
X39161026Y-6705752D02*
X39113407Y-6800990D01*
X39113407Y-6800990D02*
X39065788Y-6848609D01*
X39065788Y-6848609D02*
X38970550Y-6896228D01*
X38970550Y-6896228D02*
X38589598Y-6896228D01*
X39732455Y-7372419D02*
X39637217Y-7324800D01*
X39637217Y-7324800D02*
X39589598Y-7277180D01*
X39589598Y-7277180D02*
X39541979Y-7181942D01*
X39541979Y-7181942D02*
X39541979Y-6896228D01*
X39541979Y-6896228D02*
X39589598Y-6800990D01*
X39589598Y-6800990D02*
X39637217Y-6753371D01*
X39637217Y-6753371D02*
X39732455Y-6705752D01*
X39732455Y-6705752D02*
X39875312Y-6705752D01*
X39875312Y-6705752D02*
X39970550Y-6753371D01*
X39970550Y-6753371D02*
X40018169Y-6800990D01*
X40018169Y-6800990D02*
X40065788Y-6896228D01*
X40065788Y-6896228D02*
X40065788Y-7181942D01*
X40065788Y-7181942D02*
X40018169Y-7277180D01*
X40018169Y-7277180D02*
X39970550Y-7324800D01*
X39970550Y-7324800D02*
X39875312Y-7372419D01*
X39875312Y-7372419D02*
X39732455Y-7372419D01*
X1420038Y-19259806D02*
X1372419Y-19355044D01*
X1372419Y-19355044D02*
X1372419Y-19497901D01*
X1372419Y-19497901D02*
X1420038Y-19640758D01*
X1420038Y-19640758D02*
X1515276Y-19735996D01*
X1515276Y-19735996D02*
X1610514Y-19783615D01*
X1610514Y-19783615D02*
X1800990Y-19831234D01*
X1800990Y-19831234D02*
X1943847Y-19831234D01*
X1943847Y-19831234D02*
X2134323Y-19783615D01*
X2134323Y-19783615D02*
X2229561Y-19735996D01*
X2229561Y-19735996D02*
X2324800Y-19640758D01*
X2324800Y-19640758D02*
X2372419Y-19497901D01*
X2372419Y-19497901D02*
X2372419Y-19402663D01*
X2372419Y-19402663D02*
X2324800Y-19259806D01*
X2324800Y-19259806D02*
X2277180Y-19212187D01*
X2277180Y-19212187D02*
X1943847Y-19212187D01*
X1943847Y-19212187D02*
X1943847Y-19402663D01*
X2372419Y-18783615D02*
X1372419Y-18783615D01*
X1372419Y-18783615D02*
X2372419Y-18212187D01*
X2372419Y-18212187D02*
X1372419Y-18212187D01*
X2372419Y-17735996D02*
X1372419Y-17735996D01*
X1372419Y-17735996D02*
X1372419Y-17497901D01*
X1372419Y-17497901D02*
X1420038Y-17355044D01*
X1420038Y-17355044D02*
X1515276Y-17259806D01*
X1515276Y-17259806D02*
X1610514Y-17212187D01*
X1610514Y-17212187D02*
X1800990Y-17164568D01*
X1800990Y-17164568D02*
X1943847Y-17164568D01*
X1943847Y-17164568D02*
X2134323Y-17212187D01*
X2134323Y-17212187D02*
X2229561Y-17259806D01*
X2229561Y-17259806D02*
X2324800Y-17355044D01*
X2324800Y-17355044D02*
X2372419Y-17497901D01*
X2372419Y-17497901D02*
X2372419Y-17735996D01*
D11*
X27357142Y-7197080D02*
X27309523Y-7244700D01*
X27309523Y-7244700D02*
X27166666Y-7292319D01*
X27166666Y-7292319D02*
X27071428Y-7292319D01*
X27071428Y-7292319D02*
X26928571Y-7244700D01*
X26928571Y-7244700D02*
X26833333Y-7149461D01*
X26833333Y-7149461D02*
X26785714Y-7054223D01*
X26785714Y-7054223D02*
X26738095Y-6863747D01*
X26738095Y-6863747D02*
X26738095Y-6720890D01*
X26738095Y-6720890D02*
X26785714Y-6530414D01*
X26785714Y-6530414D02*
X26833333Y-6435176D01*
X26833333Y-6435176D02*
X26928571Y-6339938D01*
X26928571Y-6339938D02*
X27071428Y-6292319D01*
X27071428Y-6292319D02*
X27166666Y-6292319D01*
X27166666Y-6292319D02*
X27309523Y-6339938D01*
X27309523Y-6339938D02*
X27357142Y-6387557D01*
X28309523Y-7292319D02*
X27738095Y-7292319D01*
X28023809Y-7292319D02*
X28023809Y-6292319D01*
X28023809Y-6292319D02*
X27928571Y-6435176D01*
X27928571Y-6435176D02*
X27833333Y-6530414D01*
X27833333Y-6530414D02*
X27738095Y-6578033D01*
X28642857Y-6292319D02*
X29261904Y-6292319D01*
X29261904Y-6292319D02*
X28928571Y-6673271D01*
X28928571Y-6673271D02*
X29071428Y-6673271D01*
X29071428Y-6673271D02*
X29166666Y-6720890D01*
X29166666Y-6720890D02*
X29214285Y-6768509D01*
X29214285Y-6768509D02*
X29261904Y-6863747D01*
X29261904Y-6863747D02*
X29261904Y-7101842D01*
X29261904Y-7101842D02*
X29214285Y-7197080D01*
X29214285Y-7197080D02*
X29166666Y-7244700D01*
X29166666Y-7244700D02*
X29071428Y-7292319D01*
X29071428Y-7292319D02*
X28785714Y-7292319D01*
X28785714Y-7292319D02*
X28690476Y-7244700D01*
X28690476Y-7244700D02*
X28642857Y-7197080D01*
X46019580Y-23210357D02*
X46067200Y-23257976D01*
X46067200Y-23257976D02*
X46114819Y-23400833D01*
X46114819Y-23400833D02*
X46114819Y-23496071D01*
X46114819Y-23496071D02*
X46067200Y-23638928D01*
X46067200Y-23638928D02*
X45971961Y-23734166D01*
X45971961Y-23734166D02*
X45876723Y-23781785D01*
X45876723Y-23781785D02*
X45686247Y-23829404D01*
X45686247Y-23829404D02*
X45543390Y-23829404D01*
X45543390Y-23829404D02*
X45352914Y-23781785D01*
X45352914Y-23781785D02*
X45257676Y-23734166D01*
X45257676Y-23734166D02*
X45162438Y-23638928D01*
X45162438Y-23638928D02*
X45114819Y-23496071D01*
X45114819Y-23496071D02*
X45114819Y-23400833D01*
X45114819Y-23400833D02*
X45162438Y-23257976D01*
X45162438Y-23257976D02*
X45210057Y-23210357D01*
X46114819Y-22257976D02*
X46114819Y-22829404D01*
X46114819Y-22543690D02*
X45114819Y-22543690D01*
X45114819Y-22543690D02*
X45257676Y-22638928D01*
X45257676Y-22638928D02*
X45352914Y-22734166D01*
X45352914Y-22734166D02*
X45400533Y-22829404D01*
X45114819Y-21638928D02*
X45114819Y-21543690D01*
X45114819Y-21543690D02*
X45162438Y-21448452D01*
X45162438Y-21448452D02*
X45210057Y-21400833D01*
X45210057Y-21400833D02*
X45305295Y-21353214D01*
X45305295Y-21353214D02*
X45495771Y-21305595D01*
X45495771Y-21305595D02*
X45733866Y-21305595D01*
X45733866Y-21305595D02*
X45924342Y-21353214D01*
X45924342Y-21353214D02*
X46019580Y-21400833D01*
X46019580Y-21400833D02*
X46067200Y-21448452D01*
X46067200Y-21448452D02*
X46114819Y-21543690D01*
X46114819Y-21543690D02*
X46114819Y-21638928D01*
X46114819Y-21638928D02*
X46067200Y-21734166D01*
X46067200Y-21734166D02*
X46019580Y-21781785D01*
X46019580Y-21781785D02*
X45924342Y-21829404D01*
X45924342Y-21829404D02*
X45733866Y-21877023D01*
X45733866Y-21877023D02*
X45495771Y-21877023D01*
X45495771Y-21877023D02*
X45305295Y-21829404D01*
X45305295Y-21829404D02*
X45210057Y-21781785D01*
X45210057Y-21781785D02*
X45162438Y-21734166D01*
X45162438Y-21734166D02*
X45114819Y-21638928D01*
X15543133Y-30297080D02*
X15495514Y-30344700D01*
X15495514Y-30344700D02*
X15352657Y-30392319D01*
X15352657Y-30392319D02*
X15257419Y-30392319D01*
X15257419Y-30392319D02*
X15114562Y-30344700D01*
X15114562Y-30344700D02*
X15019324Y-30249461D01*
X15019324Y-30249461D02*
X14971705Y-30154223D01*
X14971705Y-30154223D02*
X14924086Y-29963747D01*
X14924086Y-29963747D02*
X14924086Y-29820890D01*
X14924086Y-29820890D02*
X14971705Y-29630414D01*
X14971705Y-29630414D02*
X15019324Y-29535176D01*
X15019324Y-29535176D02*
X15114562Y-29439938D01*
X15114562Y-29439938D02*
X15257419Y-29392319D01*
X15257419Y-29392319D02*
X15352657Y-29392319D01*
X15352657Y-29392319D02*
X15495514Y-29439938D01*
X15495514Y-29439938D02*
X15543133Y-29487557D01*
X15876467Y-29392319D02*
X16543133Y-29392319D01*
X16543133Y-29392319D02*
X16114562Y-30392319D01*
X12604819Y-6730357D02*
X12128628Y-7063690D01*
X12604819Y-7301785D02*
X11604819Y-7301785D01*
X11604819Y-7301785D02*
X11604819Y-6920833D01*
X11604819Y-6920833D02*
X11652438Y-6825595D01*
X11652438Y-6825595D02*
X11700057Y-6777976D01*
X11700057Y-6777976D02*
X11795295Y-6730357D01*
X11795295Y-6730357D02*
X11938152Y-6730357D01*
X11938152Y-6730357D02*
X12033390Y-6777976D01*
X12033390Y-6777976D02*
X12081009Y-6825595D01*
X12081009Y-6825595D02*
X12128628Y-6920833D01*
X12128628Y-6920833D02*
X12128628Y-7301785D01*
X12604819Y-5777976D02*
X12604819Y-6349404D01*
X12604819Y-6063690D02*
X11604819Y-6063690D01*
X11604819Y-6063690D02*
X11747676Y-6158928D01*
X11747676Y-6158928D02*
X11842914Y-6254166D01*
X11842914Y-6254166D02*
X11890533Y-6349404D01*
X12604819Y-4825595D02*
X12604819Y-5397023D01*
X12604819Y-5111309D02*
X11604819Y-5111309D01*
X11604819Y-5111309D02*
X11747676Y-5206547D01*
X11747676Y-5206547D02*
X11842914Y-5301785D01*
X11842914Y-5301785D02*
X11890533Y-5397023D01*
X52539580Y-22254166D02*
X52587200Y-22301785D01*
X52587200Y-22301785D02*
X52634819Y-22444642D01*
X52634819Y-22444642D02*
X52634819Y-22539880D01*
X52634819Y-22539880D02*
X52587200Y-22682737D01*
X52587200Y-22682737D02*
X52491961Y-22777975D01*
X52491961Y-22777975D02*
X52396723Y-22825594D01*
X52396723Y-22825594D02*
X52206247Y-22873213D01*
X52206247Y-22873213D02*
X52063390Y-22873213D01*
X52063390Y-22873213D02*
X51872914Y-22825594D01*
X51872914Y-22825594D02*
X51777676Y-22777975D01*
X51777676Y-22777975D02*
X51682438Y-22682737D01*
X51682438Y-22682737D02*
X51634819Y-22539880D01*
X51634819Y-22539880D02*
X51634819Y-22444642D01*
X51634819Y-22444642D02*
X51682438Y-22301785D01*
X51682438Y-22301785D02*
X51730057Y-22254166D01*
X52634819Y-21777975D02*
X52634819Y-21587499D01*
X52634819Y-21587499D02*
X52587200Y-21492261D01*
X52587200Y-21492261D02*
X52539580Y-21444642D01*
X52539580Y-21444642D02*
X52396723Y-21349404D01*
X52396723Y-21349404D02*
X52206247Y-21301785D01*
X52206247Y-21301785D02*
X51825295Y-21301785D01*
X51825295Y-21301785D02*
X51730057Y-21349404D01*
X51730057Y-21349404D02*
X51682438Y-21397023D01*
X51682438Y-21397023D02*
X51634819Y-21492261D01*
X51634819Y-21492261D02*
X51634819Y-21682737D01*
X51634819Y-21682737D02*
X51682438Y-21777975D01*
X51682438Y-21777975D02*
X51730057Y-21825594D01*
X51730057Y-21825594D02*
X51825295Y-21873213D01*
X51825295Y-21873213D02*
X52063390Y-21873213D01*
X52063390Y-21873213D02*
X52158628Y-21825594D01*
X52158628Y-21825594D02*
X52206247Y-21777975D01*
X52206247Y-21777975D02*
X52253866Y-21682737D01*
X52253866Y-21682737D02*
X52253866Y-21492261D01*
X52253866Y-21492261D02*
X52206247Y-21397023D01*
X52206247Y-21397023D02*
X52158628Y-21349404D01*
X52158628Y-21349404D02*
X52063390Y-21301785D01*
X60679580Y-13142857D02*
X60727200Y-13190476D01*
X60727200Y-13190476D02*
X60774819Y-13333333D01*
X60774819Y-13333333D02*
X60774819Y-13428571D01*
X60774819Y-13428571D02*
X60727200Y-13571428D01*
X60727200Y-13571428D02*
X60631961Y-13666666D01*
X60631961Y-13666666D02*
X60536723Y-13714285D01*
X60536723Y-13714285D02*
X60346247Y-13761904D01*
X60346247Y-13761904D02*
X60203390Y-13761904D01*
X60203390Y-13761904D02*
X60012914Y-13714285D01*
X60012914Y-13714285D02*
X59917676Y-13666666D01*
X59917676Y-13666666D02*
X59822438Y-13571428D01*
X59822438Y-13571428D02*
X59774819Y-13428571D01*
X59774819Y-13428571D02*
X59774819Y-13333333D01*
X59774819Y-13333333D02*
X59822438Y-13190476D01*
X59822438Y-13190476D02*
X59870057Y-13142857D01*
X60774819Y-12190476D02*
X60774819Y-12761904D01*
X60774819Y-12476190D02*
X59774819Y-12476190D01*
X59774819Y-12476190D02*
X59917676Y-12571428D01*
X59917676Y-12571428D02*
X60012914Y-12666666D01*
X60012914Y-12666666D02*
X60060533Y-12761904D01*
X60774819Y-11238095D02*
X60774819Y-11809523D01*
X60774819Y-11523809D02*
X59774819Y-11523809D01*
X59774819Y-11523809D02*
X59917676Y-11619047D01*
X59917676Y-11619047D02*
X60012914Y-11714285D01*
X60012914Y-11714285D02*
X60060533Y-11809523D01*
X9357142Y-25627080D02*
X9309523Y-25674700D01*
X9309523Y-25674700D02*
X9166666Y-25722319D01*
X9166666Y-25722319D02*
X9071428Y-25722319D01*
X9071428Y-25722319D02*
X8928571Y-25674700D01*
X8928571Y-25674700D02*
X8833333Y-25579461D01*
X8833333Y-25579461D02*
X8785714Y-25484223D01*
X8785714Y-25484223D02*
X8738095Y-25293747D01*
X8738095Y-25293747D02*
X8738095Y-25150890D01*
X8738095Y-25150890D02*
X8785714Y-24960414D01*
X8785714Y-24960414D02*
X8833333Y-24865176D01*
X8833333Y-24865176D02*
X8928571Y-24769938D01*
X8928571Y-24769938D02*
X9071428Y-24722319D01*
X9071428Y-24722319D02*
X9166666Y-24722319D01*
X9166666Y-24722319D02*
X9309523Y-24769938D01*
X9309523Y-24769938D02*
X9357142Y-24817557D01*
X10309523Y-25722319D02*
X9738095Y-25722319D01*
X10023809Y-25722319D02*
X10023809Y-24722319D01*
X10023809Y-24722319D02*
X9928571Y-24865176D01*
X9928571Y-24865176D02*
X9833333Y-24960414D01*
X9833333Y-24960414D02*
X9738095Y-25008033D01*
X11166666Y-25055652D02*
X11166666Y-25722319D01*
X10928571Y-24674700D02*
X10690476Y-25388985D01*
X10690476Y-25388985D02*
X11309523Y-25388985D01*
X54833333Y-17304819D02*
X54500000Y-16828628D01*
X54261905Y-17304819D02*
X54261905Y-16304819D01*
X54261905Y-16304819D02*
X54642857Y-16304819D01*
X54642857Y-16304819D02*
X54738095Y-16352438D01*
X54738095Y-16352438D02*
X54785714Y-16400057D01*
X54785714Y-16400057D02*
X54833333Y-16495295D01*
X54833333Y-16495295D02*
X54833333Y-16638152D01*
X54833333Y-16638152D02*
X54785714Y-16733390D01*
X54785714Y-16733390D02*
X54738095Y-16781009D01*
X54738095Y-16781009D02*
X54642857Y-16828628D01*
X54642857Y-16828628D02*
X54261905Y-16828628D01*
X55785714Y-17304819D02*
X55214286Y-17304819D01*
X55500000Y-17304819D02*
X55500000Y-16304819D01*
X55500000Y-16304819D02*
X55404762Y-16447676D01*
X55404762Y-16447676D02*
X55309524Y-16542914D01*
X55309524Y-16542914D02*
X55214286Y-16590533D01*
X61842261Y-8450057D02*
X61747023Y-8402438D01*
X61747023Y-8402438D02*
X61651785Y-8307200D01*
X61651785Y-8307200D02*
X61508928Y-8164342D01*
X61508928Y-8164342D02*
X61413690Y-8116723D01*
X61413690Y-8116723D02*
X61318452Y-8116723D01*
X61366071Y-8354819D02*
X61270833Y-8307200D01*
X61270833Y-8307200D02*
X61175595Y-8211961D01*
X61175595Y-8211961D02*
X61127976Y-8021485D01*
X61127976Y-8021485D02*
X61127976Y-7688152D01*
X61127976Y-7688152D02*
X61175595Y-7497676D01*
X61175595Y-7497676D02*
X61270833Y-7402438D01*
X61270833Y-7402438D02*
X61366071Y-7354819D01*
X61366071Y-7354819D02*
X61556547Y-7354819D01*
X61556547Y-7354819D02*
X61651785Y-7402438D01*
X61651785Y-7402438D02*
X61747023Y-7497676D01*
X61747023Y-7497676D02*
X61794642Y-7688152D01*
X61794642Y-7688152D02*
X61794642Y-8021485D01*
X61794642Y-8021485D02*
X61747023Y-8211961D01*
X61747023Y-8211961D02*
X61651785Y-8307200D01*
X61651785Y-8307200D02*
X61556547Y-8354819D01*
X61556547Y-8354819D02*
X61366071Y-8354819D01*
X62651785Y-7354819D02*
X62461309Y-7354819D01*
X62461309Y-7354819D02*
X62366071Y-7402438D01*
X62366071Y-7402438D02*
X62318452Y-7450057D01*
X62318452Y-7450057D02*
X62223214Y-7592914D01*
X62223214Y-7592914D02*
X62175595Y-7783390D01*
X62175595Y-7783390D02*
X62175595Y-8164342D01*
X62175595Y-8164342D02*
X62223214Y-8259580D01*
X62223214Y-8259580D02*
X62270833Y-8307200D01*
X62270833Y-8307200D02*
X62366071Y-8354819D01*
X62366071Y-8354819D02*
X62556547Y-8354819D01*
X62556547Y-8354819D02*
X62651785Y-8307200D01*
X62651785Y-8307200D02*
X62699404Y-8259580D01*
X62699404Y-8259580D02*
X62747023Y-8164342D01*
X62747023Y-8164342D02*
X62747023Y-7926247D01*
X62747023Y-7926247D02*
X62699404Y-7831009D01*
X62699404Y-7831009D02*
X62651785Y-7783390D01*
X62651785Y-7783390D02*
X62556547Y-7735771D01*
X62556547Y-7735771D02*
X62366071Y-7735771D01*
X62366071Y-7735771D02*
X62270833Y-7783390D01*
X62270833Y-7783390D02*
X62223214Y-7831009D01*
X62223214Y-7831009D02*
X62175595Y-7926247D01*
X45333333Y-13692319D02*
X45000000Y-13216128D01*
X44761905Y-13692319D02*
X44761905Y-12692319D01*
X44761905Y-12692319D02*
X45142857Y-12692319D01*
X45142857Y-12692319D02*
X45238095Y-12739938D01*
X45238095Y-12739938D02*
X45285714Y-12787557D01*
X45285714Y-12787557D02*
X45333333Y-12882795D01*
X45333333Y-12882795D02*
X45333333Y-13025652D01*
X45333333Y-13025652D02*
X45285714Y-13120890D01*
X45285714Y-13120890D02*
X45238095Y-13168509D01*
X45238095Y-13168509D02*
X45142857Y-13216128D01*
X45142857Y-13216128D02*
X44761905Y-13216128D01*
X45714286Y-12787557D02*
X45761905Y-12739938D01*
X45761905Y-12739938D02*
X45857143Y-12692319D01*
X45857143Y-12692319D02*
X46095238Y-12692319D01*
X46095238Y-12692319D02*
X46190476Y-12739938D01*
X46190476Y-12739938D02*
X46238095Y-12787557D01*
X46238095Y-12787557D02*
X46285714Y-12882795D01*
X46285714Y-12882795D02*
X46285714Y-12978033D01*
X46285714Y-12978033D02*
X46238095Y-13120890D01*
X46238095Y-13120890D02*
X45666667Y-13692319D01*
X45666667Y-13692319D02*
X46285714Y-13692319D01*
X9444642Y-27042319D02*
X9111309Y-26566128D01*
X8873214Y-27042319D02*
X8873214Y-26042319D01*
X8873214Y-26042319D02*
X9254166Y-26042319D01*
X9254166Y-26042319D02*
X9349404Y-26089938D01*
X9349404Y-26089938D02*
X9397023Y-26137557D01*
X9397023Y-26137557D02*
X9444642Y-26232795D01*
X9444642Y-26232795D02*
X9444642Y-26375652D01*
X9444642Y-26375652D02*
X9397023Y-26470890D01*
X9397023Y-26470890D02*
X9349404Y-26518509D01*
X9349404Y-26518509D02*
X9254166Y-26566128D01*
X9254166Y-26566128D02*
X8873214Y-26566128D01*
X10397023Y-27042319D02*
X9825595Y-27042319D01*
X10111309Y-27042319D02*
X10111309Y-26042319D01*
X10111309Y-26042319D02*
X10016071Y-26185176D01*
X10016071Y-26185176D02*
X9920833Y-26280414D01*
X9920833Y-26280414D02*
X9825595Y-26328033D01*
X11016071Y-26042319D02*
X11111309Y-26042319D01*
X11111309Y-26042319D02*
X11206547Y-26089938D01*
X11206547Y-26089938D02*
X11254166Y-26137557D01*
X11254166Y-26137557D02*
X11301785Y-26232795D01*
X11301785Y-26232795D02*
X11349404Y-26423271D01*
X11349404Y-26423271D02*
X11349404Y-26661366D01*
X11349404Y-26661366D02*
X11301785Y-26851842D01*
X11301785Y-26851842D02*
X11254166Y-26947080D01*
X11254166Y-26947080D02*
X11206547Y-26994700D01*
X11206547Y-26994700D02*
X11111309Y-27042319D01*
X11111309Y-27042319D02*
X11016071Y-27042319D01*
X11016071Y-27042319D02*
X10920833Y-26994700D01*
X10920833Y-26994700D02*
X10873214Y-26947080D01*
X10873214Y-26947080D02*
X10825595Y-26851842D01*
X10825595Y-26851842D02*
X10777976Y-26661366D01*
X10777976Y-26661366D02*
X10777976Y-26423271D01*
X10777976Y-26423271D02*
X10825595Y-26232795D01*
X10825595Y-26232795D02*
X10873214Y-26137557D01*
X10873214Y-26137557D02*
X10920833Y-26089938D01*
X10920833Y-26089938D02*
X11016071Y-26042319D01*
X22333333Y-13592319D02*
X21857143Y-13592319D01*
X21857143Y-13592319D02*
X21857143Y-12592319D01*
X23190476Y-13592319D02*
X22619048Y-13592319D01*
X22904762Y-13592319D02*
X22904762Y-12592319D01*
X22904762Y-12592319D02*
X22809524Y-12735176D01*
X22809524Y-12735176D02*
X22714286Y-12830414D01*
X22714286Y-12830414D02*
X22619048Y-12878033D01*
X30104819Y-22341666D02*
X29628628Y-22674999D01*
X30104819Y-22913094D02*
X29104819Y-22913094D01*
X29104819Y-22913094D02*
X29104819Y-22532142D01*
X29104819Y-22532142D02*
X29152438Y-22436904D01*
X29152438Y-22436904D02*
X29200057Y-22389285D01*
X29200057Y-22389285D02*
X29295295Y-22341666D01*
X29295295Y-22341666D02*
X29438152Y-22341666D01*
X29438152Y-22341666D02*
X29533390Y-22389285D01*
X29533390Y-22389285D02*
X29581009Y-22436904D01*
X29581009Y-22436904D02*
X29628628Y-22532142D01*
X29628628Y-22532142D02*
X29628628Y-22913094D01*
X29104819Y-22008332D02*
X29104819Y-21389285D01*
X29104819Y-21389285D02*
X29485771Y-21722618D01*
X29485771Y-21722618D02*
X29485771Y-21579761D01*
X29485771Y-21579761D02*
X29533390Y-21484523D01*
X29533390Y-21484523D02*
X29581009Y-21436904D01*
X29581009Y-21436904D02*
X29676247Y-21389285D01*
X29676247Y-21389285D02*
X29914342Y-21389285D01*
X29914342Y-21389285D02*
X30009580Y-21436904D01*
X30009580Y-21436904D02*
X30057200Y-21484523D01*
X30057200Y-21484523D02*
X30104819Y-21579761D01*
X30104819Y-21579761D02*
X30104819Y-21865475D01*
X30104819Y-21865475D02*
X30057200Y-21960713D01*
X30057200Y-21960713D02*
X30009580Y-22008332D01*
X58539580Y-25304166D02*
X58587200Y-25351785D01*
X58587200Y-25351785D02*
X58634819Y-25494642D01*
X58634819Y-25494642D02*
X58634819Y-25589880D01*
X58634819Y-25589880D02*
X58587200Y-25732737D01*
X58587200Y-25732737D02*
X58491961Y-25827975D01*
X58491961Y-25827975D02*
X58396723Y-25875594D01*
X58396723Y-25875594D02*
X58206247Y-25923213D01*
X58206247Y-25923213D02*
X58063390Y-25923213D01*
X58063390Y-25923213D02*
X57872914Y-25875594D01*
X57872914Y-25875594D02*
X57777676Y-25827975D01*
X57777676Y-25827975D02*
X57682438Y-25732737D01*
X57682438Y-25732737D02*
X57634819Y-25589880D01*
X57634819Y-25589880D02*
X57634819Y-25494642D01*
X57634819Y-25494642D02*
X57682438Y-25351785D01*
X57682438Y-25351785D02*
X57730057Y-25304166D01*
X58634819Y-24351785D02*
X58634819Y-24923213D01*
X58634819Y-24637499D02*
X57634819Y-24637499D01*
X57634819Y-24637499D02*
X57777676Y-24732737D01*
X57777676Y-24732737D02*
X57872914Y-24827975D01*
X57872914Y-24827975D02*
X57920533Y-24923213D01*
X17833333Y-13604819D02*
X17500000Y-13128628D01*
X17261905Y-13604819D02*
X17261905Y-12604819D01*
X17261905Y-12604819D02*
X17642857Y-12604819D01*
X17642857Y-12604819D02*
X17738095Y-12652438D01*
X17738095Y-12652438D02*
X17785714Y-12700057D01*
X17785714Y-12700057D02*
X17833333Y-12795295D01*
X17833333Y-12795295D02*
X17833333Y-12938152D01*
X17833333Y-12938152D02*
X17785714Y-13033390D01*
X17785714Y-13033390D02*
X17738095Y-13081009D01*
X17738095Y-13081009D02*
X17642857Y-13128628D01*
X17642857Y-13128628D02*
X17261905Y-13128628D01*
X18309524Y-13604819D02*
X18500000Y-13604819D01*
X18500000Y-13604819D02*
X18595238Y-13557200D01*
X18595238Y-13557200D02*
X18642857Y-13509580D01*
X18642857Y-13509580D02*
X18738095Y-13366723D01*
X18738095Y-13366723D02*
X18785714Y-13176247D01*
X18785714Y-13176247D02*
X18785714Y-12795295D01*
X18785714Y-12795295D02*
X18738095Y-12700057D01*
X18738095Y-12700057D02*
X18690476Y-12652438D01*
X18690476Y-12652438D02*
X18595238Y-12604819D01*
X18595238Y-12604819D02*
X18404762Y-12604819D01*
X18404762Y-12604819D02*
X18309524Y-12652438D01*
X18309524Y-12652438D02*
X18261905Y-12700057D01*
X18261905Y-12700057D02*
X18214286Y-12795295D01*
X18214286Y-12795295D02*
X18214286Y-13033390D01*
X18214286Y-13033390D02*
X18261905Y-13128628D01*
X18261905Y-13128628D02*
X18309524Y-13176247D01*
X18309524Y-13176247D02*
X18404762Y-13223866D01*
X18404762Y-13223866D02*
X18595238Y-13223866D01*
X18595238Y-13223866D02*
X18690476Y-13176247D01*
X18690476Y-13176247D02*
X18738095Y-13128628D01*
X18738095Y-13128628D02*
X18785714Y-13033390D01*
X43179580Y-27304166D02*
X43227200Y-27351785D01*
X43227200Y-27351785D02*
X43274819Y-27494642D01*
X43274819Y-27494642D02*
X43274819Y-27589880D01*
X43274819Y-27589880D02*
X43227200Y-27732737D01*
X43227200Y-27732737D02*
X43131961Y-27827975D01*
X43131961Y-27827975D02*
X43036723Y-27875594D01*
X43036723Y-27875594D02*
X42846247Y-27923213D01*
X42846247Y-27923213D02*
X42703390Y-27923213D01*
X42703390Y-27923213D02*
X42512914Y-27875594D01*
X42512914Y-27875594D02*
X42417676Y-27827975D01*
X42417676Y-27827975D02*
X42322438Y-27732737D01*
X42322438Y-27732737D02*
X42274819Y-27589880D01*
X42274819Y-27589880D02*
X42274819Y-27494642D01*
X42274819Y-27494642D02*
X42322438Y-27351785D01*
X42322438Y-27351785D02*
X42370057Y-27304166D01*
X42703390Y-26732737D02*
X42655771Y-26827975D01*
X42655771Y-26827975D02*
X42608152Y-26875594D01*
X42608152Y-26875594D02*
X42512914Y-26923213D01*
X42512914Y-26923213D02*
X42465295Y-26923213D01*
X42465295Y-26923213D02*
X42370057Y-26875594D01*
X42370057Y-26875594D02*
X42322438Y-26827975D01*
X42322438Y-26827975D02*
X42274819Y-26732737D01*
X42274819Y-26732737D02*
X42274819Y-26542261D01*
X42274819Y-26542261D02*
X42322438Y-26447023D01*
X42322438Y-26447023D02*
X42370057Y-26399404D01*
X42370057Y-26399404D02*
X42465295Y-26351785D01*
X42465295Y-26351785D02*
X42512914Y-26351785D01*
X42512914Y-26351785D02*
X42608152Y-26399404D01*
X42608152Y-26399404D02*
X42655771Y-26447023D01*
X42655771Y-26447023D02*
X42703390Y-26542261D01*
X42703390Y-26542261D02*
X42703390Y-26732737D01*
X42703390Y-26732737D02*
X42751009Y-26827975D01*
X42751009Y-26827975D02*
X42798628Y-26875594D01*
X42798628Y-26875594D02*
X42893866Y-26923213D01*
X42893866Y-26923213D02*
X43084342Y-26923213D01*
X43084342Y-26923213D02*
X43179580Y-26875594D01*
X43179580Y-26875594D02*
X43227200Y-26827975D01*
X43227200Y-26827975D02*
X43274819Y-26732737D01*
X43274819Y-26732737D02*
X43274819Y-26542261D01*
X43274819Y-26542261D02*
X43227200Y-26447023D01*
X43227200Y-26447023D02*
X43179580Y-26399404D01*
X43179580Y-26399404D02*
X43084342Y-26351785D01*
X43084342Y-26351785D02*
X42893866Y-26351785D01*
X42893866Y-26351785D02*
X42798628Y-26399404D01*
X42798628Y-26399404D02*
X42751009Y-26447023D01*
X42751009Y-26447023D02*
X42703390Y-26542261D01*
X3804819Y-28388094D02*
X2804819Y-28388094D01*
X2804819Y-28388094D02*
X2804819Y-28149999D01*
X2804819Y-28149999D02*
X2852438Y-28007142D01*
X2852438Y-28007142D02*
X2947676Y-27911904D01*
X2947676Y-27911904D02*
X3042914Y-27864285D01*
X3042914Y-27864285D02*
X3233390Y-27816666D01*
X3233390Y-27816666D02*
X3376247Y-27816666D01*
X3376247Y-27816666D02*
X3566723Y-27864285D01*
X3566723Y-27864285D02*
X3661961Y-27911904D01*
X3661961Y-27911904D02*
X3757200Y-28007142D01*
X3757200Y-28007142D02*
X3804819Y-28149999D01*
X3804819Y-28149999D02*
X3804819Y-28388094D01*
X3138152Y-26959523D02*
X3804819Y-26959523D01*
X2757200Y-27197618D02*
X3471485Y-27435713D01*
X3471485Y-27435713D02*
X3471485Y-26816666D01*
X47333333Y-7627080D02*
X47285714Y-7674700D01*
X47285714Y-7674700D02*
X47142857Y-7722319D01*
X47142857Y-7722319D02*
X47047619Y-7722319D01*
X47047619Y-7722319D02*
X46904762Y-7674700D01*
X46904762Y-7674700D02*
X46809524Y-7579461D01*
X46809524Y-7579461D02*
X46761905Y-7484223D01*
X46761905Y-7484223D02*
X46714286Y-7293747D01*
X46714286Y-7293747D02*
X46714286Y-7150890D01*
X46714286Y-7150890D02*
X46761905Y-6960414D01*
X46761905Y-6960414D02*
X46809524Y-6865176D01*
X46809524Y-6865176D02*
X46904762Y-6769938D01*
X46904762Y-6769938D02*
X47047619Y-6722319D01*
X47047619Y-6722319D02*
X47142857Y-6722319D01*
X47142857Y-6722319D02*
X47285714Y-6769938D01*
X47285714Y-6769938D02*
X47333333Y-6817557D01*
X48190476Y-7055652D02*
X48190476Y-7722319D01*
X47952381Y-6674700D02*
X47714286Y-7388985D01*
X47714286Y-7388985D02*
X48333333Y-7388985D01*
X48404761Y-18550057D02*
X48309523Y-18502438D01*
X48309523Y-18502438D02*
X48214285Y-18407200D01*
X48214285Y-18407200D02*
X48071428Y-18264342D01*
X48071428Y-18264342D02*
X47976190Y-18216723D01*
X47976190Y-18216723D02*
X47880952Y-18216723D01*
X47928571Y-18454819D02*
X47833333Y-18407200D01*
X47833333Y-18407200D02*
X47738095Y-18311961D01*
X47738095Y-18311961D02*
X47690476Y-18121485D01*
X47690476Y-18121485D02*
X47690476Y-17788152D01*
X47690476Y-17788152D02*
X47738095Y-17597676D01*
X47738095Y-17597676D02*
X47833333Y-17502438D01*
X47833333Y-17502438D02*
X47928571Y-17454819D01*
X47928571Y-17454819D02*
X48119047Y-17454819D01*
X48119047Y-17454819D02*
X48214285Y-17502438D01*
X48214285Y-17502438D02*
X48309523Y-17597676D01*
X48309523Y-17597676D02*
X48357142Y-17788152D01*
X48357142Y-17788152D02*
X48357142Y-18121485D01*
X48357142Y-18121485D02*
X48309523Y-18311961D01*
X48309523Y-18311961D02*
X48214285Y-18407200D01*
X48214285Y-18407200D02*
X48119047Y-18454819D01*
X48119047Y-18454819D02*
X47928571Y-18454819D01*
X48690476Y-17454819D02*
X49357142Y-17454819D01*
X49357142Y-17454819D02*
X48928571Y-18454819D01*
X22333333Y-14992319D02*
X21857143Y-14992319D01*
X21857143Y-14992319D02*
X21857143Y-13992319D01*
X22571429Y-13992319D02*
X23190476Y-13992319D01*
X23190476Y-13992319D02*
X22857143Y-14373271D01*
X22857143Y-14373271D02*
X23000000Y-14373271D01*
X23000000Y-14373271D02*
X23095238Y-14420890D01*
X23095238Y-14420890D02*
X23142857Y-14468509D01*
X23142857Y-14468509D02*
X23190476Y-14563747D01*
X23190476Y-14563747D02*
X23190476Y-14801842D01*
X23190476Y-14801842D02*
X23142857Y-14897080D01*
X23142857Y-14897080D02*
X23095238Y-14944700D01*
X23095238Y-14944700D02*
X23000000Y-14992319D01*
X23000000Y-14992319D02*
X22714286Y-14992319D01*
X22714286Y-14992319D02*
X22619048Y-14944700D01*
X22619048Y-14944700D02*
X22571429Y-14897080D01*
X17261905Y-18192319D02*
X17261905Y-17192319D01*
X17261905Y-17192319D02*
X17500000Y-17192319D01*
X17500000Y-17192319D02*
X17642857Y-17239938D01*
X17642857Y-17239938D02*
X17738095Y-17335176D01*
X17738095Y-17335176D02*
X17785714Y-17430414D01*
X17785714Y-17430414D02*
X17833333Y-17620890D01*
X17833333Y-17620890D02*
X17833333Y-17763747D01*
X17833333Y-17763747D02*
X17785714Y-17954223D01*
X17785714Y-17954223D02*
X17738095Y-18049461D01*
X17738095Y-18049461D02*
X17642857Y-18144700D01*
X17642857Y-18144700D02*
X17500000Y-18192319D01*
X17500000Y-18192319D02*
X17261905Y-18192319D01*
X18214286Y-17287557D02*
X18261905Y-17239938D01*
X18261905Y-17239938D02*
X18357143Y-17192319D01*
X18357143Y-17192319D02*
X18595238Y-17192319D01*
X18595238Y-17192319D02*
X18690476Y-17239938D01*
X18690476Y-17239938D02*
X18738095Y-17287557D01*
X18738095Y-17287557D02*
X18785714Y-17382795D01*
X18785714Y-17382795D02*
X18785714Y-17478033D01*
X18785714Y-17478033D02*
X18738095Y-17620890D01*
X18738095Y-17620890D02*
X18166667Y-18192319D01*
X18166667Y-18192319D02*
X18785714Y-18192319D01*
X20104819Y-22763094D02*
X19104819Y-22763094D01*
X19104819Y-22763094D02*
X19104819Y-22524999D01*
X19104819Y-22524999D02*
X19152438Y-22382142D01*
X19152438Y-22382142D02*
X19247676Y-22286904D01*
X19247676Y-22286904D02*
X19342914Y-22239285D01*
X19342914Y-22239285D02*
X19533390Y-22191666D01*
X19533390Y-22191666D02*
X19676247Y-22191666D01*
X19676247Y-22191666D02*
X19866723Y-22239285D01*
X19866723Y-22239285D02*
X19961961Y-22286904D01*
X19961961Y-22286904D02*
X20057200Y-22382142D01*
X20057200Y-22382142D02*
X20104819Y-22524999D01*
X20104819Y-22524999D02*
X20104819Y-22763094D01*
X20104819Y-21239285D02*
X20104819Y-21810713D01*
X20104819Y-21524999D02*
X19104819Y-21524999D01*
X19104819Y-21524999D02*
X19247676Y-21620237D01*
X19247676Y-21620237D02*
X19342914Y-21715475D01*
X19342914Y-21715475D02*
X19390533Y-21810713D01*
X15200057Y-5745238D02*
X15152438Y-5840476D01*
X15152438Y-5840476D02*
X15057200Y-5935714D01*
X15057200Y-5935714D02*
X14914342Y-6078571D01*
X14914342Y-6078571D02*
X14866723Y-6173809D01*
X14866723Y-6173809D02*
X14866723Y-6269047D01*
X15104819Y-6221428D02*
X15057200Y-6316666D01*
X15057200Y-6316666D02*
X14961961Y-6411904D01*
X14961961Y-6411904D02*
X14771485Y-6459523D01*
X14771485Y-6459523D02*
X14438152Y-6459523D01*
X14438152Y-6459523D02*
X14247676Y-6411904D01*
X14247676Y-6411904D02*
X14152438Y-6316666D01*
X14152438Y-6316666D02*
X14104819Y-6221428D01*
X14104819Y-6221428D02*
X14104819Y-6030952D01*
X14104819Y-6030952D02*
X14152438Y-5935714D01*
X14152438Y-5935714D02*
X14247676Y-5840476D01*
X14247676Y-5840476D02*
X14438152Y-5792857D01*
X14438152Y-5792857D02*
X14771485Y-5792857D01*
X14771485Y-5792857D02*
X14961961Y-5840476D01*
X14961961Y-5840476D02*
X15057200Y-5935714D01*
X15057200Y-5935714D02*
X15104819Y-6030952D01*
X15104819Y-6030952D02*
X15104819Y-6221428D01*
X15104819Y-4840476D02*
X15104819Y-5411904D01*
X15104819Y-5126190D02*
X14104819Y-5126190D01*
X14104819Y-5126190D02*
X14247676Y-5221428D01*
X14247676Y-5221428D02*
X14342914Y-5316666D01*
X14342914Y-5316666D02*
X14390533Y-5411904D01*
X53833333Y-4197080D02*
X53785714Y-4244700D01*
X53785714Y-4244700D02*
X53642857Y-4292319D01*
X53642857Y-4292319D02*
X53547619Y-4292319D01*
X53547619Y-4292319D02*
X53404762Y-4244700D01*
X53404762Y-4244700D02*
X53309524Y-4149461D01*
X53309524Y-4149461D02*
X53261905Y-4054223D01*
X53261905Y-4054223D02*
X53214286Y-3863747D01*
X53214286Y-3863747D02*
X53214286Y-3720890D01*
X53214286Y-3720890D02*
X53261905Y-3530414D01*
X53261905Y-3530414D02*
X53309524Y-3435176D01*
X53309524Y-3435176D02*
X53404762Y-3339938D01*
X53404762Y-3339938D02*
X53547619Y-3292319D01*
X53547619Y-3292319D02*
X53642857Y-3292319D01*
X53642857Y-3292319D02*
X53785714Y-3339938D01*
X53785714Y-3339938D02*
X53833333Y-3387557D01*
X54690476Y-3292319D02*
X54500000Y-3292319D01*
X54500000Y-3292319D02*
X54404762Y-3339938D01*
X54404762Y-3339938D02*
X54357143Y-3387557D01*
X54357143Y-3387557D02*
X54261905Y-3530414D01*
X54261905Y-3530414D02*
X54214286Y-3720890D01*
X54214286Y-3720890D02*
X54214286Y-4101842D01*
X54214286Y-4101842D02*
X54261905Y-4197080D01*
X54261905Y-4197080D02*
X54309524Y-4244700D01*
X54309524Y-4244700D02*
X54404762Y-4292319D01*
X54404762Y-4292319D02*
X54595238Y-4292319D01*
X54595238Y-4292319D02*
X54690476Y-4244700D01*
X54690476Y-4244700D02*
X54738095Y-4197080D01*
X54738095Y-4197080D02*
X54785714Y-4101842D01*
X54785714Y-4101842D02*
X54785714Y-3863747D01*
X54785714Y-3863747D02*
X54738095Y-3768509D01*
X54738095Y-3768509D02*
X54690476Y-3720890D01*
X54690476Y-3720890D02*
X54595238Y-3673271D01*
X54595238Y-3673271D02*
X54404762Y-3673271D01*
X54404762Y-3673271D02*
X54309524Y-3720890D01*
X54309524Y-3720890D02*
X54261905Y-3768509D01*
X54261905Y-3768509D02*
X54214286Y-3863747D01*
X38109580Y-27254166D02*
X38157200Y-27301785D01*
X38157200Y-27301785D02*
X38204819Y-27444642D01*
X38204819Y-27444642D02*
X38204819Y-27539880D01*
X38204819Y-27539880D02*
X38157200Y-27682737D01*
X38157200Y-27682737D02*
X38061961Y-27777975D01*
X38061961Y-27777975D02*
X37966723Y-27825594D01*
X37966723Y-27825594D02*
X37776247Y-27873213D01*
X37776247Y-27873213D02*
X37633390Y-27873213D01*
X37633390Y-27873213D02*
X37442914Y-27825594D01*
X37442914Y-27825594D02*
X37347676Y-27777975D01*
X37347676Y-27777975D02*
X37252438Y-27682737D01*
X37252438Y-27682737D02*
X37204819Y-27539880D01*
X37204819Y-27539880D02*
X37204819Y-27444642D01*
X37204819Y-27444642D02*
X37252438Y-27301785D01*
X37252438Y-27301785D02*
X37300057Y-27254166D01*
X37300057Y-26873213D02*
X37252438Y-26825594D01*
X37252438Y-26825594D02*
X37204819Y-26730356D01*
X37204819Y-26730356D02*
X37204819Y-26492261D01*
X37204819Y-26492261D02*
X37252438Y-26397023D01*
X37252438Y-26397023D02*
X37300057Y-26349404D01*
X37300057Y-26349404D02*
X37395295Y-26301785D01*
X37395295Y-26301785D02*
X37490533Y-26301785D01*
X37490533Y-26301785D02*
X37633390Y-26349404D01*
X37633390Y-26349404D02*
X38204819Y-26920832D01*
X38204819Y-26920832D02*
X38204819Y-26301785D01*
X32804819Y-27841666D02*
X32328628Y-28174999D01*
X32804819Y-28413094D02*
X31804819Y-28413094D01*
X31804819Y-28413094D02*
X31804819Y-28032142D01*
X31804819Y-28032142D02*
X31852438Y-27936904D01*
X31852438Y-27936904D02*
X31900057Y-27889285D01*
X31900057Y-27889285D02*
X31995295Y-27841666D01*
X31995295Y-27841666D02*
X32138152Y-27841666D01*
X32138152Y-27841666D02*
X32233390Y-27889285D01*
X32233390Y-27889285D02*
X32281009Y-27936904D01*
X32281009Y-27936904D02*
X32328628Y-28032142D01*
X32328628Y-28032142D02*
X32328628Y-28413094D01*
X31804819Y-26936904D02*
X31804819Y-27413094D01*
X31804819Y-27413094D02*
X32281009Y-27460713D01*
X32281009Y-27460713D02*
X32233390Y-27413094D01*
X32233390Y-27413094D02*
X32185771Y-27317856D01*
X32185771Y-27317856D02*
X32185771Y-27079761D01*
X32185771Y-27079761D02*
X32233390Y-26984523D01*
X32233390Y-26984523D02*
X32281009Y-26936904D01*
X32281009Y-26936904D02*
X32376247Y-26889285D01*
X32376247Y-26889285D02*
X32614342Y-26889285D01*
X32614342Y-26889285D02*
X32709580Y-26936904D01*
X32709580Y-26936904D02*
X32757200Y-26984523D01*
X32757200Y-26984523D02*
X32804819Y-27079761D01*
X32804819Y-27079761D02*
X32804819Y-27317856D01*
X32804819Y-27317856D02*
X32757200Y-27413094D01*
X32757200Y-27413094D02*
X32709580Y-27460713D01*
X28245833Y-19692319D02*
X27912500Y-19216128D01*
X27674405Y-19692319D02*
X27674405Y-18692319D01*
X27674405Y-18692319D02*
X28055357Y-18692319D01*
X28055357Y-18692319D02*
X28150595Y-18739938D01*
X28150595Y-18739938D02*
X28198214Y-18787557D01*
X28198214Y-18787557D02*
X28245833Y-18882795D01*
X28245833Y-18882795D02*
X28245833Y-19025652D01*
X28245833Y-19025652D02*
X28198214Y-19120890D01*
X28198214Y-19120890D02*
X28150595Y-19168509D01*
X28150595Y-19168509D02*
X28055357Y-19216128D01*
X28055357Y-19216128D02*
X27674405Y-19216128D01*
X29102976Y-18692319D02*
X28912500Y-18692319D01*
X28912500Y-18692319D02*
X28817262Y-18739938D01*
X28817262Y-18739938D02*
X28769643Y-18787557D01*
X28769643Y-18787557D02*
X28674405Y-18930414D01*
X28674405Y-18930414D02*
X28626786Y-19120890D01*
X28626786Y-19120890D02*
X28626786Y-19501842D01*
X28626786Y-19501842D02*
X28674405Y-19597080D01*
X28674405Y-19597080D02*
X28722024Y-19644700D01*
X28722024Y-19644700D02*
X28817262Y-19692319D01*
X28817262Y-19692319D02*
X29007738Y-19692319D01*
X29007738Y-19692319D02*
X29102976Y-19644700D01*
X29102976Y-19644700D02*
X29150595Y-19597080D01*
X29150595Y-19597080D02*
X29198214Y-19501842D01*
X29198214Y-19501842D02*
X29198214Y-19263747D01*
X29198214Y-19263747D02*
X29150595Y-19168509D01*
X29150595Y-19168509D02*
X29102976Y-19120890D01*
X29102976Y-19120890D02*
X29007738Y-19073271D01*
X29007738Y-19073271D02*
X28817262Y-19073271D01*
X28817262Y-19073271D02*
X28722024Y-19120890D01*
X28722024Y-19120890D02*
X28674405Y-19168509D01*
X28674405Y-19168509D02*
X28626786Y-19263747D01*
X52738095Y-14504819D02*
X52738095Y-15314342D01*
X52738095Y-15314342D02*
X52785714Y-15409580D01*
X52785714Y-15409580D02*
X52833333Y-15457200D01*
X52833333Y-15457200D02*
X52928571Y-15504819D01*
X52928571Y-15504819D02*
X53119047Y-15504819D01*
X53119047Y-15504819D02*
X53214285Y-15457200D01*
X53214285Y-15457200D02*
X53261904Y-15409580D01*
X53261904Y-15409580D02*
X53309523Y-15314342D01*
X53309523Y-15314342D02*
X53309523Y-14504819D01*
X53738095Y-14600057D02*
X53785714Y-14552438D01*
X53785714Y-14552438D02*
X53880952Y-14504819D01*
X53880952Y-14504819D02*
X54119047Y-14504819D01*
X54119047Y-14504819D02*
X54214285Y-14552438D01*
X54214285Y-14552438D02*
X54261904Y-14600057D01*
X54261904Y-14600057D02*
X54309523Y-14695295D01*
X54309523Y-14695295D02*
X54309523Y-14790533D01*
X54309523Y-14790533D02*
X54261904Y-14933390D01*
X54261904Y-14933390D02*
X53690476Y-15504819D01*
X53690476Y-15504819D02*
X54309523Y-15504819D01*
X30833333Y-8847080D02*
X30785714Y-8894700D01*
X30785714Y-8894700D02*
X30642857Y-8942319D01*
X30642857Y-8942319D02*
X30547619Y-8942319D01*
X30547619Y-8942319D02*
X30404762Y-8894700D01*
X30404762Y-8894700D02*
X30309524Y-8799461D01*
X30309524Y-8799461D02*
X30261905Y-8704223D01*
X30261905Y-8704223D02*
X30214286Y-8513747D01*
X30214286Y-8513747D02*
X30214286Y-8370890D01*
X30214286Y-8370890D02*
X30261905Y-8180414D01*
X30261905Y-8180414D02*
X30309524Y-8085176D01*
X30309524Y-8085176D02*
X30404762Y-7989938D01*
X30404762Y-7989938D02*
X30547619Y-7942319D01*
X30547619Y-7942319D02*
X30642857Y-7942319D01*
X30642857Y-7942319D02*
X30785714Y-7989938D01*
X30785714Y-7989938D02*
X30833333Y-8037557D01*
X31738095Y-7942319D02*
X31261905Y-7942319D01*
X31261905Y-7942319D02*
X31214286Y-8418509D01*
X31214286Y-8418509D02*
X31261905Y-8370890D01*
X31261905Y-8370890D02*
X31357143Y-8323271D01*
X31357143Y-8323271D02*
X31595238Y-8323271D01*
X31595238Y-8323271D02*
X31690476Y-8370890D01*
X31690476Y-8370890D02*
X31738095Y-8418509D01*
X31738095Y-8418509D02*
X31785714Y-8513747D01*
X31785714Y-8513747D02*
X31785714Y-8751842D01*
X31785714Y-8751842D02*
X31738095Y-8847080D01*
X31738095Y-8847080D02*
X31690476Y-8894700D01*
X31690476Y-8894700D02*
X31595238Y-8942319D01*
X31595238Y-8942319D02*
X31357143Y-8942319D01*
X31357143Y-8942319D02*
X31261905Y-8894700D01*
X31261905Y-8894700D02*
X31214286Y-8847080D01*
X52504819Y-27254166D02*
X52504819Y-27730356D01*
X52504819Y-27730356D02*
X51504819Y-27730356D01*
X51600057Y-26968451D02*
X51552438Y-26920832D01*
X51552438Y-26920832D02*
X51504819Y-26825594D01*
X51504819Y-26825594D02*
X51504819Y-26587499D01*
X51504819Y-26587499D02*
X51552438Y-26492261D01*
X51552438Y-26492261D02*
X51600057Y-26444642D01*
X51600057Y-26444642D02*
X51695295Y-26397023D01*
X51695295Y-26397023D02*
X51790533Y-26397023D01*
X51790533Y-26397023D02*
X51933390Y-26444642D01*
X51933390Y-26444642D02*
X52504819Y-27016070D01*
X52504819Y-27016070D02*
X52504819Y-26397023D01*
X39333333Y-10197080D02*
X39285714Y-10244700D01*
X39285714Y-10244700D02*
X39142857Y-10292319D01*
X39142857Y-10292319D02*
X39047619Y-10292319D01*
X39047619Y-10292319D02*
X38904762Y-10244700D01*
X38904762Y-10244700D02*
X38809524Y-10149461D01*
X38809524Y-10149461D02*
X38761905Y-10054223D01*
X38761905Y-10054223D02*
X38714286Y-9863747D01*
X38714286Y-9863747D02*
X38714286Y-9720890D01*
X38714286Y-9720890D02*
X38761905Y-9530414D01*
X38761905Y-9530414D02*
X38809524Y-9435176D01*
X38809524Y-9435176D02*
X38904762Y-9339938D01*
X38904762Y-9339938D02*
X39047619Y-9292319D01*
X39047619Y-9292319D02*
X39142857Y-9292319D01*
X39142857Y-9292319D02*
X39285714Y-9339938D01*
X39285714Y-9339938D02*
X39333333Y-9387557D01*
X39666667Y-9292319D02*
X40285714Y-9292319D01*
X40285714Y-9292319D02*
X39952381Y-9673271D01*
X39952381Y-9673271D02*
X40095238Y-9673271D01*
X40095238Y-9673271D02*
X40190476Y-9720890D01*
X40190476Y-9720890D02*
X40238095Y-9768509D01*
X40238095Y-9768509D02*
X40285714Y-9863747D01*
X40285714Y-9863747D02*
X40285714Y-10101842D01*
X40285714Y-10101842D02*
X40238095Y-10197080D01*
X40238095Y-10197080D02*
X40190476Y-10244700D01*
X40190476Y-10244700D02*
X40095238Y-10292319D01*
X40095238Y-10292319D02*
X39809524Y-10292319D01*
X39809524Y-10292319D02*
X39714286Y-10244700D01*
X39714286Y-10244700D02*
X39666667Y-10197080D01*
X41604819Y-22166666D02*
X41128628Y-22499999D01*
X41604819Y-22738094D02*
X40604819Y-22738094D01*
X40604819Y-22738094D02*
X40604819Y-22357142D01*
X40604819Y-22357142D02*
X40652438Y-22261904D01*
X40652438Y-22261904D02*
X40700057Y-22214285D01*
X40700057Y-22214285D02*
X40795295Y-22166666D01*
X40795295Y-22166666D02*
X40938152Y-22166666D01*
X40938152Y-22166666D02*
X41033390Y-22214285D01*
X41033390Y-22214285D02*
X41081009Y-22261904D01*
X41081009Y-22261904D02*
X41128628Y-22357142D01*
X41128628Y-22357142D02*
X41128628Y-22738094D01*
X40604819Y-21833332D02*
X40604819Y-21166666D01*
X40604819Y-21166666D02*
X41604819Y-21595237D01*
X8054819Y-16849404D02*
X8864342Y-16849404D01*
X8864342Y-16849404D02*
X8959580Y-16801785D01*
X8959580Y-16801785D02*
X9007200Y-16754166D01*
X9007200Y-16754166D02*
X9054819Y-16658928D01*
X9054819Y-16658928D02*
X9054819Y-16468452D01*
X9054819Y-16468452D02*
X9007200Y-16373214D01*
X9007200Y-16373214D02*
X8959580Y-16325595D01*
X8959580Y-16325595D02*
X8864342Y-16277976D01*
X8864342Y-16277976D02*
X8054819Y-16277976D01*
X9054819Y-15277976D02*
X9054819Y-15849404D01*
X9054819Y-15563690D02*
X8054819Y-15563690D01*
X8054819Y-15563690D02*
X8197676Y-15658928D01*
X8197676Y-15658928D02*
X8292914Y-15754166D01*
X8292914Y-15754166D02*
X8340533Y-15849404D01*
X33904761Y-18237557D02*
X33809523Y-18189938D01*
X33809523Y-18189938D02*
X33714285Y-18094700D01*
X33714285Y-18094700D02*
X33571428Y-17951842D01*
X33571428Y-17951842D02*
X33476190Y-17904223D01*
X33476190Y-17904223D02*
X33380952Y-17904223D01*
X33428571Y-18142319D02*
X33333333Y-18094700D01*
X33333333Y-18094700D02*
X33238095Y-17999461D01*
X33238095Y-17999461D02*
X33190476Y-17808985D01*
X33190476Y-17808985D02*
X33190476Y-17475652D01*
X33190476Y-17475652D02*
X33238095Y-17285176D01*
X33238095Y-17285176D02*
X33333333Y-17189938D01*
X33333333Y-17189938D02*
X33428571Y-17142319D01*
X33428571Y-17142319D02*
X33619047Y-17142319D01*
X33619047Y-17142319D02*
X33714285Y-17189938D01*
X33714285Y-17189938D02*
X33809523Y-17285176D01*
X33809523Y-17285176D02*
X33857142Y-17475652D01*
X33857142Y-17475652D02*
X33857142Y-17808985D01*
X33857142Y-17808985D02*
X33809523Y-17999461D01*
X33809523Y-17999461D02*
X33714285Y-18094700D01*
X33714285Y-18094700D02*
X33619047Y-18142319D01*
X33619047Y-18142319D02*
X33428571Y-18142319D01*
X34238095Y-17237557D02*
X34285714Y-17189938D01*
X34285714Y-17189938D02*
X34380952Y-17142319D01*
X34380952Y-17142319D02*
X34619047Y-17142319D01*
X34619047Y-17142319D02*
X34714285Y-17189938D01*
X34714285Y-17189938D02*
X34761904Y-17237557D01*
X34761904Y-17237557D02*
X34809523Y-17332795D01*
X34809523Y-17332795D02*
X34809523Y-17428033D01*
X34809523Y-17428033D02*
X34761904Y-17570890D01*
X34761904Y-17570890D02*
X34190476Y-18142319D01*
X34190476Y-18142319D02*
X34809523Y-18142319D01*
X38304819Y-16754166D02*
X37828628Y-17087499D01*
X38304819Y-17325594D02*
X37304819Y-17325594D01*
X37304819Y-17325594D02*
X37304819Y-16944642D01*
X37304819Y-16944642D02*
X37352438Y-16849404D01*
X37352438Y-16849404D02*
X37400057Y-16801785D01*
X37400057Y-16801785D02*
X37495295Y-16754166D01*
X37495295Y-16754166D02*
X37638152Y-16754166D01*
X37638152Y-16754166D02*
X37733390Y-16801785D01*
X37733390Y-16801785D02*
X37781009Y-16849404D01*
X37781009Y-16849404D02*
X37828628Y-16944642D01*
X37828628Y-16944642D02*
X37828628Y-17325594D01*
X37733390Y-16182737D02*
X37685771Y-16277975D01*
X37685771Y-16277975D02*
X37638152Y-16325594D01*
X37638152Y-16325594D02*
X37542914Y-16373213D01*
X37542914Y-16373213D02*
X37495295Y-16373213D01*
X37495295Y-16373213D02*
X37400057Y-16325594D01*
X37400057Y-16325594D02*
X37352438Y-16277975D01*
X37352438Y-16277975D02*
X37304819Y-16182737D01*
X37304819Y-16182737D02*
X37304819Y-15992261D01*
X37304819Y-15992261D02*
X37352438Y-15897023D01*
X37352438Y-15897023D02*
X37400057Y-15849404D01*
X37400057Y-15849404D02*
X37495295Y-15801785D01*
X37495295Y-15801785D02*
X37542914Y-15801785D01*
X37542914Y-15801785D02*
X37638152Y-15849404D01*
X37638152Y-15849404D02*
X37685771Y-15897023D01*
X37685771Y-15897023D02*
X37733390Y-15992261D01*
X37733390Y-15992261D02*
X37733390Y-16182737D01*
X37733390Y-16182737D02*
X37781009Y-16277975D01*
X37781009Y-16277975D02*
X37828628Y-16325594D01*
X37828628Y-16325594D02*
X37923866Y-16373213D01*
X37923866Y-16373213D02*
X38114342Y-16373213D01*
X38114342Y-16373213D02*
X38209580Y-16325594D01*
X38209580Y-16325594D02*
X38257200Y-16277975D01*
X38257200Y-16277975D02*
X38304819Y-16182737D01*
X38304819Y-16182737D02*
X38304819Y-15992261D01*
X38304819Y-15992261D02*
X38257200Y-15897023D01*
X38257200Y-15897023D02*
X38209580Y-15849404D01*
X38209580Y-15849404D02*
X38114342Y-15801785D01*
X38114342Y-15801785D02*
X37923866Y-15801785D01*
X37923866Y-15801785D02*
X37828628Y-15849404D01*
X37828628Y-15849404D02*
X37781009Y-15897023D01*
X37781009Y-15897023D02*
X37733390Y-15992261D01*
X30104819Y-27841666D02*
X29628628Y-28174999D01*
X30104819Y-28413094D02*
X29104819Y-28413094D01*
X29104819Y-28413094D02*
X29104819Y-28032142D01*
X29104819Y-28032142D02*
X29152438Y-27936904D01*
X29152438Y-27936904D02*
X29200057Y-27889285D01*
X29200057Y-27889285D02*
X29295295Y-27841666D01*
X29295295Y-27841666D02*
X29438152Y-27841666D01*
X29438152Y-27841666D02*
X29533390Y-27889285D01*
X29533390Y-27889285D02*
X29581009Y-27936904D01*
X29581009Y-27936904D02*
X29628628Y-28032142D01*
X29628628Y-28032142D02*
X29628628Y-28413094D01*
X29438152Y-26984523D02*
X30104819Y-26984523D01*
X29057200Y-27222618D02*
X29771485Y-27460713D01*
X29771485Y-27460713D02*
X29771485Y-26841666D01*
X22016942Y-25854580D02*
X21969323Y-25902200D01*
X21969323Y-25902200D02*
X21826466Y-25949819D01*
X21826466Y-25949819D02*
X21731228Y-25949819D01*
X21731228Y-25949819D02*
X21588371Y-25902200D01*
X21588371Y-25902200D02*
X21493133Y-25806961D01*
X21493133Y-25806961D02*
X21445514Y-25711723D01*
X21445514Y-25711723D02*
X21397895Y-25521247D01*
X21397895Y-25521247D02*
X21397895Y-25378390D01*
X21397895Y-25378390D02*
X21445514Y-25187914D01*
X21445514Y-25187914D02*
X21493133Y-25092676D01*
X21493133Y-25092676D02*
X21588371Y-24997438D01*
X21588371Y-24997438D02*
X21731228Y-24949819D01*
X21731228Y-24949819D02*
X21826466Y-24949819D01*
X21826466Y-24949819D02*
X21969323Y-24997438D01*
X21969323Y-24997438D02*
X22016942Y-25045057D01*
X22969323Y-25949819D02*
X22397895Y-25949819D01*
X22683609Y-25949819D02*
X22683609Y-24949819D01*
X22683609Y-24949819D02*
X22588371Y-25092676D01*
X22588371Y-25092676D02*
X22493133Y-25187914D01*
X22493133Y-25187914D02*
X22397895Y-25235533D01*
X23350276Y-25045057D02*
X23397895Y-24997438D01*
X23397895Y-24997438D02*
X23493133Y-24949819D01*
X23493133Y-24949819D02*
X23731228Y-24949819D01*
X23731228Y-24949819D02*
X23826466Y-24997438D01*
X23826466Y-24997438D02*
X23874085Y-25045057D01*
X23874085Y-25045057D02*
X23921704Y-25140295D01*
X23921704Y-25140295D02*
X23921704Y-25235533D01*
X23921704Y-25235533D02*
X23874085Y-25378390D01*
X23874085Y-25378390D02*
X23302657Y-25949819D01*
X23302657Y-25949819D02*
X23921704Y-25949819D01*
X21222023Y-20392319D02*
X20888690Y-19916128D01*
X20650595Y-20392319D02*
X20650595Y-19392319D01*
X20650595Y-19392319D02*
X21031547Y-19392319D01*
X21031547Y-19392319D02*
X21126785Y-19439938D01*
X21126785Y-19439938D02*
X21174404Y-19487557D01*
X21174404Y-19487557D02*
X21222023Y-19582795D01*
X21222023Y-19582795D02*
X21222023Y-19725652D01*
X21222023Y-19725652D02*
X21174404Y-19820890D01*
X21174404Y-19820890D02*
X21126785Y-19868509D01*
X21126785Y-19868509D02*
X21031547Y-19916128D01*
X21031547Y-19916128D02*
X20650595Y-19916128D01*
X21650595Y-20392319D02*
X21650595Y-19725652D01*
X21650595Y-19916128D02*
X21698214Y-19820890D01*
X21698214Y-19820890D02*
X21745833Y-19773271D01*
X21745833Y-19773271D02*
X21841071Y-19725652D01*
X21841071Y-19725652D02*
X21936309Y-19725652D01*
X22650595Y-20344700D02*
X22555357Y-20392319D01*
X22555357Y-20392319D02*
X22364881Y-20392319D01*
X22364881Y-20392319D02*
X22269643Y-20344700D01*
X22269643Y-20344700D02*
X22222024Y-20249461D01*
X22222024Y-20249461D02*
X22222024Y-19868509D01*
X22222024Y-19868509D02*
X22269643Y-19773271D01*
X22269643Y-19773271D02*
X22364881Y-19725652D01*
X22364881Y-19725652D02*
X22555357Y-19725652D01*
X22555357Y-19725652D02*
X22650595Y-19773271D01*
X22650595Y-19773271D02*
X22698214Y-19868509D01*
X22698214Y-19868509D02*
X22698214Y-19963747D01*
X22698214Y-19963747D02*
X22222024Y-20058985D01*
X22983929Y-19725652D02*
X23364881Y-19725652D01*
X23126786Y-20392319D02*
X23126786Y-19535176D01*
X23126786Y-19535176D02*
X23174405Y-19439938D01*
X23174405Y-19439938D02*
X23269643Y-19392319D01*
X23269643Y-19392319D02*
X23364881Y-19392319D01*
X24222024Y-20392319D02*
X23650596Y-20392319D01*
X23936310Y-20392319D02*
X23936310Y-19392319D01*
X23936310Y-19392319D02*
X23841072Y-19535176D01*
X23841072Y-19535176D02*
X23745834Y-19630414D01*
X23745834Y-19630414D02*
X23650596Y-19678033D01*
X3804819Y-6325594D02*
X2804819Y-6325594D01*
X2804819Y-6325594D02*
X2804819Y-6087499D01*
X2804819Y-6087499D02*
X2852438Y-5944642D01*
X2852438Y-5944642D02*
X2947676Y-5849404D01*
X2947676Y-5849404D02*
X3042914Y-5801785D01*
X3042914Y-5801785D02*
X3233390Y-5754166D01*
X3233390Y-5754166D02*
X3376247Y-5754166D01*
X3376247Y-5754166D02*
X3566723Y-5801785D01*
X3566723Y-5801785D02*
X3661961Y-5849404D01*
X3661961Y-5849404D02*
X3757200Y-5944642D01*
X3757200Y-5944642D02*
X3804819Y-6087499D01*
X3804819Y-6087499D02*
X3804819Y-6325594D01*
X2804819Y-5420832D02*
X2804819Y-4801785D01*
X2804819Y-4801785D02*
X3185771Y-5135118D01*
X3185771Y-5135118D02*
X3185771Y-4992261D01*
X3185771Y-4992261D02*
X3233390Y-4897023D01*
X3233390Y-4897023D02*
X3281009Y-4849404D01*
X3281009Y-4849404D02*
X3376247Y-4801785D01*
X3376247Y-4801785D02*
X3614342Y-4801785D01*
X3614342Y-4801785D02*
X3709580Y-4849404D01*
X3709580Y-4849404D02*
X3757200Y-4897023D01*
X3757200Y-4897023D02*
X3804819Y-4992261D01*
X3804819Y-4992261D02*
X3804819Y-5277975D01*
X3804819Y-5277975D02*
X3757200Y-5373213D01*
X3757200Y-5373213D02*
X3709580Y-5420832D01*
D12*
%TO.C,C13*%
X26400000Y-6042500D02*
X30320000Y-6042500D01*
X30320000Y-4132500D02*
X26400000Y-4132500D01*
X30320000Y-6042500D02*
X30320000Y-4132500D01*
%TO.C,C10*%
X44140000Y-22459664D02*
X44140000Y-22675336D01*
X44860000Y-22459664D02*
X44860000Y-22675336D01*
%TO.C,C7*%
X13959800Y-29097500D02*
X18179800Y-29097500D01*
X18179800Y-26077500D02*
X13959800Y-26077500D01*
X18179800Y-29097500D02*
X18179800Y-26077500D01*
%TO.C,R11*%
X9765000Y-5360436D02*
X9765000Y-5814564D01*
X11235000Y-5360436D02*
X11235000Y-5814564D01*
%TO.C,C9*%
X49765000Y-21826248D02*
X49765000Y-22348752D01*
X51235000Y-21826248D02*
X51235000Y-22348752D01*
%TO.C,C11*%
X62735000Y-12761252D02*
X62735000Y-12238748D01*
X61265000Y-12761252D02*
X61265000Y-12238748D01*
%TO.C,C14*%
X10261252Y-22852500D02*
X9738748Y-22852500D01*
X10261252Y-24322500D02*
X9738748Y-24322500D01*
%TO.C,R1*%
X54772936Y-19235000D02*
X55227064Y-19235000D01*
X54772936Y-17765000D02*
X55227064Y-17765000D01*
%TO.C,Q6*%
X61937500Y-7060000D02*
X61287500Y-7060000D01*
X61937500Y-7060000D02*
X62587500Y-7060000D01*
X61937500Y-3940000D02*
X61287500Y-3940000D01*
X61937500Y-3940000D02*
X62587500Y-3940000D01*
X63340000Y-7340000D02*
X62860000Y-7340000D01*
X63100000Y-7010000D01*
X63340000Y-7340000D01*
G36*
X63340000Y-7340000D02*
G01*
X62860000Y-7340000D01*
X63100000Y-7010000D01*
X63340000Y-7340000D01*
G37*
%TO.C,R2*%
X45727064Y-10852500D02*
X45272936Y-10852500D01*
X45727064Y-12322500D02*
X45272936Y-12322500D01*
%TO.C,R10*%
X9772936Y-27352500D02*
X10227064Y-27352500D01*
X9772936Y-28822500D02*
X10227064Y-28822500D01*
%TO.C,L1*%
X22899622Y-11027500D02*
X22100378Y-11027500D01*
X22899622Y-12147500D02*
X22100378Y-12147500D01*
%TO.C,R3*%
X27265000Y-21947936D02*
X27265000Y-22402064D01*
X28735000Y-21947936D02*
X28735000Y-22402064D01*
%TO.C,C1*%
X55765000Y-24876248D02*
X55765000Y-25398752D01*
X57235000Y-24876248D02*
X57235000Y-25398752D01*
%TO.C,R9*%
X18227064Y-10765000D02*
X17772936Y-10765000D01*
X18227064Y-12235000D02*
X17772936Y-12235000D01*
%TO.C,C8*%
X43765000Y-27398752D02*
X43765000Y-26876248D01*
X45235000Y-27398752D02*
X45235000Y-26876248D01*
%TO.C,D4*%
X4040000Y-26650000D02*
X4040000Y-29335000D01*
X4040000Y-29335000D02*
X5960000Y-29335000D01*
X5960000Y-29335000D02*
X5960000Y-26650000D01*
%TO.C,C4*%
X47761252Y-4852500D02*
X47238748Y-4852500D01*
X47761252Y-6322500D02*
X47238748Y-6322500D01*
%TO.C,Q7*%
X45437500Y-16027500D02*
X44787500Y-16027500D01*
X45437500Y-16027500D02*
X46087500Y-16027500D01*
X45437500Y-19147500D02*
X44787500Y-19147500D01*
X45437500Y-19147500D02*
X46087500Y-19147500D01*
X46840000Y-19427500D02*
X46360000Y-19427500D01*
X46600000Y-19097500D01*
X46840000Y-19427500D01*
G36*
X46840000Y-19427500D02*
G01*
X46360000Y-19427500D01*
X46600000Y-19097500D01*
X46840000Y-19427500D01*
G37*
%TO.C,L3*%
X22100378Y-15527500D02*
X22899622Y-15527500D01*
X22100378Y-16647500D02*
X22899622Y-16647500D01*
%TO.C,D2*%
X17000000Y-17047500D02*
X19685000Y-17047500D01*
X19685000Y-15127500D02*
X17000000Y-15127500D01*
X19685000Y-17047500D02*
X19685000Y-15127500D01*
%TO.C,D1*%
X17040000Y-20340000D02*
X17040000Y-23025000D01*
X18960000Y-20340000D02*
X17040000Y-20340000D01*
X18960000Y-23025000D02*
X18960000Y-20340000D01*
%TO.C,Q1*%
X15490000Y-5650000D02*
X15490000Y-5000000D01*
X15490000Y-5650000D02*
X15490000Y-6300000D01*
X18610000Y-5650000D02*
X18610000Y-5000000D01*
X18610000Y-5650000D02*
X18610000Y-6300000D01*
X15540000Y-6812500D02*
X15210000Y-7052500D01*
X15210000Y-6572500D01*
X15540000Y-6812500D01*
G36*
X15540000Y-6812500D02*
G01*
X15210000Y-7052500D01*
X15210000Y-6572500D01*
X15540000Y-6812500D01*
G37*
%TO.C,C6*%
X55600000Y-4632500D02*
X51680000Y-4632500D01*
X51680000Y-6542500D02*
X55600000Y-6542500D01*
X51680000Y-4632500D02*
X51680000Y-6542500D01*
%TO.C,C2*%
X38545000Y-25487500D02*
X38545000Y-29407500D01*
X38545000Y-29407500D02*
X40455000Y-29407500D01*
X40455000Y-29407500D02*
X40455000Y-25487500D01*
%TO.C,R5*%
X33265000Y-27902064D02*
X33265000Y-27447936D01*
X34735000Y-27902064D02*
X34735000Y-27447936D01*
%TO.C,R6*%
X28639564Y-16852500D02*
X28185436Y-16852500D01*
X28639564Y-18322500D02*
X28185436Y-18322500D01*
%TO.C,U2*%
X53500000Y-10940000D02*
X54300000Y-10940000D01*
X53500000Y-10940000D02*
X52700000Y-10940000D01*
X53500000Y-14060000D02*
X54300000Y-14060000D01*
X53500000Y-14060000D02*
X52700000Y-14060000D01*
X55040000Y-14340000D02*
X54560000Y-14340000D01*
X54800000Y-14010000D01*
X55040000Y-14340000D01*
G36*
X55040000Y-14340000D02*
G01*
X54560000Y-14340000D01*
X54800000Y-14010000D01*
X55040000Y-14340000D01*
G37*
%TO.C,C5*%
X26585000Y-9327500D02*
X26585000Y-13847500D01*
X26585000Y-13847500D02*
X34650000Y-13847500D01*
X34650000Y-9327500D02*
X26585000Y-9327500D01*
%TO.C,L2*%
X49940000Y-26687878D02*
X49940000Y-27487122D01*
X51060000Y-26687878D02*
X51060000Y-27487122D01*
%TO.C,C3*%
X37180000Y-10632500D02*
X37180000Y-12542500D01*
X37180000Y-12542500D02*
X41100000Y-12542500D01*
X41100000Y-10632500D02*
X37180000Y-10632500D01*
%TO.C,R7*%
X38765000Y-21772936D02*
X38765000Y-22227064D01*
X40235000Y-21772936D02*
X40235000Y-22227064D01*
%TO.C,U1*%
X9440000Y-16087500D02*
X9440000Y-14137500D01*
X9440000Y-16087500D02*
X9440000Y-18037500D01*
X14560000Y-16087500D02*
X14560000Y-14137500D01*
X14560000Y-16087500D02*
X14560000Y-18037500D01*
X9535000Y-18787500D02*
X9205000Y-19027500D01*
X9205000Y-18547500D01*
X9535000Y-18787500D01*
G36*
X9535000Y-18787500D02*
G01*
X9205000Y-19027500D01*
X9205000Y-18547500D01*
X9535000Y-18787500D01*
G37*
%TO.C,Q2*%
X34000000Y-18527500D02*
X33350000Y-18527500D01*
X34000000Y-18527500D02*
X34650000Y-18527500D01*
X34000000Y-21647500D02*
X33350000Y-21647500D01*
X34000000Y-21647500D02*
X34650000Y-21647500D01*
X32837500Y-18577500D02*
X32597500Y-18247500D01*
X33077500Y-18247500D01*
X32837500Y-18577500D01*
G36*
X32837500Y-18577500D02*
G01*
X32597500Y-18247500D01*
X33077500Y-18247500D01*
X32837500Y-18577500D01*
G37*
%TO.C,R8*%
X38765000Y-16814564D02*
X38765000Y-16360436D01*
X40235000Y-16814564D02*
X40235000Y-16360436D01*
%TO.C,R4*%
X27265000Y-27447936D02*
X27265000Y-27902064D01*
X28735000Y-27447936D02*
X28735000Y-27902064D01*
%TO.C,C12*%
X22398548Y-26440000D02*
X22921052Y-26440000D01*
X22398548Y-27910000D02*
X22921052Y-27910000D01*
%TO.C,Rref1*%
X22185436Y-20852500D02*
X22639564Y-20852500D01*
X22185436Y-22322500D02*
X22639564Y-22322500D01*
%TO.C,D3*%
X4040000Y-4587500D02*
X4040000Y-7272500D01*
X4040000Y-7272500D02*
X5960000Y-7272500D01*
X5960000Y-7272500D02*
X5960000Y-4587500D01*
%TD*%
M02*
