M48
; DRILL file {KiCad 9.0.2} date 2025-07-10T14:50:27+0300
; FORMAT={-:-/ absolute / metric / decimal}
; #@! TF.CreationDate,2025-07-10T14:50:27+03:00
; #@! TF.GenerationSoftware,Kicad,Pcbnew,9.0.2
; #@! TF.FileFunction,Plated,1,2,PTH
FMAT,2
METRIC
; #@! TA.AperFunction,Plated,PTH,ViaDrill
T1C0.300
; #@! TA.AperFunction,Plated,PTH,ComponentDrill
T2C1.150
%
G90
G05
T1
X16.413Y-15.513
X18.912Y-31.208
X24.963Y-25.168
X25.291Y-9.849
X33.387Y-19.218
X35.987Y-18.889
X38.113Y-22.966
X39.3Y-7.735
X41.804Y-10.564
X45.237Y-1.441
X45.733Y-9.715
X47.327Y-19.844
X51.087Y-22.741
X54.012Y-25.06
X56.938Y-15.682
X57.05Y-6.939
X57.05Y-9.715
X61.545Y-23.333
T2
X4.5Y-22.5
X4.5Y-27.3
X34.5Y-3.5
X39.3Y-3.5
X65.5Y-18.5
X65.5Y-23.3
X65.5Y-28.1
M30
