%TF.GenerationSoftware,KiCad,Pcbnew,9.0.5*%
%TF.CreationDate,2025-10-22T07:49:07+03:00*%
%TF.ProjectId,rechargeble_pack,72656368-6172-4676-9562-6c655f706163,rev?*%
%TF.SameCoordinates,Original*%
%TF.FileFunction,Copper,L1,Top*%
%TF.FilePolarity,Positive*%
%FSLAX46Y46*%
G04 Gerber Fmt 4.6, Leading zero omitted, Abs format (unit mm)*
G04 Created by KiCad (PCBNEW 9.0.5) date 2025-10-22 07:49:07*
%MOMM*%
%LPD*%
G01*
G04 APERTURE LIST*
G04 Aperture macros list*
%AMRoundRect*
0 Rectangle with rounded corners*
0 $1 Rounding radius*
0 $2 $3 $4 $5 $6 $7 $8 $9 X,Y pos of 4 corners*
0 Add a 4 corners polygon primitive as box body*
4,1,4,$2,$3,$4,$5,$6,$7,$8,$9,$2,$3,0*
0 Add four circle primitives for the rounded corners*
1,1,$1+$1,$2,$3*
1,1,$1+$1,$4,$5*
1,1,$1+$1,$6,$7*
1,1,$1+$1,$8,$9*
0 Add four rect primitives between the rounded corners*
20,1,$1+$1,$2,$3,$4,$5,0*
20,1,$1+$1,$4,$5,$6,$7,0*
20,1,$1+$1,$6,$7,$8,$9,0*
20,1,$1+$1,$8,$9,$2,$3,0*%
G04 Aperture macros list end*
%TA.AperFunction,SMDPad,CuDef*%
%ADD10RoundRect,0.250000X-0.457500X-0.445000X0.457500X-0.445000X0.457500X0.445000X-0.457500X0.445000X0*%
%TD*%
%TA.AperFunction,SMDPad,CuDef*%
%ADD11RoundRect,0.140000X-0.140000X-0.170000X0.140000X-0.170000X0.140000X0.170000X-0.140000X0.170000X0*%
%TD*%
%TA.AperFunction,SMDPad,CuDef*%
%ADD12RoundRect,0.250000X-0.945000X0.420000X-0.945000X-0.420000X0.945000X-0.420000X0.945000X0.420000X0*%
%TD*%
%TA.AperFunction,SMDPad,CuDef*%
%ADD13RoundRect,0.250000X-0.450000X0.262500X-0.450000X-0.262500X0.450000X-0.262500X0.450000X0.262500X0*%
%TD*%
%TA.AperFunction,SMDPad,CuDef*%
%ADD14RoundRect,0.250000X-0.475000X0.250000X-0.475000X-0.250000X0.475000X-0.250000X0.475000X0.250000X0*%
%TD*%
%TA.AperFunction,SMDPad,CuDef*%
%ADD15RoundRect,0.150000X0.150000X-0.587500X0.150000X0.587500X-0.150000X0.587500X-0.150000X-0.587500X0*%
%TD*%
%TA.AperFunction,SMDPad,CuDef*%
%ADD16RoundRect,0.250000X-0.262500X-0.450000X0.262500X-0.450000X0.262500X0.450000X-0.262500X0.450000X0*%
%TD*%
%TA.AperFunction,SMDPad,CuDef*%
%ADD17RoundRect,0.218750X-0.218750X-0.381250X0.218750X-0.381250X0.218750X0.381250X-0.218750X0.381250X0*%
%TD*%
%TA.AperFunction,SMDPad,CuDef*%
%ADD18RoundRect,0.250000X0.450000X-0.262500X0.450000X0.262500X-0.450000X0.262500X-0.450000X-0.262500X0*%
%TD*%
%TA.AperFunction,SMDPad,CuDef*%
%ADD19RoundRect,0.250000X0.475000X-0.250000X0.475000X0.250000X-0.475000X0.250000X-0.475000X-0.250000X0*%
%TD*%
%TA.AperFunction,ComponentPad*%
%ADD20RoundRect,0.250001X-0.899999X-0.899999X0.899999X-0.899999X0.899999X0.899999X-0.899999X0.899999X0*%
%TD*%
%TA.AperFunction,ComponentPad*%
%ADD21C,2.300000*%
%TD*%
%TA.AperFunction,SMDPad,CuDef*%
%ADD22RoundRect,0.243750X-0.456250X0.243750X-0.456250X-0.243750X0.456250X-0.243750X0.456250X0.243750X0*%
%TD*%
%TA.AperFunction,SMDPad,CuDef*%
%ADD23RoundRect,0.250000X-0.250000X-0.475000X0.250000X-0.475000X0.250000X0.475000X-0.250000X0.475000X0*%
%TD*%
%TA.AperFunction,SMDPad,CuDef*%
%ADD24RoundRect,0.150000X0.587500X0.150000X-0.587500X0.150000X-0.587500X-0.150000X0.587500X-0.150000X0*%
%TD*%
%TA.AperFunction,SMDPad,CuDef*%
%ADD25RoundRect,0.218750X-0.381250X0.218750X-0.381250X-0.218750X0.381250X-0.218750X0.381250X0.218750X0*%
%TD*%
%TA.AperFunction,SMDPad,CuDef*%
%ADD26RoundRect,0.243750X0.456250X-0.243750X0.456250X0.243750X-0.456250X0.243750X-0.456250X-0.243750X0*%
%TD*%
%TA.AperFunction,SMDPad,CuDef*%
%ADD27RoundRect,0.250000X0.445000X-0.457500X0.445000X0.457500X-0.445000X0.457500X-0.445000X-0.457500X0*%
%TD*%
%TA.AperFunction,SMDPad,CuDef*%
%ADD28RoundRect,0.250000X0.457500X0.445000X-0.457500X0.445000X-0.457500X-0.445000X0.457500X-0.445000X0*%
%TD*%
%TA.AperFunction,SMDPad,CuDef*%
%ADD29RoundRect,0.150000X-0.512500X-0.150000X0.512500X-0.150000X0.512500X0.150000X-0.512500X0.150000X0*%
%TD*%
%TA.AperFunction,SMDPad,CuDef*%
%ADD30RoundRect,0.250000X-0.785000X-1.045000X0.785000X-1.045000X0.785000X1.045000X-0.785000X1.045000X0*%
%TD*%
%TA.AperFunction,ComponentPad*%
%ADD31RoundRect,0.250001X0.899999X-0.899999X0.899999X0.899999X-0.899999X0.899999X-0.899999X-0.899999X0*%
%TD*%
%TA.AperFunction,SMDPad,CuDef*%
%ADD32RoundRect,0.218750X0.218750X0.381250X-0.218750X0.381250X-0.218750X-0.381250X0.218750X-0.381250X0*%
%TD*%
%TA.AperFunction,SMDPad,CuDef*%
%ADD33RoundRect,0.150000X0.825000X0.150000X-0.825000X0.150000X-0.825000X-0.150000X0.825000X-0.150000X0*%
%TD*%
%TA.AperFunction,ComponentPad*%
%ADD34RoundRect,0.250001X-0.899999X0.899999X-0.899999X-0.899999X0.899999X-0.899999X0.899999X0.899999X0*%
%TD*%
%TA.AperFunction,SMDPad,CuDef*%
%ADD35RoundRect,0.250000X0.262500X0.450000X-0.262500X0.450000X-0.262500X-0.450000X0.262500X-0.450000X0*%
%TD*%
%TA.AperFunction,ViaPad*%
%ADD36C,0.600000*%
%TD*%
%TA.AperFunction,Conductor*%
%ADD37C,1.000000*%
%TD*%
%TA.AperFunction,Conductor*%
%ADD38C,0.600000*%
%TD*%
%TA.AperFunction,Conductor*%
%ADD39C,0.500000*%
%TD*%
%TA.AperFunction,Conductor*%
%ADD40C,0.700000*%
%TD*%
%TA.AperFunction,Conductor*%
%ADD41C,1.500000*%
%TD*%
G04 APERTURE END LIST*
D10*
%TO.P,C13,1*%
%TO.N,+BATT*%
X14647500Y-4000000D03*
%TO.P,C13,2*%
%TO.N,GND*%
X17352500Y-4000000D03*
%TD*%
D11*
%TO.P,C10,1*%
%TO.N,Net-(Q2-C)*%
X59020000Y-9500000D03*
%TO.P,C10,2*%
%TO.N,Net-(U2-FB)*%
X59980000Y-9500000D03*
%TD*%
D12*
%TO.P,C7,1*%
%TO.N,Net-(D1-K)*%
X65000000Y-7960000D03*
%TO.P,C7,2*%
%TO.N,GND*%
X65000000Y-11040000D03*
%TD*%
D13*
%TO.P,R11,1*%
%TO.N,Net-(D3-A)*%
X4500000Y-14587500D03*
%TO.P,R11,2*%
%TO.N,VBUS*%
X4500000Y-16412500D03*
%TD*%
D14*
%TO.P,C9,1*%
%TO.N,Net-(Q2-C)*%
X54500000Y-15000000D03*
%TO.P,C9,2*%
%TO.N,GND*%
X54500000Y-16900000D03*
%TD*%
%TO.P,C11,1*%
%TO.N,VCC*%
X60000000Y-15000000D03*
%TO.P,C11,2*%
%TO.N,GND*%
X60000000Y-16900000D03*
%TD*%
%TO.P,C14,1*%
%TO.N,VBUS*%
X18000000Y-22050000D03*
%TO.P,C14,2*%
%TO.N,GND*%
X18000000Y-23950000D03*
%TD*%
D13*
%TO.P,R1,1*%
%TO.N,+10V*%
X43500000Y-28087500D03*
%TO.P,R1,2*%
%TO.N,Net-(Q6-B)*%
X43500000Y-29912500D03*
%TD*%
D15*
%TO.P,Q6,1,B*%
%TO.N,Net-(Q6-B)*%
X42550000Y-22375000D03*
%TO.P,Q6,2,E*%
%TO.N,+9V*%
X44450000Y-22375000D03*
%TO.P,Q6,3,C*%
%TO.N,+10V*%
X43500000Y-20500000D03*
%TD*%
D16*
%TO.P,R2,1*%
%TO.N,Net-(C4-Pad2)*%
X58587500Y-21500000D03*
%TO.P,R2,2*%
%TO.N,GND*%
X60412500Y-21500000D03*
%TD*%
D13*
%TO.P,R10,1*%
%TO.N,Net-(D4-A)*%
X8500000Y-14587500D03*
%TO.P,R10,2*%
%TO.N,VBUS*%
X8500000Y-16412500D03*
%TD*%
D17*
%TO.P,L1,1,1*%
%TO.N,VCC*%
X29937500Y-11000000D03*
%TO.P,L1,2,2*%
%TO.N,Net-(D1-A)*%
X32062500Y-11000000D03*
%TD*%
D18*
%TO.P,R3,1*%
%TO.N,+9V*%
X60000000Y-28912500D03*
%TO.P,R3,2*%
%TO.N,GND*%
X60000000Y-27087500D03*
%TD*%
D19*
%TO.P,C1,1*%
%TO.N,Net-(Q6-B)*%
X49500000Y-29900000D03*
%TO.P,C1,2*%
%TO.N,GND*%
X49500000Y-28000000D03*
%TD*%
D20*
%TO.P,J2,1,Pin_1*%
%TO.N,+BATT*%
X34500000Y-3500000D03*
D21*
%TO.P,J2,2,Pin_2*%
%TO.N,GND*%
X39300000Y-3500000D03*
%TD*%
D13*
%TO.P,R9,1*%
%TO.N,VBUS*%
X18000000Y-27587500D03*
%TO.P,R9,2*%
%TO.N,GND*%
X18000000Y-29412500D03*
%TD*%
D14*
%TO.P,C8,1*%
%TO.N,+10V*%
X28500000Y-27550000D03*
%TO.P,C8,2*%
%TO.N,GND*%
X28500000Y-29450000D03*
%TD*%
D22*
%TO.P,D4,1,K*%
%TO.N,Net-(D4-K)*%
X8500000Y-9625000D03*
%TO.P,D4,2,A*%
%TO.N,Net-(D4-A)*%
X8500000Y-11500000D03*
%TD*%
D23*
%TO.P,C4,1*%
%TO.N,+9V*%
X53050000Y-21000000D03*
%TO.P,C4,2*%
%TO.N,Net-(C4-Pad2)*%
X54950000Y-21000000D03*
%TD*%
D24*
%TO.P,Q7,1,B*%
%TO.N,Net-(Q7-B)*%
X43375000Y-14450000D03*
%TO.P,Q7,2,E*%
%TO.N,VCC*%
X43375000Y-12550000D03*
%TO.P,Q7,3,C*%
%TO.N,Net-(Q7-C)*%
X41500000Y-13500000D03*
%TD*%
D25*
%TO.P,L3,1,1*%
%TO.N,Net-(D2-K)*%
X24000000Y-9437500D03*
%TO.P,L3,2,2*%
%TO.N,VCC*%
X24000000Y-11562500D03*
%TD*%
D26*
%TO.P,D2,1,K*%
%TO.N,Net-(D2-K)*%
X23000000Y-24000000D03*
%TO.P,D2,2,A*%
%TO.N,VBUS*%
X23000000Y-22125000D03*
%TD*%
%TO.P,D1,1,K*%
%TO.N,Net-(D1-K)*%
X65000000Y-4937500D03*
%TO.P,D1,2,A*%
%TO.N,Net-(D1-A)*%
X65000000Y-3062500D03*
%TD*%
D15*
%TO.P,Q1,1,D*%
%TO.N,+BATT*%
X27500000Y-4000000D03*
%TO.P,Q1,2,G*%
%TO.N,VBUS*%
X26500000Y-6000000D03*
%TO.P,Q1,3,S*%
%TO.N,Net-(D2-K)*%
X28500000Y-6000000D03*
%TD*%
D27*
%TO.P,C6,1*%
%TO.N,VCC*%
X44000000Y-6352500D03*
%TO.P,C6,2*%
%TO.N,GND*%
X44000000Y-3647500D03*
%TD*%
D28*
%TO.P,C2,1*%
%TO.N,+10V*%
X37352500Y-28000000D03*
%TO.P,C2,2*%
%TO.N,GND*%
X34647500Y-28000000D03*
%TD*%
D16*
%TO.P,R5,1*%
%TO.N,Net-(Q7-B)*%
X48587500Y-19500000D03*
%TO.P,R5,2*%
%TO.N,/OUT_EN*%
X50412500Y-19500000D03*
%TD*%
D13*
%TO.P,R6,1*%
%TO.N,Net-(Q2-B)*%
X49500000Y-4175000D03*
%TO.P,R6,2*%
%TO.N,VCC*%
X49500000Y-6000000D03*
%TD*%
D29*
%TO.P,U2,1,SW*%
%TO.N,Net-(D1-A)*%
X35362500Y-20050000D03*
%TO.P,U2,2,GND*%
%TO.N,GND*%
X35362500Y-21000000D03*
%TO.P,U2,3,FB*%
%TO.N,Net-(U2-FB)*%
X35362500Y-21950000D03*
%TO.P,U2,4,EN*%
%TO.N,Net-(Q7-C)*%
X37637500Y-21950000D03*
%TO.P,U2,5,VIN*%
%TO.N,VCC*%
X37637500Y-20050000D03*
%TD*%
D30*
%TO.P,C5,1*%
%TO.N,VCC*%
X24260000Y-18000000D03*
%TO.P,C5,2*%
%TO.N,GND*%
X30500000Y-18000000D03*
%TD*%
D31*
%TO.P,J1,1,Pin_1*%
%TO.N,+9V*%
X65500000Y-28100000D03*
D21*
%TO.P,J1,2,Pin_2*%
%TO.N,GND*%
X65500000Y-23300000D03*
%TO.P,J1,3,Pin_3*%
%TO.N,/OUT_EN*%
X65500000Y-18500000D03*
%TD*%
D32*
%TO.P,L2,1,1*%
%TO.N,Net-(Q2-C)*%
X50562500Y-25000000D03*
%TO.P,L2,2,2*%
%TO.N,+10V*%
X48437500Y-25000000D03*
%TD*%
D27*
%TO.P,C3,1*%
%TO.N,Net-(Q6-B)*%
X55000000Y-29852500D03*
%TO.P,C3,2*%
%TO.N,GND*%
X55000000Y-27147500D03*
%TD*%
D13*
%TO.P,R7,1*%
%TO.N,Net-(Q2-C)*%
X55000000Y-5175000D03*
%TO.P,R7,2*%
%TO.N,Net-(U2-FB)*%
X55000000Y-7000000D03*
%TD*%
D33*
%TO.P,U1,1,TEMP*%
%TO.N,GND*%
X18070000Y-16880000D03*
%TO.P,U1,2,PROG*%
%TO.N,Net-(U1-PROG)*%
X18070000Y-15610000D03*
%TO.P,U1,3,GND*%
%TO.N,GND*%
X18070000Y-14340000D03*
%TO.P,U1,4,V_{CC}*%
%TO.N,VBUS*%
X18070000Y-13070000D03*
%TO.P,U1,5,BAT*%
%TO.N,+BATT*%
X13120000Y-13070000D03*
%TO.P,U1,6,~{STDBY}*%
%TO.N,Net-(D3-K)*%
X13120000Y-14340000D03*
%TO.P,U1,7,~{CHRG}*%
%TO.N,Net-(D4-K)*%
X13120000Y-15610000D03*
%TO.P,U1,8,CE*%
%TO.N,VBUS*%
X13120000Y-16880000D03*
%TD*%
D15*
%TO.P,Q2,1,B*%
%TO.N,Net-(Q2-B)*%
X58550000Y-4937500D03*
%TO.P,Q2,2,E*%
%TO.N,Net-(D1-K)*%
X60450000Y-4937500D03*
%TO.P,Q2,3,C*%
%TO.N,Net-(Q2-C)*%
X59500000Y-3062500D03*
%TD*%
D13*
%TO.P,R8,1*%
%TO.N,Net-(U2-FB)*%
X55000000Y-9087500D03*
%TO.P,R8,2*%
%TO.N,GND*%
X55000000Y-10912500D03*
%TD*%
D34*
%TO.P,J3,1,Pin_1*%
%TO.N,VBUS*%
X4500000Y-22500000D03*
D21*
%TO.P,J3,2,Pin_2*%
%TO.N,GND*%
X4500000Y-27300000D03*
%TD*%
D13*
%TO.P,R4,1*%
%TO.N,VCC*%
X49000000Y-12587500D03*
%TO.P,R4,2*%
%TO.N,Net-(Q7-B)*%
X49000000Y-14412500D03*
%TD*%
D14*
%TO.P,C12,1*%
%TO.N,Net-(D2-K)*%
X23000000Y-27550000D03*
%TO.P,C12,2*%
%TO.N,GND*%
X23000000Y-29450000D03*
%TD*%
D35*
%TO.P,Rref1,1*%
%TO.N,Net-(U1-PROG)*%
X11912500Y-27500000D03*
%TO.P,Rref1,2*%
%TO.N,GND*%
X10087500Y-27500000D03*
%TD*%
D22*
%TO.P,D3,1,K*%
%TO.N,Net-(D3-K)*%
X4500000Y-9562500D03*
%TO.P,D3,2,A*%
%TO.N,Net-(D3-A)*%
X4500000Y-11437500D03*
%TD*%
D36*
%TO.N,GND*%
X33387200Y-19217700D03*
X39300000Y-7735000D03*
%TO.N,+10V*%
X51087500Y-22740800D03*
X47326800Y-19843900D03*
%TO.N,+9V*%
X61545300Y-23332600D03*
%TO.N,Net-(Q2-C)*%
X56937500Y-15681600D03*
X57050500Y-6938700D03*
X54012500Y-25060300D03*
X57050500Y-9715000D03*
%TO.N,Net-(U2-FB)*%
X45732800Y-9715000D03*
X38112800Y-22966100D03*
%TO.N,Net-(D2-K)*%
X25291300Y-9849200D03*
X24963000Y-25168000D03*
%TO.N,Net-(D1-A)*%
X45237500Y-1441000D03*
X41804400Y-10563900D03*
X35987200Y-18889300D03*
%TO.N,Net-(U1-PROG)*%
X16413000Y-15513200D03*
X18912500Y-31208000D03*
%TD*%
D37*
%TO.N,GND*%
X44641200Y-10912500D02*
X41463700Y-7735000D01*
X41463700Y-7735000D02*
X39387500Y-7735000D01*
X16000000Y-25000000D02*
X16950000Y-25000000D01*
X32147500Y-21000000D02*
X32147500Y-19647500D01*
D38*
X49500000Y-28000000D02*
X50352500Y-27147500D01*
D37*
X16000000Y-25000000D02*
X10000000Y-25000000D01*
X28500000Y-29450000D02*
X26500000Y-29450000D01*
X16000000Y-28500000D02*
X16000000Y-25000000D01*
X64872500Y-10912500D02*
X55000000Y-10912500D01*
X26500000Y-25500000D02*
X32147500Y-25500000D01*
X63700000Y-21500000D02*
X60412500Y-21500000D01*
D38*
X18070000Y-16880000D02*
X19120000Y-16880000D01*
D37*
X68000000Y-14500000D02*
X68000000Y-23500000D01*
X65700000Y-23500000D02*
X65500000Y-23300000D01*
X18000000Y-1500000D02*
X17352500Y-2147500D01*
X2000000Y-27500000D02*
X4300000Y-27500000D01*
X16950000Y-25000000D02*
X18000000Y-23950000D01*
X65000000Y-14500000D02*
X68000000Y-14500000D01*
X4300000Y-27500000D02*
X4500000Y-27300000D01*
X62500000Y-14500000D02*
X62500000Y-17000000D01*
X20500000Y-19310000D02*
X18070000Y-16880000D01*
X32147500Y-19647500D02*
X32957400Y-19647500D01*
X32147500Y-25500000D02*
X34647500Y-28000000D01*
D38*
X43852500Y-3500000D02*
X44000000Y-3647500D01*
D37*
X18000000Y-1500000D02*
X39500000Y-1500000D01*
D38*
X20000000Y-15000000D02*
X19340000Y-14340000D01*
D37*
X65000000Y-11040000D02*
X65000000Y-14500000D01*
X65500000Y-23300000D02*
X63700000Y-21500000D01*
X62500000Y-17000000D02*
X60100000Y-17000000D01*
X26500000Y-29450000D02*
X23000000Y-29450000D01*
X17352500Y-2147500D02*
X17352500Y-4000000D01*
X18000000Y-1500000D02*
X3000000Y-1500000D01*
X3000000Y-1500000D02*
X2000000Y-2500000D01*
D38*
X4500000Y-27300000D02*
X4700000Y-27500000D01*
D37*
X18000000Y-29412500D02*
X16912500Y-29412500D01*
D38*
X50352500Y-27147500D02*
X55000000Y-27147500D01*
X59940000Y-27147500D02*
X55000000Y-27147500D01*
X60000000Y-27087500D02*
X59940000Y-27147500D01*
D39*
X35362500Y-21000000D02*
X32147500Y-21000000D01*
D37*
X2000000Y-2500000D02*
X2000000Y-27500000D01*
X68000000Y-23500000D02*
X68000000Y-31500000D01*
X60000000Y-25500000D02*
X63300000Y-25500000D01*
X42352500Y-2000000D02*
X44000000Y-3647500D01*
D38*
X39387500Y-7735000D02*
X39300000Y-7735000D01*
D37*
X30550000Y-31500000D02*
X28500000Y-29450000D01*
X32957400Y-19647500D02*
X33387200Y-19217700D01*
D38*
X19120000Y-16880000D02*
X20000000Y-16000000D01*
D37*
X39500000Y-2000000D02*
X42352500Y-2000000D01*
X16912500Y-29412500D02*
X16000000Y-28500000D01*
D38*
X19340000Y-14340000D02*
X18070000Y-14340000D01*
X60000000Y-16900000D02*
X60201700Y-16698300D01*
D39*
X39500000Y-3300000D02*
X39300000Y-3500000D01*
D37*
X60100000Y-17000000D02*
X60000000Y-16900000D01*
X55000000Y-10912500D02*
X44641200Y-10912500D01*
X32147500Y-19647500D02*
X30500000Y-18000000D01*
X68000000Y-31500000D02*
X30550000Y-31500000D01*
X4700000Y-27500000D02*
X10087500Y-27500000D01*
X18037500Y-29450000D02*
X18000000Y-29412500D01*
D38*
X20000000Y-16000000D02*
X20000000Y-15000000D01*
D37*
X26500000Y-29450000D02*
X26500000Y-25500000D01*
X20500000Y-20500000D02*
X20500000Y-19310000D01*
D38*
X65000000Y-11040000D02*
X64872500Y-10912500D01*
D37*
X60000000Y-27087500D02*
X60000000Y-25500000D01*
X23000000Y-29450000D02*
X18037500Y-29450000D01*
D38*
X54500000Y-16900000D02*
X60000000Y-16900000D01*
D37*
X10000000Y-25000000D02*
X10000000Y-27412500D01*
X32147500Y-25500000D02*
X32147500Y-21000000D01*
X65000000Y-14500000D02*
X62500000Y-14500000D01*
X68000000Y-23500000D02*
X65700000Y-23500000D01*
X28000000Y-20500000D02*
X20500000Y-20500000D01*
X10000000Y-27412500D02*
X10087500Y-27500000D01*
X30500000Y-18000000D02*
X28000000Y-20500000D01*
D38*
X10087500Y-27300000D02*
X10087500Y-27500000D01*
D37*
X39500000Y-2000000D02*
X39500000Y-3300000D01*
X39500000Y-1500000D02*
X39500000Y-2000000D01*
X63300000Y-25500000D02*
X65500000Y-23300000D01*
D39*
%TO.N,Net-(Q6-B)*%
X43685500Y-29900000D02*
X43512500Y-29900000D01*
X54952500Y-29900000D02*
X55000000Y-29852500D01*
X43500000Y-29912500D02*
X43512500Y-29900000D01*
X49500000Y-29900000D02*
X54952500Y-29900000D01*
X44820100Y-24645100D02*
X44820100Y-28765400D01*
X43512500Y-29900000D02*
X49500000Y-29900000D01*
X42550000Y-22375000D02*
X44820100Y-24645100D01*
X44820100Y-28765400D02*
X43685500Y-29900000D01*
D40*
%TO.N,+10V*%
X41000000Y-20000000D02*
X43000000Y-20000000D01*
X40382500Y-24970000D02*
X43500000Y-28087500D01*
X37500000Y-28147500D02*
X37352500Y-28000000D01*
X43000000Y-20000000D02*
X43500000Y-20500000D01*
D37*
X48650000Y-22850000D02*
X51087500Y-22850000D01*
D40*
X46482900Y-19000000D02*
X47326800Y-19843900D01*
X43500000Y-20500000D02*
X43500000Y-20000000D01*
X43500000Y-20000000D02*
X44500000Y-19000000D01*
D37*
X48437500Y-23062500D02*
X48650000Y-22850000D01*
D40*
X44500000Y-19000000D02*
X46482900Y-19000000D01*
X31500000Y-30000000D02*
X37500000Y-30000000D01*
X40382500Y-24970000D02*
X40382500Y-20617500D01*
X37500000Y-30000000D02*
X37500000Y-28147500D01*
D37*
X48437500Y-25000000D02*
X48437500Y-23062500D01*
D40*
X29050000Y-27550000D02*
X31500000Y-30000000D01*
X40382500Y-20617500D02*
X41000000Y-20000000D01*
D39*
X28500000Y-27550000D02*
X29050000Y-27550000D01*
D40*
X40382500Y-24970000D02*
X37352500Y-28000000D01*
D37*
%TO.N,+9V*%
X64687500Y-28912500D02*
X65500000Y-28100000D01*
X53050000Y-22450000D02*
X53050000Y-21000000D01*
X60000000Y-28912500D02*
X64687500Y-28912500D01*
X61497000Y-23332600D02*
X53832600Y-23332600D01*
X53000000Y-22500000D02*
X53050000Y-22450000D01*
X53832600Y-23332600D02*
X53000000Y-22500000D01*
X45325000Y-21500000D02*
X52000000Y-21500000D01*
X52000000Y-21500000D02*
X53000000Y-22500000D01*
X45325000Y-21500000D02*
X44450000Y-22375000D01*
D40*
%TO.N,Net-(C4-Pad2)*%
X56000000Y-21000000D02*
X56500000Y-21500000D01*
X54950000Y-21000000D02*
X56000000Y-21000000D01*
X56500000Y-21500000D02*
X58587500Y-21500000D01*
D37*
%TO.N,VCC*%
X34427900Y-15490400D02*
X29937500Y-11000000D01*
X59500000Y-15000000D02*
X57500000Y-13000000D01*
X34585000Y-6352500D02*
X44000000Y-6352500D01*
X48962500Y-12550000D02*
X43375000Y-12550000D01*
X49412500Y-13000000D02*
X49000000Y-12587500D01*
X60000000Y-15000000D02*
X59500000Y-15000000D01*
X42825000Y-12000000D02*
X43375000Y-12550000D01*
X29937500Y-11000000D02*
X34585000Y-6352500D01*
X24260000Y-14651200D02*
X26286300Y-14651200D01*
X37637500Y-20050000D02*
X37637500Y-15490400D01*
X49147500Y-6352500D02*
X49500000Y-6000000D01*
X24260000Y-18000000D02*
X24260000Y-14651200D01*
X36000000Y-15490400D02*
X34427900Y-15490400D01*
X36000000Y-15490400D02*
X36000000Y-12000000D01*
X37637500Y-15490400D02*
X36000000Y-15490400D01*
X24000000Y-14391200D02*
X24260000Y-14651200D01*
X36000000Y-12000000D02*
X42825000Y-12000000D01*
X49000000Y-12587500D02*
X48962500Y-12550000D01*
X57500000Y-13000000D02*
X49412500Y-13000000D01*
X24000000Y-11562500D02*
X24000000Y-14391200D01*
X26286300Y-14651200D02*
X29937500Y-11000000D01*
X44000000Y-6352500D02*
X49147500Y-6352500D01*
X43290100Y-12465100D02*
X43375000Y-12550000D01*
D39*
%TO.N,Net-(D1-K)*%
X65000000Y-4937500D02*
X60450000Y-4937500D01*
X65000000Y-7960000D02*
X65000000Y-4937500D01*
%TO.N,Net-(Q2-C)*%
X57265500Y-9500000D02*
X59020000Y-9500000D01*
X56255900Y-15000000D02*
X56937500Y-15681600D01*
X57050500Y-9715000D02*
X57265500Y-9500000D01*
X54500000Y-15000000D02*
X56255900Y-15000000D01*
X50622800Y-25060300D02*
X54012500Y-25060300D01*
X59500000Y-5835600D02*
X58396900Y-6938700D01*
X55286800Y-5175000D02*
X55000000Y-5175000D01*
X57050500Y-6938700D02*
X55286800Y-5175000D01*
X50562500Y-25000000D02*
X50622800Y-25060300D01*
X59500000Y-3062500D02*
X59500000Y-5835600D01*
X58396900Y-6938700D02*
X57050500Y-6938700D01*
%TO.N,Net-(U2-FB)*%
X36378600Y-22966100D02*
X38112800Y-22966100D01*
X45732800Y-9715000D02*
X46360300Y-9087500D01*
X55000000Y-9087500D02*
X55000000Y-8551000D01*
X59980000Y-9063800D02*
X59980000Y-9500000D01*
X55000000Y-8551000D02*
X59467200Y-8551000D01*
X45732800Y-9715000D02*
X46360300Y-9087500D01*
X55000000Y-8551000D02*
X55000000Y-7000000D01*
X35362500Y-21950000D02*
X36378600Y-22966100D01*
X46360300Y-9087500D02*
X45732800Y-9715000D01*
X59467200Y-8551000D02*
X59980000Y-9063800D01*
X46360300Y-9087500D02*
X55000000Y-9087500D01*
%TO.N,Net-(D2-K)*%
X24879600Y-9437500D02*
X25291300Y-9849200D01*
X24000000Y-9437500D02*
X24879600Y-9437500D01*
X24963000Y-25168000D02*
X24168000Y-25168000D01*
X25291300Y-9849200D02*
X28150800Y-9849200D01*
X24168000Y-25168000D02*
X23000000Y-24000000D01*
X28150800Y-9849200D02*
X29000000Y-9000000D01*
X23000000Y-27550000D02*
X23000000Y-24000000D01*
X29000000Y-9000000D02*
X29000000Y-6500000D01*
X29000000Y-6500000D02*
X28500000Y-6000000D01*
D37*
%TO.N,+BATT*%
X22000000Y-4000000D02*
X27500000Y-4000000D01*
X34000000Y-4000000D02*
X34500000Y-3500000D01*
X13120000Y-5527500D02*
X14647500Y-4000000D01*
X13120000Y-7500000D02*
X13120000Y-5527500D01*
X18500000Y-7500000D02*
X22000000Y-4000000D01*
X34000000Y-3000000D02*
X34500000Y-3500000D01*
X13120000Y-13070000D02*
X13120000Y-7500000D01*
X27500000Y-4000000D02*
X34000000Y-4000000D01*
X13120000Y-7500000D02*
X18500000Y-7500000D01*
D41*
%TO.N,VBUS*%
X12670000Y-22500000D02*
X10000000Y-22500000D01*
D40*
X23000000Y-22125000D02*
X22925000Y-22050000D01*
D37*
X15000000Y-15000000D02*
X15000000Y-17000000D01*
X18027500Y-9500000D02*
X19000000Y-9500000D01*
D41*
X9000000Y-16912500D02*
X8967500Y-16880000D01*
D37*
X5400000Y-22500000D02*
X4950000Y-22050000D01*
D40*
X8500000Y-16412500D02*
X4500000Y-16412500D01*
D37*
X18070000Y-9542500D02*
X18070000Y-13070000D01*
D40*
X18070000Y-13070000D02*
X17220000Y-13070000D01*
X20412500Y-27587500D02*
X20500000Y-27500000D01*
D37*
X20500000Y-22050000D02*
X18000000Y-22050000D01*
X15000000Y-9500000D02*
X15000000Y-12500000D01*
D41*
X18000000Y-22050000D02*
X13120000Y-22050000D01*
D40*
X22888300Y-22125000D02*
X23000000Y-22125000D01*
D41*
X9000000Y-22500000D02*
X9000000Y-16912500D01*
D40*
X13240000Y-17000000D02*
X13120000Y-16880000D01*
D37*
X20500000Y-27500000D02*
X20500000Y-22050000D01*
D40*
X18070000Y-9542500D02*
X18027500Y-9500000D01*
D37*
X26000000Y-6500000D02*
X26500000Y-6000000D01*
D41*
X9000000Y-22500000D02*
X5400000Y-22500000D01*
D37*
X15500000Y-13000000D02*
X15500000Y-14500000D01*
D40*
X4950000Y-22050000D02*
X4500000Y-22500000D01*
X15000000Y-12500000D02*
X15500000Y-13000000D01*
D37*
X18000000Y-27587500D02*
X20412500Y-27587500D01*
X19000000Y-9500000D02*
X22000000Y-6500000D01*
X18027500Y-9500000D02*
X15000000Y-9500000D01*
X13120000Y-22050000D02*
X12670000Y-22500000D01*
X8967500Y-16880000D02*
X8500000Y-16412500D01*
X15000000Y-17000000D02*
X13240000Y-17000000D01*
X13120000Y-16880000D02*
X8967500Y-16880000D01*
D41*
X10000000Y-22500000D02*
X9000000Y-22500000D01*
D37*
X22000000Y-6500000D02*
X26000000Y-6500000D01*
X22925000Y-22050000D02*
X20500000Y-22050000D01*
X15500000Y-14500000D02*
X15000000Y-15000000D01*
D39*
%TO.N,Net-(D1-A)*%
X65000000Y-3062500D02*
X63378500Y-1441000D01*
X41740500Y-10500000D02*
X41804400Y-10563900D01*
X32062500Y-11000000D02*
X32562500Y-10500000D01*
X35987200Y-18889300D02*
X35362500Y-19514000D01*
X32562500Y-10500000D02*
X41740500Y-10500000D01*
X63378500Y-1441000D02*
X45237500Y-1441000D01*
X35831000Y-19045500D02*
X35987200Y-18889300D01*
X35362500Y-19514000D02*
X35362500Y-20050000D01*
X35987200Y-18889300D02*
X35831000Y-19045500D01*
%TO.N,Net-(D3-A)*%
X4500000Y-11437500D02*
X4500000Y-14587500D01*
%TO.N,Net-(D3-K)*%
X9374600Y-8532200D02*
X5530300Y-8532200D01*
X5530300Y-8532200D02*
X4500000Y-9562500D01*
X10692600Y-12684400D02*
X10692600Y-9850200D01*
X13120000Y-14340000D02*
X12348200Y-14340000D01*
X12348200Y-14340000D02*
X10692600Y-12684400D01*
X10692600Y-9850200D02*
X9374600Y-8532200D01*
%TO.N,Net-(D4-K)*%
X13120000Y-15610000D02*
X12348900Y-15610000D01*
X8595500Y-9625000D02*
X8500000Y-9625000D01*
X9821800Y-10851300D02*
X8595500Y-9625000D01*
X12348900Y-15610000D02*
X9821800Y-13082900D01*
X9821800Y-13082900D02*
X9821800Y-10851300D01*
%TO.N,Net-(D4-A)*%
X8500000Y-11500000D02*
X8500000Y-14587500D01*
%TO.N,/OUT_EN*%
X51412500Y-18500000D02*
X50412500Y-19500000D01*
X65500000Y-18500000D02*
X51412500Y-18500000D01*
%TO.N,Net-(Q2-B)*%
X57639100Y-4026600D02*
X49648400Y-4026600D01*
X58550000Y-4937500D02*
X57639100Y-4026600D01*
X49648400Y-4026600D02*
X49500000Y-4175000D01*
%TO.N,Net-(Q7-B)*%
X47733600Y-14412500D02*
X47696100Y-14450000D01*
X47696100Y-14450000D02*
X43375000Y-14450000D01*
X49000000Y-14412500D02*
X47733600Y-14412500D01*
X47696100Y-14450000D02*
X47696100Y-18608600D01*
X47696100Y-18608600D02*
X48587500Y-19500000D01*
%TO.N,Net-(Q7-C)*%
X37637500Y-21950000D02*
X41500000Y-18087500D01*
X41500000Y-18087500D02*
X41500000Y-13500000D01*
%TO.N,Net-(U1-PROG)*%
X15620500Y-31208000D02*
X18912500Y-31208000D01*
X16413000Y-15513200D02*
X17973200Y-15513200D01*
X17973200Y-15513200D02*
X18070000Y-15610000D01*
X11912500Y-27500000D02*
X15620500Y-31208000D01*
%TD*%
%TA.AperFunction,Conductor*%
%TO.N,GND*%
G36*
X44862692Y-520185D02*
G01*
X44908447Y-572989D01*
X44918391Y-642147D01*
X44889366Y-705703D01*
X44862613Y-727065D01*
X44863386Y-728221D01*
X44727211Y-819210D01*
X44727207Y-819213D01*
X44615713Y-930707D01*
X44615710Y-930711D01*
X44528109Y-1061814D01*
X44528102Y-1061827D01*
X44467764Y-1207498D01*
X44467761Y-1207510D01*
X44437000Y-1362153D01*
X44437000Y-1519846D01*
X44467761Y-1674489D01*
X44467764Y-1674501D01*
X44528102Y-1820172D01*
X44528109Y-1820185D01*
X44615710Y-1951288D01*
X44615713Y-1951292D01*
X44727207Y-2062786D01*
X44727211Y-2062789D01*
X44858314Y-2150390D01*
X44858327Y-2150397D01*
X44957560Y-2191500D01*
X45004003Y-2210737D01*
X45105726Y-2230971D01*
X45158653Y-2241499D01*
X45158656Y-2241500D01*
X45158658Y-2241500D01*
X45316344Y-2241500D01*
X45316345Y-2241499D01*
X45416607Y-2221556D01*
X45470988Y-2210739D01*
X45470989Y-2210738D01*
X45470997Y-2210737D01*
X45494655Y-2200937D01*
X45542104Y-2191500D01*
X58589815Y-2191500D01*
X58656854Y-2211185D01*
X58702609Y-2263989D01*
X58712553Y-2333147D01*
X58708891Y-2350096D01*
X58702402Y-2372429D01*
X58702401Y-2372432D01*
X58699500Y-2409298D01*
X58699500Y-3575500D01*
X58696949Y-3584185D01*
X58698238Y-3593147D01*
X58687259Y-3617187D01*
X58679815Y-3642539D01*
X58672974Y-3648466D01*
X58669213Y-3656703D01*
X58646978Y-3670992D01*
X58627011Y-3688294D01*
X58616496Y-3690581D01*
X58610435Y-3694477D01*
X58575500Y-3699500D01*
X58424730Y-3699500D01*
X58357691Y-3679815D01*
X58337049Y-3663181D01*
X58117521Y-3443652D01*
X58117514Y-3443646D01*
X58043829Y-3394412D01*
X58043829Y-3394413D01*
X57994591Y-3361513D01*
X57858017Y-3304943D01*
X57858007Y-3304940D01*
X57713020Y-3276100D01*
X57713018Y-3276100D01*
X50382993Y-3276100D01*
X50317897Y-3257639D01*
X50269340Y-3227690D01*
X50269334Y-3227686D01*
X50102797Y-3172501D01*
X50102795Y-3172500D01*
X50000010Y-3162000D01*
X48999998Y-3162000D01*
X48999980Y-3162001D01*
X48897203Y-3172500D01*
X48897200Y-3172501D01*
X48730668Y-3227685D01*
X48730663Y-3227687D01*
X48581342Y-3319789D01*
X48457289Y-3443842D01*
X48365187Y-3593163D01*
X48365186Y-3593166D01*
X48310001Y-3759703D01*
X48310001Y-3759704D01*
X48310000Y-3759704D01*
X48299500Y-3862483D01*
X48299500Y-4487501D01*
X48299501Y-4487519D01*
X48310000Y-4590296D01*
X48310001Y-4590299D01*
X48327848Y-4644157D01*
X48365186Y-4756834D01*
X48454169Y-4901100D01*
X48457289Y-4906157D01*
X48550951Y-4999819D01*
X48553713Y-5004877D01*
X48558504Y-5008086D01*
X48570273Y-5035205D01*
X48584436Y-5061142D01*
X48584024Y-5066891D01*
X48586320Y-5072180D01*
X48581560Y-5101351D01*
X48579452Y-5130834D01*
X48575755Y-5136932D01*
X48575069Y-5141138D01*
X48562157Y-5159363D01*
X48555429Y-5170462D01*
X48553254Y-5172877D01*
X48457288Y-5268844D01*
X48436446Y-5302633D01*
X48428949Y-5310962D01*
X48408360Y-5323648D01*
X48390380Y-5339822D01*
X48377287Y-5342797D01*
X48369466Y-5347617D01*
X48357107Y-5347382D01*
X48336790Y-5352000D01*
X45014730Y-5352000D01*
X44947691Y-5332315D01*
X44927049Y-5315681D01*
X44913657Y-5302289D01*
X44913656Y-5302288D01*
X44797823Y-5230842D01*
X44764336Y-5210187D01*
X44764331Y-5210185D01*
X44762862Y-5209698D01*
X44597797Y-5155001D01*
X44597795Y-5155000D01*
X44495010Y-5144500D01*
X43504998Y-5144500D01*
X43504980Y-5144501D01*
X43402203Y-5155000D01*
X43402200Y-5155001D01*
X43235668Y-5210185D01*
X43235663Y-5210187D01*
X43086342Y-5302289D01*
X43072951Y-5315681D01*
X43011628Y-5349166D01*
X42985270Y-5352000D01*
X39722547Y-5352000D01*
X39655508Y-5332315D01*
X39609753Y-5279511D01*
X39599809Y-5210353D01*
X39628834Y-5146797D01*
X39684229Y-5110069D01*
X39933377Y-5029116D01*
X40164788Y-4911205D01*
X40276492Y-4830046D01*
X40276493Y-4830046D01*
X39490646Y-4044200D01*
X39521942Y-4035815D01*
X39653058Y-3960115D01*
X39760115Y-3853058D01*
X39835815Y-3721942D01*
X39844200Y-3690646D01*
X40630046Y-4476493D01*
X40630046Y-4476492D01*
X40711205Y-4364788D01*
X40818106Y-4154986D01*
X42805001Y-4154986D01*
X42815494Y-4257697D01*
X42870641Y-4424119D01*
X42870643Y-4424124D01*
X42962684Y-4573345D01*
X43086654Y-4697315D01*
X43235875Y-4789356D01*
X43235880Y-4789358D01*
X43402302Y-4844505D01*
X43402309Y-4844506D01*
X43505019Y-4854999D01*
X43749999Y-4854999D01*
X44250000Y-4854999D01*
X44494972Y-4854999D01*
X44494986Y-4854998D01*
X44597697Y-4844505D01*
X44764119Y-4789358D01*
X44764124Y-4789356D01*
X44913345Y-4697315D01*
X45037315Y-4573345D01*
X45129356Y-4424124D01*
X45129358Y-4424119D01*
X45184505Y-4257697D01*
X45184506Y-4257690D01*
X45194999Y-4154986D01*
X45195000Y-4154973D01*
X45195000Y-3897500D01*
X44250000Y-3897500D01*
X44250000Y-4854999D01*
X43749999Y-4854999D01*
X43750000Y-4854998D01*
X43750000Y-3897500D01*
X42805001Y-3897500D01*
X42805001Y-4154986D01*
X40818106Y-4154986D01*
X40829116Y-4133377D01*
X40909370Y-3886377D01*
X40918817Y-3826739D01*
X40918817Y-3826738D01*
X40950000Y-3629857D01*
X40950000Y-3370143D01*
X40916124Y-3156262D01*
X40916124Y-3156261D01*
X40913551Y-3140013D01*
X42805000Y-3140013D01*
X42805000Y-3397500D01*
X43750000Y-3397500D01*
X44250000Y-3397500D01*
X45194999Y-3397500D01*
X45194999Y-3140028D01*
X45194998Y-3140013D01*
X45184505Y-3037302D01*
X45129358Y-2870880D01*
X45129356Y-2870875D01*
X45037315Y-2721654D01*
X44913345Y-2597684D01*
X44764124Y-2505643D01*
X44764119Y-2505641D01*
X44597697Y-2450494D01*
X44597690Y-2450493D01*
X44494986Y-2440000D01*
X44250000Y-2440000D01*
X44250000Y-3397500D01*
X43750000Y-3397500D01*
X43750000Y-2440000D01*
X43505029Y-2440000D01*
X43505012Y-2440001D01*
X43402302Y-2450494D01*
X43235880Y-2505641D01*
X43235875Y-2505643D01*
X43086654Y-2597684D01*
X42962684Y-2721654D01*
X42870643Y-2870875D01*
X42870641Y-2870880D01*
X42815494Y-3037302D01*
X42815493Y-3037309D01*
X42805000Y-3140013D01*
X40913551Y-3140013D01*
X40909371Y-3113623D01*
X40829116Y-2866622D01*
X40711203Y-2635208D01*
X40630048Y-2523506D01*
X40630046Y-2523505D01*
X39844200Y-3309352D01*
X39835815Y-3278058D01*
X39760115Y-3146942D01*
X39653058Y-3039885D01*
X39521942Y-2964185D01*
X39490646Y-2955799D01*
X40276493Y-2169952D01*
X40276492Y-2169951D01*
X40164791Y-2088796D01*
X39933377Y-1970883D01*
X39686377Y-1890629D01*
X39429857Y-1850000D01*
X39170143Y-1850000D01*
X38913622Y-1890629D01*
X38666622Y-1970883D01*
X38435215Y-2088792D01*
X38323506Y-2169952D01*
X39109353Y-2955799D01*
X39078058Y-2964185D01*
X38946942Y-3039885D01*
X38839885Y-3146942D01*
X38764185Y-3278058D01*
X38755799Y-3309353D01*
X37969952Y-2523506D01*
X37888792Y-2635215D01*
X37770883Y-2866622D01*
X37690629Y-3113622D01*
X37650000Y-3370142D01*
X37650000Y-3629857D01*
X37690629Y-3886377D01*
X37770883Y-4133377D01*
X37888796Y-4364791D01*
X37969951Y-4476492D01*
X37969952Y-4476493D01*
X38755799Y-3690646D01*
X38764185Y-3721942D01*
X38839885Y-3853058D01*
X38946942Y-3960115D01*
X39078058Y-4035815D01*
X39109353Y-4044200D01*
X38323505Y-4830046D01*
X38323506Y-4830048D01*
X38435208Y-4911203D01*
X38666622Y-5029116D01*
X38915771Y-5110069D01*
X38973446Y-5149506D01*
X39000645Y-5213865D01*
X38988731Y-5282711D01*
X38941487Y-5334187D01*
X38877453Y-5352000D01*
X35681444Y-5352000D01*
X35614405Y-5332315D01*
X35568650Y-5279511D01*
X35558706Y-5210353D01*
X35587731Y-5146797D01*
X35642439Y-5110294D01*
X35719334Y-5084814D01*
X35868655Y-4992711D01*
X35992711Y-4868655D01*
X36084814Y-4719334D01*
X36139999Y-4552797D01*
X36150500Y-4450008D01*
X36150500Y-2549992D01*
X36139999Y-2447203D01*
X36084814Y-2280666D01*
X36074527Y-2263989D01*
X35992713Y-2131348D01*
X35992710Y-2131344D01*
X35868655Y-2007289D01*
X35868651Y-2007286D01*
X35719337Y-1915187D01*
X35719335Y-1915186D01*
X35636065Y-1887593D01*
X35552797Y-1860001D01*
X35552795Y-1860000D01*
X35450015Y-1849500D01*
X35450008Y-1849500D01*
X33549992Y-1849500D01*
X33549984Y-1849500D01*
X33447204Y-1860000D01*
X33447203Y-1860001D01*
X33280664Y-1915186D01*
X33280662Y-1915187D01*
X33131348Y-2007286D01*
X33131344Y-2007289D01*
X33007289Y-2131344D01*
X33007286Y-2131348D01*
X32915187Y-2280662D01*
X32915186Y-2280664D01*
X32860001Y-2447203D01*
X32860000Y-2447204D01*
X32849500Y-2549984D01*
X32849500Y-2875500D01*
X32829815Y-2942539D01*
X32777011Y-2988294D01*
X32725500Y-2999500D01*
X28208308Y-2999500D01*
X28141269Y-2979815D01*
X28120631Y-2963185D01*
X28051865Y-2894419D01*
X28039401Y-2887048D01*
X27973681Y-2848181D01*
X27910398Y-2810756D01*
X27910397Y-2810755D01*
X27910396Y-2810755D01*
X27910393Y-2810754D01*
X27752573Y-2764902D01*
X27752567Y-2764901D01*
X27715701Y-2762000D01*
X27715694Y-2762000D01*
X27284306Y-2762000D01*
X27284298Y-2762000D01*
X27247432Y-2764901D01*
X27247426Y-2764902D01*
X27089606Y-2810754D01*
X27089603Y-2810755D01*
X26948137Y-2894417D01*
X26948133Y-2894420D01*
X26919187Y-2923367D01*
X26879371Y-2963182D01*
X26818051Y-2996666D01*
X26791692Y-2999500D01*
X21901456Y-2999500D01*
X21708171Y-3037946D01*
X21708167Y-3037948D01*
X21708165Y-3037948D01*
X21708164Y-3037949D01*
X21632745Y-3069188D01*
X21632743Y-3069189D01*
X21526089Y-3113366D01*
X21526080Y-3113371D01*
X21453303Y-3162000D01*
X21453302Y-3162000D01*
X21362222Y-3222857D01*
X21362214Y-3222863D01*
X18121899Y-6463181D01*
X18060576Y-6496666D01*
X18034218Y-6499500D01*
X14244500Y-6499500D01*
X14177461Y-6479815D01*
X14131706Y-6427011D01*
X14120500Y-6375500D01*
X14120500Y-5993281D01*
X14140185Y-5926242D01*
X14156815Y-5905604D01*
X14830601Y-5231817D01*
X14891924Y-5198333D01*
X14918282Y-5195499D01*
X15155002Y-5195499D01*
X15155008Y-5195499D01*
X15257797Y-5184999D01*
X15424334Y-5129814D01*
X15573656Y-5037712D01*
X15697712Y-4913656D01*
X15789814Y-4764334D01*
X15844999Y-4597797D01*
X15855500Y-4495009D01*
X15855500Y-4494986D01*
X16145001Y-4494986D01*
X16155494Y-4597697D01*
X16210641Y-4764119D01*
X16210643Y-4764124D01*
X16302684Y-4913345D01*
X16426654Y-5037315D01*
X16575875Y-5129356D01*
X16575880Y-5129358D01*
X16742302Y-5184505D01*
X16742309Y-5184506D01*
X16845019Y-5194999D01*
X17102499Y-5194999D01*
X17602500Y-5194999D01*
X17859972Y-5194999D01*
X17859986Y-5194998D01*
X17962697Y-5184505D01*
X18129119Y-5129358D01*
X18129124Y-5129356D01*
X18278345Y-5037315D01*
X18402315Y-4913345D01*
X18494356Y-4764124D01*
X18494358Y-4764119D01*
X18549505Y-4597697D01*
X18549506Y-4597690D01*
X18559999Y-4494986D01*
X18560000Y-4494973D01*
X18560000Y-4250000D01*
X17602500Y-4250000D01*
X17602500Y-5194999D01*
X17102499Y-5194999D01*
X17102500Y-5194998D01*
X17102500Y-4250000D01*
X16145001Y-4250000D01*
X16145001Y-4494986D01*
X15855500Y-4494986D01*
X15855499Y-4000000D01*
X15855499Y-3505013D01*
X16145000Y-3505013D01*
X16145000Y-3750000D01*
X17102500Y-3750000D01*
X17602500Y-3750000D01*
X18559999Y-3750000D01*
X18559999Y-3505028D01*
X18559998Y-3505013D01*
X18549505Y-3402302D01*
X18494358Y-3235880D01*
X18494356Y-3235875D01*
X18402315Y-3086654D01*
X18278345Y-2962684D01*
X18129124Y-2870643D01*
X18129119Y-2870641D01*
X17962697Y-2815494D01*
X17962690Y-2815493D01*
X17859986Y-2805000D01*
X17602500Y-2805000D01*
X17602500Y-3750000D01*
X17102500Y-3750000D01*
X17102500Y-2805000D01*
X16845029Y-2805000D01*
X16845012Y-2805001D01*
X16742302Y-2815494D01*
X16575880Y-2870641D01*
X16575875Y-2870643D01*
X16426654Y-2962684D01*
X16302684Y-3086654D01*
X16210643Y-3235875D01*
X16210641Y-3235880D01*
X16155494Y-3402302D01*
X16155493Y-3402309D01*
X16145000Y-3505013D01*
X15855499Y-3505013D01*
X15855499Y-3504998D01*
X15855498Y-3504980D01*
X15844999Y-3402203D01*
X15844998Y-3402200D01*
X15834375Y-3370142D01*
X15789814Y-3235666D01*
X15697712Y-3086344D01*
X15573656Y-2962288D01*
X15451672Y-2887048D01*
X15424336Y-2870187D01*
X15424331Y-2870185D01*
X15422862Y-2869698D01*
X15257797Y-2815001D01*
X15257795Y-2815000D01*
X15155010Y-2804500D01*
X14139998Y-2804500D01*
X14139980Y-2804501D01*
X14037203Y-2815000D01*
X14037200Y-2815001D01*
X13870668Y-2870185D01*
X13870663Y-2870187D01*
X13721342Y-2962289D01*
X13597289Y-3086342D01*
X13505187Y-3235663D01*
X13505185Y-3235668D01*
X13482231Y-3304940D01*
X13450001Y-3402203D01*
X13450001Y-3402204D01*
X13450000Y-3402204D01*
X13439500Y-3504983D01*
X13439500Y-3741717D01*
X13419815Y-3808756D01*
X13403181Y-3829398D01*
X12482221Y-4750358D01*
X12482218Y-4750361D01*
X12445586Y-4786993D01*
X12342859Y-4889719D01*
X12233371Y-5053579D01*
X12233364Y-5053592D01*
X12190776Y-5156412D01*
X12157950Y-5235660D01*
X12157947Y-5235669D01*
X12155312Y-5248920D01*
X12119500Y-5428954D01*
X12119500Y-12200488D01*
X12099815Y-12267527D01*
X12047011Y-12313282D01*
X12040542Y-12315685D01*
X12034603Y-12318255D01*
X11893137Y-12401917D01*
X11893129Y-12401923D01*
X11771402Y-12523651D01*
X11769350Y-12521599D01*
X11766840Y-12523409D01*
X11756798Y-12536825D01*
X11739092Y-12543428D01*
X11723768Y-12554485D01*
X11707034Y-12555385D01*
X11691334Y-12561242D01*
X11672869Y-12557225D01*
X11654000Y-12558241D01*
X11638939Y-12549844D01*
X11623061Y-12546390D01*
X11594807Y-12525239D01*
X11479419Y-12409851D01*
X11445934Y-12348528D01*
X11443100Y-12322170D01*
X11443100Y-9776279D01*
X11414259Y-9631292D01*
X11414258Y-9631291D01*
X11414258Y-9631287D01*
X11378226Y-9544297D01*
X11357687Y-9494711D01*
X11357680Y-9494698D01*
X11275552Y-9371785D01*
X11235419Y-9331652D01*
X11171016Y-9267249D01*
X10849030Y-8945263D01*
X9853021Y-7949252D01*
X9853020Y-7949251D01*
X9850121Y-7947314D01*
X9758231Y-7885916D01*
X9730095Y-7867116D01*
X9730093Y-7867115D01*
X9730090Y-7867113D01*
X9593517Y-7810543D01*
X9593507Y-7810540D01*
X9448520Y-7781700D01*
X9448518Y-7781700D01*
X5604217Y-7781700D01*
X5456382Y-7781700D01*
X5456380Y-7781700D01*
X5311392Y-7810540D01*
X5311382Y-7810543D01*
X5174811Y-7867112D01*
X5174798Y-7867119D01*
X5051884Y-7949248D01*
X5051880Y-7949251D01*
X4462951Y-8538181D01*
X4401628Y-8571666D01*
X4375270Y-8574500D01*
X3994144Y-8574500D01*
X3892223Y-8584913D01*
X3727077Y-8639637D01*
X3727066Y-8639642D01*
X3579000Y-8730971D01*
X3578996Y-8730974D01*
X3455974Y-8853996D01*
X3455971Y-8854000D01*
X3364642Y-9002066D01*
X3364637Y-9002077D01*
X3309913Y-9167223D01*
X3299500Y-9269144D01*
X3299500Y-9855855D01*
X3309913Y-9957776D01*
X3364637Y-10122922D01*
X3364642Y-10122933D01*
X3455971Y-10270999D01*
X3455974Y-10271003D01*
X3578996Y-10394025D01*
X3579000Y-10394028D01*
X3579703Y-10394462D01*
X3580083Y-10394885D01*
X3584664Y-10398507D01*
X3584045Y-10399289D01*
X3626428Y-10446410D01*
X3637649Y-10515372D01*
X3609806Y-10579454D01*
X3584544Y-10601342D01*
X3584664Y-10601493D01*
X3581315Y-10604140D01*
X3579703Y-10605538D01*
X3579000Y-10605971D01*
X3578996Y-10605974D01*
X3455974Y-10728996D01*
X3455971Y-10729000D01*
X3364642Y-10877066D01*
X3364637Y-10877077D01*
X3309913Y-11042223D01*
X3299500Y-11144144D01*
X3299500Y-11730855D01*
X3309913Y-11832776D01*
X3364637Y-11997922D01*
X3364642Y-11997933D01*
X3455971Y-12145999D01*
X3455974Y-12146003D01*
X3578997Y-12269026D01*
X3690599Y-12337863D01*
X3737321Y-12389809D01*
X3749500Y-12443400D01*
X3749500Y-13559362D01*
X3729815Y-13626401D01*
X3690598Y-13664899D01*
X3648539Y-13690842D01*
X3581342Y-13732289D01*
X3457289Y-13856342D01*
X3365187Y-14005663D01*
X3365185Y-14005668D01*
X3360375Y-14020185D01*
X3310001Y-14172203D01*
X3310001Y-14172204D01*
X3310000Y-14172204D01*
X3299500Y-14274983D01*
X3299500Y-14900001D01*
X3299501Y-14900019D01*
X3310000Y-15002796D01*
X3310001Y-15002799D01*
X3365185Y-15169331D01*
X3365187Y-15169336D01*
X3385177Y-15201745D01*
X3447274Y-15302421D01*
X3457289Y-15318657D01*
X3550951Y-15412319D01*
X3584436Y-15473642D01*
X3579452Y-15543334D01*
X3550951Y-15587681D01*
X3457289Y-15681342D01*
X3365187Y-15830663D01*
X3365185Y-15830668D01*
X3356851Y-15855819D01*
X3310001Y-15997203D01*
X3310001Y-15997204D01*
X3310000Y-15997204D01*
X3299500Y-16099983D01*
X3299500Y-16725001D01*
X3299501Y-16725019D01*
X3310000Y-16827796D01*
X3310001Y-16827799D01*
X3335581Y-16904992D01*
X3365186Y-16994334D01*
X3457288Y-17143656D01*
X3581344Y-17267712D01*
X3730666Y-17359814D01*
X3897203Y-17414999D01*
X3999991Y-17425500D01*
X5000008Y-17425499D01*
X5000016Y-17425498D01*
X5000019Y-17425498D01*
X5056302Y-17419748D01*
X5102797Y-17414999D01*
X5269334Y-17359814D01*
X5396366Y-17281460D01*
X5461461Y-17263000D01*
X7538539Y-17263000D01*
X7555098Y-17267696D01*
X7571265Y-17267397D01*
X7603631Y-17281459D01*
X7690597Y-17335099D01*
X7737321Y-17387047D01*
X7749500Y-17440638D01*
X7749500Y-21125500D01*
X7729815Y-21192539D01*
X7677011Y-21238294D01*
X7625500Y-21249500D01*
X6134797Y-21249500D01*
X6067758Y-21229815D01*
X6029259Y-21190597D01*
X5992713Y-21131348D01*
X5992710Y-21131344D01*
X5868655Y-21007289D01*
X5868651Y-21007286D01*
X5719337Y-20915187D01*
X5719335Y-20915186D01*
X5583530Y-20870185D01*
X5552797Y-20860001D01*
X5552795Y-20860000D01*
X5450015Y-20849500D01*
X5450008Y-20849500D01*
X3549992Y-20849500D01*
X3549984Y-20849500D01*
X3447204Y-20860000D01*
X3447203Y-20860001D01*
X3280664Y-20915186D01*
X3280662Y-20915187D01*
X3131348Y-21007286D01*
X3131344Y-21007289D01*
X3007289Y-21131344D01*
X3007286Y-21131348D01*
X2915187Y-21280662D01*
X2915186Y-21280664D01*
X2860001Y-21447203D01*
X2860000Y-21447204D01*
X2849500Y-21549984D01*
X2849500Y-23450015D01*
X2860000Y-23552795D01*
X2860001Y-23552797D01*
X2877208Y-23604723D01*
X2915186Y-23719335D01*
X2915187Y-23719337D01*
X3007286Y-23868651D01*
X3007289Y-23868655D01*
X3131344Y-23992710D01*
X3131348Y-23992713D01*
X3280662Y-24084812D01*
X3280664Y-24084813D01*
X3280666Y-24084814D01*
X3447203Y-24139999D01*
X3549992Y-24150500D01*
X3549997Y-24150500D01*
X5450003Y-24150500D01*
X5450008Y-24150500D01*
X5552797Y-24139999D01*
X5719334Y-24084814D01*
X5774610Y-24050719D01*
X5786963Y-24043100D01*
X5836913Y-24012290D01*
X5868655Y-23992711D01*
X5992711Y-23868655D01*
X6015739Y-23831321D01*
X6029259Y-23809403D01*
X6081207Y-23762678D01*
X6134797Y-23750500D01*
X12768422Y-23750500D01*
X12962826Y-23719709D01*
X12972394Y-23716600D01*
X13150025Y-23658884D01*
X13325405Y-23569524D01*
X13484646Y-23453828D01*
X13601656Y-23336818D01*
X13662979Y-23303334D01*
X13689337Y-23300500D01*
X16695557Y-23300500D01*
X16762596Y-23320185D01*
X16808351Y-23372989D01*
X16818295Y-23442147D01*
X16813263Y-23463504D01*
X16785494Y-23547302D01*
X16785493Y-23547309D01*
X16775000Y-23650013D01*
X16775000Y-23700000D01*
X19224999Y-23700000D01*
X19224999Y-23650028D01*
X19224998Y-23650013D01*
X19214505Y-23547302D01*
X19159358Y-23380880D01*
X19159356Y-23380875D01*
X19072215Y-23239597D01*
X19053775Y-23172204D01*
X19074698Y-23105541D01*
X19128340Y-23060771D01*
X19177754Y-23050500D01*
X19375500Y-23050500D01*
X19442539Y-23070185D01*
X19488294Y-23122989D01*
X19499500Y-23174500D01*
X19499500Y-26463000D01*
X19479815Y-26530039D01*
X19427011Y-26575794D01*
X19375500Y-26587000D01*
X18625259Y-26587000D01*
X18609566Y-26585339D01*
X18609531Y-26585689D01*
X18500010Y-26574500D01*
X17499998Y-26574500D01*
X17499980Y-26574501D01*
X17397203Y-26585000D01*
X17397200Y-26585001D01*
X17230668Y-26640185D01*
X17230663Y-26640187D01*
X17081342Y-26732289D01*
X16957289Y-26856342D01*
X16865187Y-27005663D01*
X16865185Y-27005668D01*
X16844041Y-27069477D01*
X16810001Y-27172203D01*
X16810001Y-27172204D01*
X16810000Y-27172204D01*
X16799500Y-27274983D01*
X16799500Y-27900001D01*
X16799501Y-27900019D01*
X16810000Y-28002796D01*
X16810001Y-28002799D01*
X16848618Y-28119336D01*
X16865186Y-28169334D01*
X16945772Y-28299986D01*
X16957289Y-28318657D01*
X17051304Y-28412672D01*
X17084789Y-28473995D01*
X17079805Y-28543687D01*
X17051305Y-28588034D01*
X16957682Y-28681657D01*
X16865643Y-28830875D01*
X16865641Y-28830880D01*
X16810494Y-28997302D01*
X16810493Y-28997309D01*
X16800000Y-29100013D01*
X16800000Y-29162500D01*
X19199999Y-29162500D01*
X19199999Y-29100028D01*
X19199998Y-29100013D01*
X19189505Y-28997302D01*
X19134358Y-28830880D01*
X19134356Y-28830875D01*
X19101185Y-28777097D01*
X19082745Y-28709705D01*
X19103667Y-28643041D01*
X19157309Y-28598271D01*
X19206724Y-28588000D01*
X20511043Y-28588000D01*
X20641082Y-28562132D01*
X20704335Y-28549551D01*
X20886414Y-28474132D01*
X21050282Y-28364639D01*
X21189639Y-28225282D01*
X21277139Y-28137782D01*
X21386632Y-27973914D01*
X21393030Y-27958469D01*
X21417245Y-27900008D01*
X21462051Y-27791835D01*
X21484447Y-27679244D01*
X21500500Y-27598543D01*
X21500500Y-23174500D01*
X21520185Y-23107461D01*
X21572989Y-23061706D01*
X21624500Y-23050500D01*
X21897609Y-23050500D01*
X21964648Y-23070185D01*
X22010403Y-23122989D01*
X22020347Y-23192147D01*
X21991322Y-23255703D01*
X21985290Y-23262181D01*
X21955974Y-23291496D01*
X21955971Y-23291500D01*
X21864642Y-23439566D01*
X21864637Y-23439577D01*
X21809913Y-23604723D01*
X21799500Y-23706644D01*
X21799500Y-24293355D01*
X21809913Y-24395276D01*
X21864637Y-24560422D01*
X21864642Y-24560433D01*
X21955971Y-24708499D01*
X21955974Y-24708503D01*
X22078997Y-24831526D01*
X22190599Y-24900363D01*
X22237321Y-24952309D01*
X22249500Y-25005900D01*
X22249500Y-26518942D01*
X22229815Y-26585981D01*
X22190598Y-26624479D01*
X22113066Y-26672302D01*
X22056342Y-26707289D01*
X21932289Y-26831342D01*
X21840187Y-26980663D01*
X21840185Y-26980668D01*
X21827967Y-27017539D01*
X21785001Y-27147203D01*
X21785001Y-27147204D01*
X21785000Y-27147204D01*
X21774500Y-27249983D01*
X21774500Y-27850001D01*
X21774501Y-27850019D01*
X21785000Y-27952796D01*
X21785001Y-27952799D01*
X21840185Y-28119331D01*
X21840187Y-28119336D01*
X21851565Y-28137782D01*
X21932288Y-28268656D01*
X22056344Y-28392712D01*
X22059628Y-28394737D01*
X22059653Y-28394753D01*
X22061445Y-28396746D01*
X22062011Y-28397193D01*
X22061934Y-28397289D01*
X22106379Y-28446699D01*
X22117603Y-28515661D01*
X22089761Y-28579744D01*
X22059665Y-28605826D01*
X22056660Y-28607679D01*
X22056655Y-28607683D01*
X21932684Y-28731654D01*
X21840643Y-28880875D01*
X21840641Y-28880880D01*
X21785494Y-29047302D01*
X21785493Y-29047309D01*
X21775000Y-29150013D01*
X21775000Y-29200000D01*
X24224999Y-29200000D01*
X24224999Y-29150028D01*
X24224998Y-29150013D01*
X24214505Y-29047302D01*
X24159358Y-28880880D01*
X24159356Y-28880875D01*
X24067315Y-28731654D01*
X23943344Y-28607683D01*
X23943341Y-28607681D01*
X23940339Y-28605829D01*
X23938713Y-28604021D01*
X23937677Y-28603202D01*
X23937817Y-28603024D01*
X23893617Y-28553880D01*
X23882397Y-28484917D01*
X23910243Y-28420836D01*
X23940344Y-28394754D01*
X23943656Y-28392712D01*
X24067712Y-28268656D01*
X24159814Y-28119334D01*
X24214999Y-27952797D01*
X24225500Y-27850009D01*
X24225499Y-27249992D01*
X24224057Y-27235880D01*
X24214999Y-27147203D01*
X24214998Y-27147200D01*
X24194832Y-27086344D01*
X24159814Y-26980666D01*
X24067712Y-26831344D01*
X23943656Y-26707288D01*
X23809402Y-26624480D01*
X23762679Y-26572533D01*
X23750500Y-26518942D01*
X23750500Y-25992979D01*
X23770185Y-25925940D01*
X23822989Y-25880185D01*
X23892147Y-25870241D01*
X23921954Y-25878419D01*
X23949081Y-25889656D01*
X23949084Y-25889656D01*
X23949087Y-25889658D01*
X23949091Y-25889658D01*
X23949092Y-25889659D01*
X24094079Y-25918500D01*
X24094082Y-25918500D01*
X24658396Y-25918500D01*
X24705844Y-25927937D01*
X24729503Y-25937737D01*
X24729508Y-25937738D01*
X24729511Y-25937739D01*
X24884153Y-25968499D01*
X24884156Y-25968500D01*
X24884158Y-25968500D01*
X25041844Y-25968500D01*
X25041845Y-25968499D01*
X25196497Y-25937737D01*
X25335441Y-25880185D01*
X25342172Y-25877397D01*
X25342172Y-25877396D01*
X25342179Y-25877394D01*
X25473289Y-25789789D01*
X25584789Y-25678289D01*
X25672394Y-25547179D01*
X25732737Y-25401497D01*
X25763500Y-25246842D01*
X25763500Y-25089158D01*
X25763500Y-25089155D01*
X25763499Y-25089153D01*
X25736279Y-24952309D01*
X25732737Y-24934503D01*
X25718595Y-24900361D01*
X25672397Y-24788827D01*
X25672390Y-24788814D01*
X25584789Y-24657711D01*
X25584786Y-24657707D01*
X25473292Y-24546213D01*
X25473288Y-24546210D01*
X25342185Y-24458609D01*
X25342172Y-24458602D01*
X25196501Y-24398264D01*
X25196489Y-24398261D01*
X25041845Y-24367500D01*
X25041842Y-24367500D01*
X24884158Y-24367500D01*
X24884155Y-24367500D01*
X24729511Y-24398260D01*
X24729506Y-24398262D01*
X24729504Y-24398262D01*
X24729503Y-24398263D01*
X24705844Y-24408062D01*
X24697670Y-24409688D01*
X24693331Y-24412477D01*
X24658396Y-24417500D01*
X24530229Y-24417500D01*
X24463190Y-24397815D01*
X24442548Y-24381181D01*
X24236819Y-24175451D01*
X24203334Y-24114128D01*
X24200500Y-24087770D01*
X24200500Y-23706657D01*
X24200499Y-23706644D01*
X24198570Y-23687759D01*
X24190087Y-23604725D01*
X24135362Y-23439575D01*
X24135358Y-23439569D01*
X24135357Y-23439566D01*
X24044028Y-23291500D01*
X24044025Y-23291496D01*
X23921004Y-23168475D01*
X23921003Y-23168474D01*
X23920301Y-23168041D01*
X23919921Y-23167618D01*
X23915336Y-23163993D01*
X23915955Y-23163209D01*
X23873575Y-23116098D01*
X23862349Y-23047136D01*
X23890188Y-22983052D01*
X23915455Y-22961157D01*
X23915336Y-22961007D01*
X23918687Y-22958356D01*
X23920299Y-22956959D01*
X23921003Y-22956526D01*
X24044026Y-22833503D01*
X24135362Y-22685425D01*
X24190087Y-22520275D01*
X24200500Y-22418348D01*
X24200500Y-21831652D01*
X24190087Y-21729725D01*
X24135362Y-21564575D01*
X24135358Y-21564569D01*
X24135357Y-21564566D01*
X24044028Y-21416500D01*
X24044025Y-21416496D01*
X23921003Y-21293474D01*
X23920999Y-21293471D01*
X23772933Y-21202142D01*
X23772927Y-21202139D01*
X23772925Y-21202138D01*
X23743957Y-21192539D01*
X23607776Y-21147413D01*
X23505855Y-21137000D01*
X23505848Y-21137000D01*
X23359920Y-21137000D01*
X23312468Y-21127561D01*
X23216836Y-21087949D01*
X23216828Y-21087947D01*
X23023543Y-21049500D01*
X23023541Y-21049500D01*
X20598541Y-21049500D01*
X18790699Y-21049500D01*
X18723660Y-21029815D01*
X18717814Y-21025818D01*
X18655408Y-20980478D01*
X18655407Y-20980477D01*
X18655405Y-20980476D01*
X18569356Y-20936632D01*
X18480029Y-20891117D01*
X18292826Y-20830290D01*
X18098422Y-20799500D01*
X18098417Y-20799500D01*
X13021583Y-20799500D01*
X13021578Y-20799500D01*
X12827173Y-20830290D01*
X12639970Y-20891117D01*
X12464594Y-20980476D01*
X12305355Y-21096171D01*
X12188344Y-21213182D01*
X12127021Y-21246666D01*
X12100663Y-21249500D01*
X10374500Y-21249500D01*
X10307461Y-21229815D01*
X10261706Y-21177011D01*
X10250500Y-21125500D01*
X10250500Y-18004500D01*
X10270185Y-17937461D01*
X10322989Y-17891706D01*
X10374500Y-17880500D01*
X12726617Y-17880500D01*
X12774069Y-17889939D01*
X12888799Y-17937461D01*
X12948165Y-17962051D01*
X12948169Y-17962051D01*
X12948170Y-17962052D01*
X13141456Y-18000500D01*
X13141459Y-18000500D01*
X15098543Y-18000500D01*
X15228582Y-17974632D01*
X15291835Y-17962051D01*
X15473914Y-17886632D01*
X15637782Y-17777139D01*
X15777139Y-17637782D01*
X15886632Y-17473914D01*
X15962051Y-17291835D01*
X15994242Y-17130001D01*
X16597704Y-17130001D01*
X16597899Y-17132486D01*
X16643718Y-17290198D01*
X16727314Y-17431552D01*
X16727321Y-17431561D01*
X16843438Y-17547678D01*
X16843447Y-17547685D01*
X16984803Y-17631282D01*
X16984806Y-17631283D01*
X17142504Y-17677099D01*
X17142510Y-17677100D01*
X17179350Y-17679999D01*
X17179366Y-17680000D01*
X17820000Y-17680000D01*
X18320000Y-17680000D01*
X18960634Y-17680000D01*
X18960649Y-17679999D01*
X18997489Y-17677100D01*
X18997495Y-17677099D01*
X19155193Y-17631283D01*
X19155196Y-17631282D01*
X19296552Y-17547685D01*
X19296561Y-17547678D01*
X19412678Y-17431561D01*
X19412685Y-17431552D01*
X19496281Y-17290198D01*
X19542100Y-17132486D01*
X19542295Y-17130001D01*
X19542295Y-17130000D01*
X18320000Y-17130000D01*
X18320000Y-17680000D01*
X17820000Y-17680000D01*
X17820000Y-17130000D01*
X16597705Y-17130000D01*
X16597704Y-17130001D01*
X15994242Y-17130001D01*
X16000500Y-17098543D01*
X16000500Y-16394370D01*
X16020185Y-16327331D01*
X16072989Y-16281576D01*
X16142147Y-16271632D01*
X16171949Y-16279808D01*
X16179503Y-16282937D01*
X16325059Y-16311890D01*
X16334153Y-16313699D01*
X16334156Y-16313700D01*
X16334158Y-16313700D01*
X16491843Y-16313700D01*
X16500942Y-16311890D01*
X16570534Y-16318117D01*
X16625712Y-16360979D01*
X16648957Y-16426868D01*
X16644212Y-16468101D01*
X16597899Y-16627511D01*
X16597704Y-16629998D01*
X16597705Y-16630000D01*
X19542295Y-16630000D01*
X19542295Y-16629998D01*
X19542100Y-16627513D01*
X19496281Y-16469801D01*
X19412685Y-16328447D01*
X19407900Y-16322278D01*
X19410366Y-16320364D01*
X19383802Y-16271776D01*
X19388749Y-16202082D01*
X19409856Y-16169232D01*
X19408301Y-16168026D01*
X19413077Y-16161868D01*
X19413081Y-16161865D01*
X19496744Y-16020398D01*
X19542598Y-15862569D01*
X19545500Y-15825694D01*
X19545500Y-15394306D01*
X19542598Y-15357431D01*
X19496744Y-15199602D01*
X19413081Y-15058135D01*
X19413078Y-15058132D01*
X19408298Y-15051969D01*
X19410635Y-15050155D01*
X19383798Y-15001050D01*
X19388756Y-14931356D01*
X19409554Y-14898998D01*
X19407903Y-14897717D01*
X19412686Y-14891550D01*
X19496281Y-14750198D01*
X19542100Y-14592486D01*
X19542295Y-14590001D01*
X19542295Y-14590000D01*
X18194000Y-14590000D01*
X18126961Y-14570315D01*
X18081206Y-14517511D01*
X18070000Y-14466000D01*
X18070000Y-14214000D01*
X18089685Y-14146961D01*
X18142489Y-14101206D01*
X18194000Y-14090000D01*
X19542295Y-14090000D01*
X19542295Y-14089998D01*
X19542100Y-14087513D01*
X19496281Y-13929801D01*
X19412685Y-13788447D01*
X19407900Y-13782278D01*
X19410366Y-13780364D01*
X19383802Y-13731776D01*
X19388749Y-13662082D01*
X19409856Y-13629232D01*
X19408301Y-13628026D01*
X19413077Y-13621868D01*
X19413081Y-13621865D01*
X19496744Y-13480398D01*
X19542598Y-13322569D01*
X19545500Y-13285694D01*
X19545500Y-12854306D01*
X19542598Y-12817431D01*
X19496744Y-12659602D01*
X19413081Y-12518135D01*
X19413079Y-12518133D01*
X19413076Y-12518129D01*
X19296870Y-12401923D01*
X19296862Y-12401917D01*
X19155396Y-12318255D01*
X19148235Y-12315156D01*
X19149265Y-12312775D01*
X19101000Y-12281936D01*
X19071809Y-12218456D01*
X19070500Y-12200488D01*
X19070500Y-10607841D01*
X19079444Y-10577379D01*
X19086746Y-10546481D01*
X19089217Y-10544095D01*
X19090185Y-10540802D01*
X19114167Y-10520020D01*
X19137025Y-10497965D01*
X19141404Y-10496420D01*
X19142989Y-10495047D01*
X19170306Y-10486224D01*
X19240235Y-10472315D01*
X19291836Y-10462051D01*
X19345165Y-10439961D01*
X19473914Y-10386632D01*
X19637782Y-10277139D01*
X19777139Y-10137782D01*
X19777139Y-10137780D01*
X19787347Y-10127573D01*
X19787348Y-10127570D01*
X22378102Y-7536819D01*
X22439425Y-7503334D01*
X22465783Y-7500500D01*
X26098542Y-7500500D01*
X26129566Y-7494328D01*
X26195188Y-7481275D01*
X26291836Y-7462051D01*
X26345165Y-7439961D01*
X26473914Y-7386632D01*
X26637782Y-7277139D01*
X26641253Y-7273667D01*
X26702568Y-7240177D01*
X26719206Y-7237723D01*
X26752569Y-7235098D01*
X26752571Y-7235097D01*
X26752573Y-7235097D01*
X26839909Y-7209723D01*
X26910398Y-7189244D01*
X27051865Y-7105581D01*
X27168081Y-6989365D01*
X27251744Y-6847898D01*
X27297598Y-6690069D01*
X27300500Y-6653194D01*
X27300500Y-6640433D01*
X27320185Y-6573394D01*
X27321398Y-6571542D01*
X27386627Y-6473920D01*
X27386627Y-6473919D01*
X27386631Y-6473914D01*
X27460939Y-6294519D01*
X27504780Y-6240117D01*
X27571074Y-6218052D01*
X27638774Y-6235331D01*
X27686384Y-6286469D01*
X27699500Y-6341973D01*
X27699500Y-6653201D01*
X27702401Y-6690067D01*
X27702402Y-6690073D01*
X27748254Y-6847893D01*
X27748255Y-6847896D01*
X27748256Y-6847898D01*
X27785681Y-6911181D01*
X27831917Y-6989362D01*
X27831923Y-6989370D01*
X27948129Y-7105576D01*
X27948133Y-7105579D01*
X27948135Y-7105581D01*
X28089602Y-7189244D01*
X28160096Y-7209724D01*
X28218980Y-7247329D01*
X28248187Y-7310801D01*
X28249500Y-7328800D01*
X28249500Y-8637770D01*
X28229815Y-8704809D01*
X28213181Y-8725451D01*
X27876251Y-9062381D01*
X27814928Y-9095866D01*
X27788570Y-9098700D01*
X25653530Y-9098700D01*
X25586491Y-9079015D01*
X25565849Y-9062381D01*
X25358021Y-8854552D01*
X25358014Y-8854546D01*
X25284329Y-8805312D01*
X25284329Y-8805313D01*
X25235091Y-8772413D01*
X25098517Y-8715843D01*
X25098507Y-8715840D01*
X24953520Y-8687000D01*
X24953518Y-8687000D01*
X24918034Y-8687000D01*
X24850995Y-8667315D01*
X24830885Y-8651109D01*
X24830387Y-8650716D01*
X24687295Y-8562455D01*
X24687289Y-8562452D01*
X24687287Y-8562451D01*
X24527685Y-8509564D01*
X24527683Y-8509563D01*
X24429181Y-8499500D01*
X24429174Y-8499500D01*
X23570826Y-8499500D01*
X23570818Y-8499500D01*
X23472316Y-8509563D01*
X23472315Y-8509564D01*
X23402209Y-8532795D01*
X23312715Y-8562450D01*
X23312704Y-8562455D01*
X23169612Y-8650716D01*
X23169608Y-8650719D01*
X23050719Y-8769608D01*
X23050716Y-8769612D01*
X22962455Y-8912704D01*
X22962450Y-8912715D01*
X22951665Y-8945263D01*
X22909564Y-9072315D01*
X22909564Y-9072316D01*
X22909563Y-9072316D01*
X22899500Y-9170818D01*
X22899500Y-9704181D01*
X22909563Y-9802683D01*
X22962450Y-9962284D01*
X22962455Y-9962295D01*
X23050716Y-10105387D01*
X23050719Y-10105391D01*
X23169608Y-10224280D01*
X23169612Y-10224283D01*
X23312704Y-10312544D01*
X23312707Y-10312545D01*
X23312713Y-10312549D01*
X23472315Y-10365436D01*
X23570826Y-10375500D01*
X23570831Y-10375500D01*
X23627850Y-10375500D01*
X23638661Y-10378674D01*
X23649863Y-10377470D01*
X23671585Y-10388342D01*
X23694889Y-10395185D01*
X23702265Y-10403698D01*
X23712343Y-10408742D01*
X23724740Y-10429634D01*
X23740644Y-10447989D01*
X23742247Y-10459140D01*
X23747997Y-10468830D01*
X23747131Y-10493104D01*
X23750588Y-10517147D01*
X23745907Y-10527395D01*
X23745506Y-10538655D01*
X23731653Y-10558607D01*
X23721563Y-10580703D01*
X23711049Y-10588284D01*
X23705659Y-10596049D01*
X23675308Y-10614058D01*
X23672889Y-10615060D01*
X23625436Y-10624500D01*
X23570818Y-10624500D01*
X23472316Y-10634563D01*
X23472315Y-10634564D01*
X23426641Y-10649699D01*
X23312715Y-10687450D01*
X23312704Y-10687455D01*
X23169612Y-10775716D01*
X23169608Y-10775719D01*
X23050719Y-10894608D01*
X23050716Y-10894612D01*
X22962455Y-11037704D01*
X22962450Y-11037715D01*
X22960956Y-11042225D01*
X22909564Y-11197315D01*
X22909564Y-11197316D01*
X22909563Y-11197316D01*
X22899500Y-11295818D01*
X22899500Y-11829181D01*
X22909563Y-11927683D01*
X22909564Y-11927684D01*
X22962450Y-12087285D01*
X22962453Y-12087291D01*
X22981038Y-12117421D01*
X22999500Y-12182519D01*
X22999500Y-14489744D01*
X23037947Y-14683029D01*
X23037950Y-14683039D01*
X23050468Y-14713259D01*
X23050469Y-14713261D01*
X23113369Y-14865117D01*
X23214511Y-15016486D01*
X23222861Y-15028982D01*
X23223173Y-15029294D01*
X23223285Y-15029499D01*
X23226726Y-15033692D01*
X23225931Y-15034344D01*
X23256663Y-15090612D01*
X23259500Y-15116983D01*
X23259500Y-16146237D01*
X23239815Y-16213276D01*
X23187011Y-16259031D01*
X23174507Y-16263942D01*
X23155667Y-16270185D01*
X23006342Y-16362289D01*
X22882289Y-16486342D01*
X22790187Y-16635663D01*
X22790185Y-16635668D01*
X22790115Y-16635880D01*
X22735001Y-16802203D01*
X22735001Y-16802204D01*
X22735000Y-16802204D01*
X22724500Y-16904983D01*
X22724500Y-19095001D01*
X22724501Y-19095018D01*
X22735000Y-19197796D01*
X22735001Y-19197799D01*
X22768290Y-19298256D01*
X22790186Y-19364334D01*
X22882288Y-19513656D01*
X23006344Y-19637712D01*
X23155666Y-19729814D01*
X23322203Y-19784999D01*
X23424991Y-19795500D01*
X25095008Y-19795499D01*
X25197797Y-19784999D01*
X25364334Y-19729814D01*
X25513656Y-19637712D01*
X25637712Y-19513656D01*
X25729814Y-19364334D01*
X25784999Y-19197797D01*
X25795500Y-19095009D01*
X25795500Y-19094986D01*
X28965001Y-19094986D01*
X28975494Y-19197697D01*
X29030641Y-19364119D01*
X29030643Y-19364124D01*
X29122684Y-19513345D01*
X29246654Y-19637315D01*
X29395875Y-19729356D01*
X29395880Y-19729358D01*
X29562302Y-19784505D01*
X29562309Y-19784506D01*
X29665019Y-19794999D01*
X30249999Y-19794999D01*
X30750000Y-19794999D01*
X31334972Y-19794999D01*
X31334986Y-19794998D01*
X31437697Y-19784505D01*
X31604119Y-19729358D01*
X31604124Y-19729356D01*
X31753345Y-19637315D01*
X31877315Y-19513345D01*
X31969356Y-19364124D01*
X31969358Y-19364119D01*
X32024505Y-19197697D01*
X32024506Y-19197690D01*
X32034999Y-19094986D01*
X32035000Y-19094973D01*
X32035000Y-18250000D01*
X30750000Y-18250000D01*
X30750000Y-19794999D01*
X30249999Y-19794999D01*
X30250000Y-19794998D01*
X30250000Y-18250000D01*
X28965001Y-18250000D01*
X28965001Y-19094986D01*
X25795500Y-19094986D01*
X25795499Y-17962052D01*
X25795499Y-16905013D01*
X28965000Y-16905013D01*
X28965000Y-17750000D01*
X30250000Y-17750000D01*
X30750000Y-17750000D01*
X32034999Y-17750000D01*
X32034999Y-16905028D01*
X32034998Y-16905013D01*
X32024505Y-16802302D01*
X31969358Y-16635880D01*
X31969356Y-16635875D01*
X31877315Y-16486654D01*
X31753345Y-16362684D01*
X31604124Y-16270643D01*
X31604119Y-16270641D01*
X31437697Y-16215494D01*
X31437690Y-16215493D01*
X31334986Y-16205000D01*
X30750000Y-16205000D01*
X30750000Y-17750000D01*
X30250000Y-17750000D01*
X30250000Y-16205000D01*
X29665028Y-16205000D01*
X29665012Y-16205001D01*
X29562302Y-16215494D01*
X29395880Y-16270641D01*
X29395875Y-16270643D01*
X29246654Y-16362684D01*
X29122684Y-16486654D01*
X29030643Y-16635875D01*
X29030641Y-16635880D01*
X28975494Y-16802302D01*
X28975493Y-16802309D01*
X28965000Y-16905013D01*
X25795499Y-16905013D01*
X25795499Y-16904998D01*
X25795498Y-16904981D01*
X25784999Y-16802203D01*
X25784998Y-16802200D01*
X25729814Y-16635666D01*
X25637712Y-16486344D01*
X25513656Y-16362288D01*
X25364334Y-16270186D01*
X25364333Y-16270185D01*
X25364332Y-16270185D01*
X25345493Y-16263942D01*
X25288049Y-16224168D01*
X25261228Y-16159651D01*
X25260500Y-16146237D01*
X25260500Y-15775700D01*
X25280185Y-15708661D01*
X25332989Y-15662906D01*
X25384500Y-15651700D01*
X26384843Y-15651700D01*
X26418245Y-15645055D01*
X26496447Y-15629500D01*
X26578136Y-15613251D01*
X26641226Y-15587118D01*
X26760214Y-15537832D01*
X26924082Y-15428339D01*
X27063439Y-15288982D01*
X27063439Y-15288980D01*
X27073647Y-15278773D01*
X27073648Y-15278770D01*
X29849820Y-12502599D01*
X29911141Y-12469116D01*
X29980833Y-12474100D01*
X30025180Y-12502601D01*
X33790115Y-16267537D01*
X33790119Y-16267540D01*
X33953979Y-16377028D01*
X33953985Y-16377031D01*
X33953986Y-16377032D01*
X34136065Y-16452452D01*
X34306451Y-16486344D01*
X34329355Y-16490900D01*
X34329358Y-16490901D01*
X34329360Y-16490901D01*
X34532555Y-16490901D01*
X34532575Y-16490900D01*
X35901459Y-16490900D01*
X36513000Y-16490900D01*
X36580039Y-16510585D01*
X36625794Y-16563389D01*
X36637000Y-16614900D01*
X36637000Y-18128741D01*
X36617315Y-18195780D01*
X36564511Y-18241535D01*
X36495353Y-18251479D01*
X36444109Y-18231843D01*
X36366385Y-18179909D01*
X36366372Y-18179902D01*
X36220701Y-18119564D01*
X36220689Y-18119561D01*
X36066045Y-18088800D01*
X36066042Y-18088800D01*
X35908358Y-18088800D01*
X35908355Y-18088800D01*
X35753710Y-18119561D01*
X35753698Y-18119564D01*
X35608027Y-18179902D01*
X35608014Y-18179909D01*
X35476911Y-18267510D01*
X35476907Y-18267513D01*
X35365413Y-18379007D01*
X35365407Y-18379015D01*
X35277807Y-18510118D01*
X35277806Y-18510119D01*
X35268005Y-18533780D01*
X35241127Y-18574003D01*
X34779550Y-19035581D01*
X34779549Y-19035582D01*
X34779548Y-19035584D01*
X34731020Y-19108213D01*
X34697416Y-19158505D01*
X34667011Y-19231906D01*
X34664424Y-19236846D01*
X34643866Y-19258123D01*
X34625303Y-19281159D01*
X34618459Y-19284421D01*
X34615876Y-19287095D01*
X34609892Y-19288504D01*
X34596623Y-19294829D01*
X34596765Y-19295156D01*
X34589603Y-19298255D01*
X34448137Y-19381917D01*
X34448129Y-19381923D01*
X34331923Y-19498129D01*
X34331917Y-19498137D01*
X34248255Y-19639603D01*
X34248254Y-19639606D01*
X34202402Y-19797426D01*
X34202401Y-19797432D01*
X34199500Y-19834298D01*
X34199500Y-20265701D01*
X34202401Y-20302567D01*
X34202402Y-20302573D01*
X34248254Y-20460393D01*
X34248256Y-20460399D01*
X34249426Y-20462377D01*
X34249869Y-20464126D01*
X34251353Y-20467554D01*
X34250799Y-20467793D01*
X34266603Y-20530102D01*
X34251249Y-20582395D01*
X34251817Y-20582641D01*
X34249827Y-20587239D01*
X34249428Y-20588599D01*
X34248722Y-20589791D01*
X34248716Y-20589806D01*
X34202900Y-20747505D01*
X34202899Y-20747511D01*
X34202704Y-20749998D01*
X34202705Y-20750000D01*
X34468185Y-20750000D01*
X34531306Y-20767268D01*
X34589602Y-20801744D01*
X34631224Y-20813836D01*
X34747426Y-20847597D01*
X34747429Y-20847597D01*
X34747431Y-20847598D01*
X34784306Y-20850500D01*
X34784314Y-20850500D01*
X35940686Y-20850500D01*
X35940694Y-20850500D01*
X35977569Y-20847598D01*
X35977571Y-20847597D01*
X35977573Y-20847597D01*
X36019191Y-20835505D01*
X36135398Y-20801744D01*
X36193694Y-20767268D01*
X36256815Y-20750000D01*
X36522294Y-20750000D01*
X36546557Y-20723752D01*
X36606518Y-20687885D01*
X36676352Y-20690129D01*
X36716012Y-20714530D01*
X36716969Y-20713298D01*
X36723132Y-20718078D01*
X36723135Y-20718081D01*
X36864602Y-20801744D01*
X37018042Y-20846322D01*
X37019594Y-20847045D01*
X37020495Y-20847062D01*
X37052331Y-20862294D01*
X37095466Y-20891116D01*
X37142283Y-20922398D01*
X37187088Y-20976010D01*
X37195795Y-21045335D01*
X37165640Y-21108363D01*
X37106197Y-21145082D01*
X37073392Y-21149500D01*
X37059298Y-21149500D01*
X37022432Y-21152401D01*
X37022426Y-21152402D01*
X36864606Y-21198254D01*
X36864603Y-21198255D01*
X36723137Y-21281917D01*
X36716969Y-21286702D01*
X36715664Y-21285019D01*
X36663954Y-21313246D01*
X36594263Y-21308251D01*
X36546558Y-21276247D01*
X36522296Y-21250000D01*
X36256815Y-21250000D01*
X36193694Y-21232732D01*
X36188762Y-21229815D01*
X36135398Y-21198256D01*
X36135397Y-21198255D01*
X36135396Y-21198255D01*
X36135393Y-21198254D01*
X35977573Y-21152402D01*
X35977567Y-21152401D01*
X35940701Y-21149500D01*
X35940694Y-21149500D01*
X34784306Y-21149500D01*
X34784298Y-21149500D01*
X34747432Y-21152401D01*
X34747426Y-21152402D01*
X34589606Y-21198254D01*
X34589603Y-21198255D01*
X34531306Y-21232732D01*
X34468185Y-21250000D01*
X34202705Y-21250000D01*
X34202704Y-21250001D01*
X34202899Y-21252488D01*
X34202900Y-21252494D01*
X34248716Y-21410193D01*
X34248720Y-21410203D01*
X34249427Y-21411398D01*
X34249695Y-21412454D01*
X34251816Y-21417356D01*
X34251024Y-21417698D01*
X34266603Y-21479123D01*
X34250993Y-21532284D01*
X34251355Y-21532441D01*
X34250087Y-21535369D01*
X34249427Y-21537620D01*
X34248259Y-21539594D01*
X34248254Y-21539607D01*
X34202402Y-21697426D01*
X34202401Y-21697432D01*
X34199500Y-21734298D01*
X34199500Y-22165701D01*
X34202401Y-22202567D01*
X34202402Y-22202573D01*
X34248254Y-22360393D01*
X34248255Y-22360396D01*
X34331917Y-22501862D01*
X34331923Y-22501870D01*
X34448129Y-22618076D01*
X34448133Y-22618079D01*
X34448135Y-22618081D01*
X34589602Y-22701744D01*
X34631224Y-22713836D01*
X34747426Y-22747597D01*
X34747429Y-22747597D01*
X34747431Y-22747598D01*
X34784306Y-22750500D01*
X35050270Y-22750500D01*
X35117309Y-22770185D01*
X35137951Y-22786819D01*
X35900180Y-23549048D01*
X35900184Y-23549051D01*
X36023098Y-23631180D01*
X36023111Y-23631187D01*
X36130069Y-23675490D01*
X36159687Y-23687758D01*
X36159691Y-23687758D01*
X36159692Y-23687759D01*
X36304679Y-23716600D01*
X36304682Y-23716600D01*
X36452517Y-23716600D01*
X37808196Y-23716600D01*
X37855644Y-23726037D01*
X37879303Y-23735837D01*
X37879308Y-23735838D01*
X37879311Y-23735839D01*
X38033953Y-23766599D01*
X38033956Y-23766600D01*
X38033958Y-23766600D01*
X38191644Y-23766600D01*
X38191645Y-23766599D01*
X38346297Y-23735837D01*
X38491979Y-23675494D01*
X38623089Y-23587889D01*
X38734589Y-23476389D01*
X38822194Y-23345279D01*
X38882537Y-23199597D01*
X38913300Y-23044942D01*
X38913300Y-22887258D01*
X38913300Y-22887255D01*
X38913299Y-22887253D01*
X38902607Y-22833503D01*
X38882537Y-22732603D01*
X38866886Y-22694818D01*
X38822197Y-22586927D01*
X38822190Y-22586914D01*
X38757097Y-22489496D01*
X38736219Y-22422819D01*
X38750589Y-22368398D01*
X38748646Y-22367557D01*
X38751739Y-22360405D01*
X38751744Y-22360398D01*
X38797598Y-22202569D01*
X38800500Y-22165694D01*
X38800500Y-21899730D01*
X38820185Y-21832691D01*
X38836819Y-21812049D01*
X39320319Y-21328549D01*
X39381642Y-21295064D01*
X39451334Y-21300048D01*
X39507267Y-21341920D01*
X39531684Y-21407384D01*
X39532000Y-21416230D01*
X39532000Y-24566348D01*
X39512315Y-24633387D01*
X39495681Y-24654029D01*
X37381528Y-26768181D01*
X37320205Y-26801666D01*
X37293847Y-26804500D01*
X36844998Y-26804500D01*
X36844980Y-26804501D01*
X36742203Y-26815000D01*
X36742200Y-26815001D01*
X36575668Y-26870185D01*
X36575663Y-26870187D01*
X36426342Y-26962289D01*
X36302289Y-27086342D01*
X36210187Y-27235663D01*
X36210185Y-27235668D01*
X36197155Y-27274991D01*
X36155001Y-27402203D01*
X36155001Y-27402204D01*
X36155000Y-27402204D01*
X36144500Y-27504983D01*
X36144500Y-28495001D01*
X36144501Y-28495019D01*
X36155000Y-28597796D01*
X36155001Y-28597799D01*
X36192243Y-28710185D01*
X36210186Y-28764334D01*
X36302096Y-28913345D01*
X36302289Y-28913657D01*
X36326451Y-28937819D01*
X36359936Y-28999142D01*
X36354952Y-29068834D01*
X36313080Y-29124767D01*
X36247616Y-29149184D01*
X36238770Y-29149500D01*
X35760523Y-29149500D01*
X35693484Y-29129815D01*
X35647729Y-29077011D01*
X35637785Y-29007853D01*
X35666810Y-28944297D01*
X35672842Y-28937819D01*
X35697315Y-28913345D01*
X35789356Y-28764124D01*
X35789358Y-28764119D01*
X35844505Y-28597697D01*
X35844506Y-28597690D01*
X35854999Y-28494986D01*
X35855000Y-28494973D01*
X35855000Y-28250000D01*
X33440001Y-28250000D01*
X33440001Y-28494986D01*
X33450494Y-28597697D01*
X33505641Y-28764119D01*
X33505643Y-28764124D01*
X33597684Y-28913345D01*
X33622158Y-28937819D01*
X33655643Y-28999142D01*
X33650659Y-29068834D01*
X33608787Y-29124767D01*
X33543323Y-29149184D01*
X33534477Y-29149500D01*
X31903650Y-29149500D01*
X31836611Y-29129815D01*
X31815969Y-29113181D01*
X30292334Y-27589545D01*
X30207802Y-27505013D01*
X33440000Y-27505013D01*
X33440000Y-27750000D01*
X34397500Y-27750000D01*
X34897500Y-27750000D01*
X35854999Y-27750000D01*
X35854999Y-27505028D01*
X35854998Y-27505013D01*
X35844505Y-27402302D01*
X35789358Y-27235880D01*
X35789356Y-27235875D01*
X35697315Y-27086654D01*
X35573345Y-26962684D01*
X35424124Y-26870643D01*
X35424119Y-26870641D01*
X35257697Y-26815494D01*
X35257690Y-26815493D01*
X35154986Y-26805000D01*
X34897500Y-26805000D01*
X34897500Y-27750000D01*
X34397500Y-27750000D01*
X34397500Y-26805000D01*
X34140029Y-26805000D01*
X34140012Y-26805001D01*
X34037302Y-26815494D01*
X33870880Y-26870641D01*
X33870875Y-26870643D01*
X33721654Y-26962684D01*
X33597684Y-27086654D01*
X33505643Y-27235875D01*
X33505641Y-27235880D01*
X33450494Y-27402302D01*
X33450493Y-27402309D01*
X33440000Y-27505013D01*
X30207802Y-27505013D01*
X29632010Y-26929221D01*
X29614152Y-26906636D01*
X29567712Y-26831344D01*
X29443657Y-26707289D01*
X29443656Y-26707288D01*
X29294334Y-26615186D01*
X29127797Y-26560001D01*
X29127795Y-26560000D01*
X29025010Y-26549500D01*
X27974998Y-26549500D01*
X27974980Y-26549501D01*
X27872203Y-26560000D01*
X27872200Y-26560001D01*
X27705668Y-26615185D01*
X27705663Y-26615187D01*
X27556342Y-26707289D01*
X27432289Y-26831342D01*
X27340187Y-26980663D01*
X27340185Y-26980668D01*
X27327967Y-27017539D01*
X27285001Y-27147203D01*
X27285001Y-27147204D01*
X27285000Y-27147204D01*
X27274500Y-27249983D01*
X27274500Y-27850001D01*
X27274501Y-27850019D01*
X27285000Y-27952796D01*
X27285001Y-27952799D01*
X27340185Y-28119331D01*
X27340187Y-28119336D01*
X27351565Y-28137782D01*
X27432288Y-28268656D01*
X27556344Y-28392712D01*
X27559628Y-28394737D01*
X27559653Y-28394753D01*
X27561445Y-28396746D01*
X27562011Y-28397193D01*
X27561934Y-28397289D01*
X27606379Y-28446699D01*
X27617603Y-28515661D01*
X27589761Y-28579744D01*
X27559665Y-28605826D01*
X27556660Y-28607679D01*
X27556655Y-28607683D01*
X27432684Y-28731654D01*
X27340643Y-28880875D01*
X27340641Y-28880880D01*
X27285494Y-29047302D01*
X27285493Y-29047309D01*
X27275000Y-29150013D01*
X27275000Y-29200000D01*
X28376000Y-29200000D01*
X28443039Y-29219685D01*
X28488794Y-29272489D01*
X28500000Y-29324000D01*
X28500000Y-29450000D01*
X28626000Y-29450000D01*
X28693039Y-29469685D01*
X28738794Y-29522489D01*
X28750000Y-29574000D01*
X28750000Y-30449999D01*
X29024972Y-30449999D01*
X29024986Y-30449998D01*
X29127697Y-30439505D01*
X29294119Y-30384358D01*
X29294124Y-30384356D01*
X29443345Y-30292315D01*
X29567315Y-30168345D01*
X29659356Y-30019124D01*
X29659358Y-30019119D01*
X29714505Y-29852697D01*
X29714506Y-29852690D01*
X29724999Y-29749986D01*
X29724999Y-29727155D01*
X29744681Y-29660115D01*
X29797483Y-29614358D01*
X29866641Y-29604411D01*
X29930198Y-29633434D01*
X29936680Y-29639469D01*
X30957831Y-30660620D01*
X30957834Y-30660622D01*
X30957838Y-30660626D01*
X31097137Y-30753704D01*
X31097140Y-30753705D01*
X31097143Y-30753707D01*
X31157379Y-30778657D01*
X31251918Y-30817816D01*
X31251920Y-30817816D01*
X31251925Y-30817818D01*
X31416228Y-30850499D01*
X31416232Y-30850500D01*
X31416233Y-30850500D01*
X37583768Y-30850500D01*
X37583769Y-30850499D01*
X37748082Y-30817816D01*
X37902863Y-30753703D01*
X38042162Y-30660626D01*
X38160626Y-30542162D01*
X38253703Y-30402863D01*
X38317816Y-30248082D01*
X38350500Y-30083767D01*
X38350500Y-29017230D01*
X38370185Y-28950191D01*
X38386819Y-28929549D01*
X38393286Y-28923082D01*
X38402712Y-28913656D01*
X38494814Y-28764334D01*
X38549999Y-28597797D01*
X38560500Y-28495009D01*
X38560499Y-28046149D01*
X38580183Y-27979111D01*
X38596813Y-27958474D01*
X40294818Y-26260468D01*
X40356141Y-26226984D01*
X40425833Y-26231968D01*
X40470180Y-26260469D01*
X42263181Y-28053470D01*
X42296666Y-28114793D01*
X42299500Y-28141151D01*
X42299500Y-28400000D01*
X42299501Y-28400019D01*
X42310000Y-28502796D01*
X42310001Y-28502799D01*
X42365185Y-28669331D01*
X42365187Y-28669336D01*
X42384100Y-28699999D01*
X42447192Y-28802288D01*
X42457289Y-28818657D01*
X42550951Y-28912319D01*
X42584436Y-28973642D01*
X42579452Y-29043334D01*
X42550951Y-29087681D01*
X42457289Y-29181342D01*
X42365187Y-29330663D01*
X42365186Y-29330666D01*
X42310001Y-29497203D01*
X42310001Y-29497204D01*
X42310000Y-29497204D01*
X42299500Y-29599983D01*
X42299500Y-30225001D01*
X42299501Y-30225019D01*
X42310000Y-30327796D01*
X42310001Y-30327799D01*
X42365185Y-30494331D01*
X42365187Y-30494336D01*
X42367821Y-30498606D01*
X42457288Y-30643656D01*
X42581344Y-30767712D01*
X42730666Y-30859814D01*
X42897203Y-30914999D01*
X42999991Y-30925500D01*
X44000008Y-30925499D01*
X44000016Y-30925498D01*
X44000019Y-30925498D01*
X44056302Y-30919748D01*
X44102797Y-30914999D01*
X44269334Y-30859814D01*
X44418656Y-30767712D01*
X44499549Y-30686819D01*
X44560872Y-30653334D01*
X44587230Y-30650500D01*
X48412770Y-30650500D01*
X48479809Y-30670185D01*
X48500451Y-30686819D01*
X48556344Y-30742712D01*
X48705666Y-30834814D01*
X48872203Y-30889999D01*
X48974991Y-30900500D01*
X50025008Y-30900499D01*
X50025016Y-30900498D01*
X50025019Y-30900498D01*
X50081302Y-30894748D01*
X50127797Y-30889999D01*
X50294334Y-30834814D01*
X50443656Y-30742712D01*
X50499549Y-30686819D01*
X50560872Y-30653334D01*
X50587230Y-30650500D01*
X53814034Y-30650500D01*
X53881073Y-30670185D01*
X53919571Y-30709401D01*
X53962288Y-30778656D01*
X54086344Y-30902712D01*
X54235666Y-30994814D01*
X54402203Y-31049999D01*
X54504991Y-31060500D01*
X55495008Y-31060499D01*
X55495016Y-31060498D01*
X55495019Y-31060498D01*
X55551302Y-31054748D01*
X55597797Y-31049999D01*
X55764334Y-30994814D01*
X55913656Y-30902712D01*
X56037712Y-30778656D01*
X56129814Y-30629334D01*
X56184999Y-30462797D01*
X56195500Y-30360009D01*
X56195499Y-29344992D01*
X56193742Y-29327796D01*
X56184999Y-29242203D01*
X56184998Y-29242200D01*
X56164832Y-29181344D01*
X56129814Y-29075666D01*
X56037712Y-28926344D01*
X55913656Y-28802288D01*
X55764334Y-28710186D01*
X55597797Y-28655001D01*
X55597795Y-28655000D01*
X55495010Y-28644500D01*
X54504998Y-28644500D01*
X54504980Y-28644501D01*
X54402203Y-28655000D01*
X54402200Y-28655001D01*
X54235668Y-28710185D01*
X54235663Y-28710187D01*
X54086342Y-28802289D01*
X53962289Y-28926342D01*
X53870182Y-29075671D01*
X53869142Y-29077904D01*
X53868020Y-29079178D01*
X53866395Y-29081813D01*
X53865944Y-29081535D01*
X53822970Y-29130344D01*
X53756760Y-29149500D01*
X50587230Y-29149500D01*
X50559963Y-29141493D01*
X50531984Y-29136513D01*
X50524384Y-29131046D01*
X50520191Y-29129815D01*
X50502946Y-29116452D01*
X50501227Y-29114859D01*
X50443656Y-29057288D01*
X50430036Y-29048887D01*
X50421156Y-29040658D01*
X50409212Y-29020635D01*
X50393618Y-29003297D01*
X50391647Y-28991186D01*
X50385364Y-28980652D01*
X50386141Y-28957349D01*
X50382397Y-28934334D01*
X50387285Y-28923082D01*
X50387695Y-28910821D01*
X50400948Y-28891637D01*
X50410240Y-28870252D01*
X50423898Y-28858418D01*
X50427409Y-28853336D01*
X50431947Y-28851443D01*
X50440348Y-28844165D01*
X50443342Y-28842318D01*
X50567315Y-28718345D01*
X50640322Y-28599983D01*
X58799500Y-28599983D01*
X58799500Y-29225001D01*
X58799501Y-29225019D01*
X58810000Y-29327796D01*
X58810001Y-29327799D01*
X58865185Y-29494331D01*
X58865187Y-29494336D01*
X58866956Y-29497204D01*
X58957288Y-29643656D01*
X59081344Y-29767712D01*
X59230666Y-29859814D01*
X59397203Y-29914999D01*
X59499991Y-29925500D01*
X60500008Y-29925499D01*
X60500016Y-29925498D01*
X60500019Y-29925498D01*
X60609532Y-29914311D01*
X60609567Y-29914660D01*
X60625258Y-29913000D01*
X64786042Y-29913000D01*
X64817066Y-29906828D01*
X64882688Y-29893775D01*
X64979336Y-29874551D01*
X65032665Y-29852461D01*
X65161414Y-29799132D01*
X65202921Y-29771398D01*
X65269599Y-29750520D01*
X65271812Y-29750500D01*
X66450003Y-29750500D01*
X66450008Y-29750500D01*
X66552797Y-29739999D01*
X66719334Y-29684814D01*
X66868655Y-29592711D01*
X66992711Y-29468655D01*
X67084814Y-29319334D01*
X67139999Y-29152797D01*
X67150500Y-29050008D01*
X67150500Y-27149992D01*
X67139999Y-27047203D01*
X67084814Y-26880666D01*
X67078630Y-26870641D01*
X66992713Y-26731348D01*
X66992710Y-26731344D01*
X66868655Y-26607289D01*
X66868651Y-26607286D01*
X66719337Y-26515187D01*
X66719335Y-26515186D01*
X66636065Y-26487593D01*
X66552797Y-26460001D01*
X66552795Y-26460000D01*
X66450015Y-26449500D01*
X66450008Y-26449500D01*
X64549992Y-26449500D01*
X64549984Y-26449500D01*
X64447204Y-26460000D01*
X64447203Y-26460001D01*
X64280664Y-26515186D01*
X64280662Y-26515187D01*
X64131348Y-26607286D01*
X64131344Y-26607289D01*
X64007289Y-26731344D01*
X64007286Y-26731348D01*
X63915187Y-26880662D01*
X63915186Y-26880664D01*
X63860001Y-27047203D01*
X63860000Y-27047204D01*
X63849500Y-27149984D01*
X63849500Y-27788000D01*
X63829815Y-27855039D01*
X63777011Y-27900794D01*
X63725500Y-27912000D01*
X61206724Y-27912000D01*
X61139685Y-27892315D01*
X61093930Y-27839511D01*
X61083986Y-27770353D01*
X61101185Y-27722903D01*
X61134356Y-27669124D01*
X61134358Y-27669119D01*
X61189505Y-27502697D01*
X61189506Y-27502690D01*
X61199999Y-27399986D01*
X61200000Y-27399973D01*
X61200000Y-27337500D01*
X58800001Y-27337500D01*
X58800001Y-27399986D01*
X58810494Y-27502697D01*
X58865641Y-27669119D01*
X58865643Y-27669124D01*
X58957684Y-27818345D01*
X59051304Y-27911965D01*
X59084789Y-27973288D01*
X59079805Y-28042980D01*
X59051305Y-28087327D01*
X58957287Y-28181345D01*
X58865187Y-28330663D01*
X58865186Y-28330666D01*
X58810001Y-28497203D01*
X58810001Y-28497204D01*
X58810000Y-28497204D01*
X58799500Y-28599983D01*
X50640322Y-28599983D01*
X50659356Y-28569124D01*
X50659358Y-28569119D01*
X50714505Y-28402697D01*
X50714506Y-28402690D01*
X50724999Y-28299986D01*
X50725000Y-28299973D01*
X50725000Y-28250000D01*
X48275001Y-28250000D01*
X48275001Y-28299986D01*
X48285494Y-28402697D01*
X48340641Y-28569119D01*
X48340643Y-28569124D01*
X48432684Y-28718345D01*
X48556655Y-28842316D01*
X48556659Y-28842319D01*
X48559656Y-28844168D01*
X48561279Y-28845972D01*
X48562323Y-28846798D01*
X48562181Y-28846976D01*
X48606381Y-28896116D01*
X48617602Y-28965079D01*
X48589759Y-29029161D01*
X48578844Y-29040657D01*
X48569960Y-29048889D01*
X48556344Y-29057288D01*
X48498774Y-29114857D01*
X48497055Y-29116451D01*
X48467792Y-29131013D01*
X48439128Y-29146666D01*
X48435573Y-29147048D01*
X48434503Y-29147581D01*
X48432581Y-29147369D01*
X48412770Y-29149500D01*
X45658845Y-29149500D01*
X45591806Y-29129815D01*
X45546051Y-29077011D01*
X45536107Y-29007853D01*
X45540183Y-28989510D01*
X45541759Y-28984312D01*
X45564447Y-28870252D01*
X45570600Y-28839317D01*
X45570600Y-28691482D01*
X45570600Y-27700013D01*
X48275000Y-27700013D01*
X48275000Y-27750000D01*
X49250000Y-27750000D01*
X49750000Y-27750000D01*
X50724999Y-27750000D01*
X50724999Y-27700028D01*
X50724998Y-27700013D01*
X50720398Y-27654986D01*
X53805001Y-27654986D01*
X53815494Y-27757697D01*
X53870641Y-27924119D01*
X53870643Y-27924124D01*
X53962684Y-28073345D01*
X54086654Y-28197315D01*
X54235875Y-28289356D01*
X54235880Y-28289358D01*
X54402302Y-28344505D01*
X54402309Y-28344506D01*
X54505019Y-28354999D01*
X54749999Y-28354999D01*
X55250000Y-28354999D01*
X55494972Y-28354999D01*
X55494986Y-28354998D01*
X55597697Y-28344505D01*
X55764119Y-28289358D01*
X55764124Y-28289356D01*
X55913345Y-28197315D01*
X56037315Y-28073345D01*
X56129356Y-27924124D01*
X56129358Y-27924119D01*
X56184505Y-27757697D01*
X56184506Y-27757690D01*
X56194999Y-27654986D01*
X56195000Y-27654973D01*
X56195000Y-27397500D01*
X55250000Y-27397500D01*
X55250000Y-28354999D01*
X54749999Y-28354999D01*
X54750000Y-28354998D01*
X54750000Y-27397500D01*
X53805001Y-27397500D01*
X53805001Y-27654986D01*
X50720398Y-27654986D01*
X50714505Y-27597302D01*
X50659358Y-27430880D01*
X50659353Y-27430871D01*
X50647242Y-27411234D01*
X50647241Y-27411232D01*
X50567319Y-27281659D01*
X50567316Y-27281655D01*
X50443345Y-27157684D01*
X50294124Y-27065643D01*
X50294119Y-27065641D01*
X50127697Y-27010494D01*
X50127690Y-27010493D01*
X50024986Y-27000000D01*
X49750000Y-27000000D01*
X49750000Y-27750000D01*
X49250000Y-27750000D01*
X49250000Y-27000000D01*
X48975029Y-27000000D01*
X48975012Y-27000001D01*
X48872302Y-27010494D01*
X48705880Y-27065641D01*
X48705875Y-27065643D01*
X48556654Y-27157684D01*
X48432684Y-27281654D01*
X48340643Y-27430875D01*
X48340641Y-27430880D01*
X48285494Y-27597302D01*
X48285493Y-27597309D01*
X48275000Y-27700013D01*
X45570600Y-27700013D01*
X45570600Y-24571182D01*
X45570600Y-24571179D01*
X45541759Y-24426192D01*
X45541758Y-24426191D01*
X45541758Y-24426187D01*
X45534924Y-24409688D01*
X45485187Y-24289611D01*
X45485180Y-24289598D01*
X45403052Y-24166685D01*
X45375499Y-24139132D01*
X45298516Y-24062149D01*
X44935867Y-23699500D01*
X44902382Y-23638177D01*
X44907366Y-23568485D01*
X44949238Y-23512552D01*
X44960419Y-23505091D01*
X45001865Y-23480581D01*
X45118081Y-23364365D01*
X45201744Y-23222898D01*
X45247598Y-23065069D01*
X45250223Y-23031711D01*
X45275106Y-22966424D01*
X45286153Y-22953766D01*
X45703101Y-22536819D01*
X45764424Y-22503334D01*
X45790782Y-22500500D01*
X47401776Y-22500500D01*
X47433246Y-22509740D01*
X47465050Y-22517858D01*
X47466615Y-22519539D01*
X47468815Y-22520185D01*
X47490288Y-22544967D01*
X47512660Y-22568996D01*
X47513067Y-22571255D01*
X47514570Y-22572989D01*
X47519238Y-22605454D01*
X47525066Y-22637755D01*
X47524308Y-22640720D01*
X47524514Y-22642147D01*
X47516338Y-22671949D01*
X47504512Y-22700500D01*
X47495702Y-22721769D01*
X47483243Y-22751848D01*
X47475449Y-22770663D01*
X47475447Y-22770671D01*
X47437000Y-22963954D01*
X47437000Y-22963959D01*
X47437000Y-25098541D01*
X47437000Y-25098543D01*
X47436999Y-25098543D01*
X47475447Y-25291829D01*
X47475449Y-25291835D01*
X47490061Y-25327111D01*
X47499500Y-25374564D01*
X47499500Y-25429181D01*
X47509563Y-25527683D01*
X47562450Y-25687284D01*
X47562455Y-25687295D01*
X47650716Y-25830387D01*
X47650719Y-25830391D01*
X47769608Y-25949280D01*
X47769612Y-25949283D01*
X47912704Y-26037544D01*
X47912707Y-26037545D01*
X47912713Y-26037549D01*
X48072315Y-26090436D01*
X48170826Y-26100500D01*
X48170831Y-26100500D01*
X48704169Y-26100500D01*
X48704174Y-26100500D01*
X48802685Y-26090436D01*
X48962287Y-26037549D01*
X49105391Y-25949281D01*
X49224281Y-25830391D01*
X49312549Y-25687287D01*
X49365436Y-25527685D01*
X49375500Y-25429174D01*
X49375500Y-25374564D01*
X49377124Y-25366394D01*
X49376209Y-25361323D01*
X49384931Y-25327128D01*
X49385935Y-25324706D01*
X49429768Y-25270301D01*
X49496060Y-25248229D01*
X49563761Y-25265500D01*
X49611378Y-25316632D01*
X49624500Y-25372149D01*
X49624500Y-25429181D01*
X49634563Y-25527683D01*
X49687450Y-25687284D01*
X49687455Y-25687295D01*
X49775716Y-25830387D01*
X49775719Y-25830391D01*
X49894608Y-25949280D01*
X49894612Y-25949283D01*
X50037704Y-26037544D01*
X50037707Y-26037545D01*
X50037713Y-26037549D01*
X50197315Y-26090436D01*
X50295826Y-26100500D01*
X50295831Y-26100500D01*
X50829169Y-26100500D01*
X50829174Y-26100500D01*
X50927685Y-26090436D01*
X51087287Y-26037549D01*
X51230391Y-25949281D01*
X51332553Y-25847119D01*
X51393876Y-25813634D01*
X51420234Y-25810800D01*
X53707896Y-25810800D01*
X53755344Y-25820237D01*
X53779003Y-25830037D01*
X53779008Y-25830038D01*
X53779011Y-25830039D01*
X53933653Y-25860799D01*
X53933656Y-25860800D01*
X54033466Y-25860800D01*
X54100505Y-25880485D01*
X54146260Y-25933289D01*
X54156204Y-26002447D01*
X54127179Y-26066003D01*
X54098564Y-26090338D01*
X54086656Y-26097682D01*
X53962684Y-26221654D01*
X53870643Y-26370875D01*
X53870641Y-26370880D01*
X53815494Y-26537302D01*
X53815493Y-26537309D01*
X53805000Y-26640013D01*
X53805000Y-26897500D01*
X54750000Y-26897500D01*
X55250000Y-26897500D01*
X56194999Y-26897500D01*
X56194999Y-26775013D01*
X58800000Y-26775013D01*
X58800000Y-26837500D01*
X59750000Y-26837500D01*
X60250000Y-26837500D01*
X61199999Y-26837500D01*
X61199999Y-26775028D01*
X61199998Y-26775013D01*
X61189505Y-26672302D01*
X61134358Y-26505880D01*
X61134356Y-26505875D01*
X61042315Y-26356654D01*
X60918345Y-26232684D01*
X60769124Y-26140643D01*
X60769119Y-26140641D01*
X60602697Y-26085494D01*
X60602690Y-26085493D01*
X60499986Y-26075000D01*
X60250000Y-26075000D01*
X60250000Y-26837500D01*
X59750000Y-26837500D01*
X59750000Y-26075000D01*
X59500029Y-26075000D01*
X59500012Y-26075001D01*
X59397302Y-26085494D01*
X59230880Y-26140641D01*
X59230875Y-26140643D01*
X59081654Y-26232684D01*
X58957684Y-26356654D01*
X58865643Y-26505875D01*
X58865641Y-26505880D01*
X58810494Y-26672302D01*
X58810493Y-26672309D01*
X58800000Y-26775013D01*
X56194999Y-26775013D01*
X56194999Y-26640028D01*
X56194998Y-26640013D01*
X56184505Y-26537302D01*
X56129358Y-26370880D01*
X56129356Y-26370875D01*
X56037315Y-26221654D01*
X55913345Y-26097684D01*
X55764124Y-26005643D01*
X55764119Y-26005641D01*
X55597697Y-25950494D01*
X55597690Y-25950493D01*
X55494986Y-25940000D01*
X55250000Y-25940000D01*
X55250000Y-26897500D01*
X54750000Y-26897500D01*
X54750000Y-25940000D01*
X54545570Y-25940000D01*
X54478531Y-25920315D01*
X54432776Y-25867511D01*
X54422832Y-25798353D01*
X54451857Y-25734797D01*
X54476679Y-25712898D01*
X54522789Y-25682089D01*
X54634289Y-25570589D01*
X54721894Y-25439479D01*
X54726163Y-25429174D01*
X54749783Y-25372149D01*
X54782237Y-25293797D01*
X54813000Y-25139142D01*
X54813000Y-24981458D01*
X54813000Y-24981455D01*
X54812999Y-24981453D01*
X54807202Y-24952309D01*
X54782237Y-24826803D01*
X54766507Y-24788827D01*
X54721897Y-24681127D01*
X54721893Y-24681120D01*
X54703792Y-24654030D01*
X54634289Y-24550011D01*
X54621524Y-24537246D01*
X54615384Y-24528534D01*
X54607415Y-24505141D01*
X54595575Y-24483458D01*
X54596347Y-24472652D01*
X54592854Y-24462397D01*
X54598796Y-24438412D01*
X54600559Y-24413766D01*
X54607051Y-24405092D01*
X54609657Y-24394578D01*
X54627623Y-24377613D01*
X54642431Y-24357833D01*
X54652580Y-24354047D01*
X54660458Y-24346609D01*
X54684745Y-24342050D01*
X54707895Y-24333416D01*
X54716741Y-24333100D01*
X61595543Y-24333100D01*
X61747817Y-24302810D01*
X61788835Y-24294651D01*
X61970914Y-24219232D01*
X62134782Y-24109739D01*
X62274139Y-23970382D01*
X62383632Y-23806514D01*
X62459051Y-23624435D01*
X62474047Y-23549048D01*
X62497500Y-23431143D01*
X62497500Y-23234057D01*
X62488629Y-23189463D01*
X62488629Y-23189461D01*
X62484786Y-23170142D01*
X63850000Y-23170142D01*
X63850000Y-23429857D01*
X63890629Y-23686377D01*
X63970883Y-23933377D01*
X64088796Y-24164791D01*
X64169951Y-24276492D01*
X64169952Y-24276493D01*
X64955799Y-23490646D01*
X64964185Y-23521942D01*
X65039885Y-23653058D01*
X65146942Y-23760115D01*
X65278058Y-23835815D01*
X65309353Y-23844200D01*
X64523505Y-24630046D01*
X64523506Y-24630048D01*
X64635208Y-24711203D01*
X64866622Y-24829116D01*
X65113622Y-24909370D01*
X65370143Y-24950000D01*
X65629857Y-24950000D01*
X65886377Y-24909370D01*
X66133377Y-24829116D01*
X66364788Y-24711205D01*
X66476492Y-24630046D01*
X66476493Y-24630046D01*
X65690646Y-23844200D01*
X65721942Y-23835815D01*
X65853058Y-23760115D01*
X65960115Y-23653058D01*
X66035815Y-23521942D01*
X66044200Y-23490646D01*
X66830046Y-24276493D01*
X66830046Y-24276492D01*
X66911205Y-24164788D01*
X67029116Y-23933377D01*
X67109370Y-23686377D01*
X67150000Y-23429857D01*
X67150000Y-23170142D01*
X67109370Y-22913622D01*
X67029116Y-22666622D01*
X66911203Y-22435208D01*
X66830048Y-22323506D01*
X66830046Y-22323505D01*
X66044200Y-23109352D01*
X66035815Y-23078058D01*
X65960115Y-22946942D01*
X65853058Y-22839885D01*
X65721942Y-22764185D01*
X65690646Y-22755799D01*
X66476493Y-21969952D01*
X66476492Y-21969951D01*
X66364791Y-21888796D01*
X66133377Y-21770883D01*
X65886377Y-21690629D01*
X65629857Y-21650000D01*
X65370143Y-21650000D01*
X65113622Y-21690629D01*
X64866622Y-21770883D01*
X64635215Y-21888792D01*
X64523506Y-21969952D01*
X65309353Y-22755799D01*
X65278058Y-22764185D01*
X65146942Y-22839885D01*
X65039885Y-22946942D01*
X64964185Y-23078058D01*
X64955799Y-23109353D01*
X64169952Y-22323506D01*
X64088792Y-22435215D01*
X63970883Y-22666622D01*
X63890629Y-22913622D01*
X63850000Y-23170142D01*
X62484786Y-23170142D01*
X62476539Y-23128683D01*
X62459051Y-23040765D01*
X62439638Y-22993898D01*
X62383635Y-22858692D01*
X62383628Y-22858679D01*
X62274139Y-22694818D01*
X62274136Y-22694814D01*
X62134785Y-22555463D01*
X62134781Y-22555460D01*
X61970920Y-22445971D01*
X61970907Y-22445964D01*
X61788839Y-22370550D01*
X61788829Y-22370547D01*
X61595543Y-22332100D01*
X61595541Y-22332100D01*
X61510209Y-22332100D01*
X61490081Y-22326189D01*
X61469130Y-22325098D01*
X61457229Y-22316543D01*
X61443170Y-22312415D01*
X61429434Y-22296562D01*
X61412397Y-22284316D01*
X61407010Y-22270684D01*
X61397415Y-22259611D01*
X61394429Y-22238847D01*
X61386719Y-22219335D01*
X61388899Y-22200391D01*
X61387471Y-22190453D01*
X61388556Y-22184089D01*
X61425000Y-21999442D01*
X61425000Y-21750000D01*
X60536500Y-21750000D01*
X60469461Y-21730315D01*
X60423706Y-21677511D01*
X60412500Y-21626000D01*
X60412500Y-21500000D01*
X60286500Y-21500000D01*
X60219461Y-21480315D01*
X60173706Y-21427511D01*
X60162500Y-21376000D01*
X60162500Y-21250000D01*
X60662500Y-21250000D01*
X61424999Y-21250000D01*
X61424999Y-21000028D01*
X61424998Y-21000013D01*
X61414505Y-20897302D01*
X61359358Y-20730880D01*
X61359356Y-20730875D01*
X61267315Y-20581654D01*
X61143345Y-20457684D01*
X60994124Y-20365643D01*
X60994119Y-20365641D01*
X60827697Y-20310494D01*
X60827690Y-20310493D01*
X60724986Y-20300000D01*
X60662500Y-20300000D01*
X60662500Y-21250000D01*
X60162500Y-21250000D01*
X60162500Y-20300000D01*
X60162499Y-20299999D01*
X60100028Y-20300000D01*
X60100011Y-20300001D01*
X59997302Y-20310494D01*
X59830880Y-20365641D01*
X59830875Y-20365643D01*
X59681657Y-20457682D01*
X59588034Y-20551305D01*
X59526710Y-20584789D01*
X59457019Y-20579805D01*
X59412672Y-20551304D01*
X59318657Y-20457289D01*
X59318656Y-20457288D01*
X59180712Y-20372204D01*
X59169336Y-20365187D01*
X59169331Y-20365185D01*
X59167862Y-20364698D01*
X59002797Y-20310001D01*
X59002795Y-20310000D01*
X58900010Y-20299500D01*
X58274998Y-20299500D01*
X58274980Y-20299501D01*
X58172203Y-20310000D01*
X58172200Y-20310001D01*
X58005668Y-20365185D01*
X58005663Y-20365187D01*
X57856342Y-20457289D01*
X57732287Y-20581344D01*
X57726580Y-20590598D01*
X57674632Y-20637322D01*
X57621042Y-20649500D01*
X56903651Y-20649500D01*
X56836612Y-20629815D01*
X56815970Y-20613181D01*
X56542165Y-20339375D01*
X56542161Y-20339372D01*
X56402866Y-20246297D01*
X56402863Y-20246296D01*
X56293416Y-20200962D01*
X56293414Y-20200961D01*
X56248086Y-20182185D01*
X56248074Y-20182182D01*
X56083771Y-20149500D01*
X56083767Y-20149500D01*
X55919378Y-20149500D01*
X55852339Y-20129815D01*
X55813839Y-20090597D01*
X55794462Y-20059182D01*
X55792712Y-20056344D01*
X55668656Y-19932288D01*
X55567970Y-19870185D01*
X55519336Y-19840187D01*
X55519331Y-19840185D01*
X55501565Y-19834298D01*
X55352797Y-19785001D01*
X55352795Y-19785000D01*
X55250010Y-19774500D01*
X54649998Y-19774500D01*
X54649980Y-19774501D01*
X54547203Y-19785000D01*
X54547200Y-19785001D01*
X54380668Y-19840185D01*
X54380663Y-19840187D01*
X54231342Y-19932289D01*
X54107285Y-20056346D01*
X54105537Y-20059182D01*
X54103829Y-20060717D01*
X54102807Y-20062011D01*
X54102585Y-20061836D01*
X54053589Y-20105905D01*
X53984626Y-20117126D01*
X53920544Y-20089282D01*
X53894463Y-20059182D01*
X53892714Y-20056346D01*
X53768657Y-19932289D01*
X53768656Y-19932288D01*
X53667970Y-19870185D01*
X53619336Y-19840187D01*
X53619331Y-19840185D01*
X53601565Y-19834298D01*
X53452797Y-19785001D01*
X53452795Y-19785000D01*
X53350010Y-19774500D01*
X52749998Y-19774500D01*
X52749980Y-19774501D01*
X52647203Y-19785000D01*
X52647200Y-19785001D01*
X52480668Y-19840185D01*
X52480663Y-19840187D01*
X52331342Y-19932289D01*
X52207289Y-20056342D01*
X52115187Y-20205663D01*
X52115185Y-20205668D01*
X52101722Y-20246297D01*
X52062176Y-20365641D01*
X52060001Y-20372204D01*
X52060000Y-20372205D01*
X52058377Y-20388101D01*
X52031982Y-20452793D01*
X51974802Y-20492945D01*
X51935019Y-20499500D01*
X51440021Y-20499500D01*
X51372982Y-20479815D01*
X51327227Y-20427011D01*
X51317283Y-20357853D01*
X51334481Y-20310405D01*
X51359814Y-20269334D01*
X51414999Y-20102797D01*
X51425500Y-20000009D01*
X51425499Y-19599728D01*
X51445183Y-19532690D01*
X51461818Y-19512048D01*
X51687048Y-19286819D01*
X51748371Y-19253334D01*
X51774729Y-19250500D01*
X63954012Y-19250500D01*
X64021051Y-19270185D01*
X64064496Y-19318204D01*
X64088366Y-19365051D01*
X64241069Y-19575229D01*
X64424771Y-19758931D01*
X64634949Y-19911634D01*
X64782445Y-19986787D01*
X64866423Y-20029577D01*
X64866425Y-20029577D01*
X64866428Y-20029579D01*
X65113507Y-20109860D01*
X65245706Y-20130797D01*
X65370098Y-20150500D01*
X65370103Y-20150500D01*
X65629902Y-20150500D01*
X65743298Y-20132539D01*
X65886493Y-20109860D01*
X66133572Y-20029579D01*
X66365051Y-19911634D01*
X66575229Y-19758931D01*
X66758931Y-19575229D01*
X66911634Y-19365051D01*
X67029579Y-19133572D01*
X67109860Y-18886493D01*
X67143480Y-18674223D01*
X67150500Y-18629902D01*
X67150500Y-18370097D01*
X67123289Y-18198296D01*
X67109860Y-18113507D01*
X67029579Y-17866428D01*
X67029577Y-17866425D01*
X67029577Y-17866423D01*
X66971748Y-17752929D01*
X66911634Y-17634949D01*
X66758931Y-17424771D01*
X66575229Y-17241069D01*
X66422357Y-17130001D01*
X66365054Y-17088368D01*
X66365053Y-17088367D01*
X66365051Y-17088366D01*
X66292764Y-17051534D01*
X66133576Y-16970422D01*
X65886493Y-16890140D01*
X65629902Y-16849500D01*
X65629897Y-16849500D01*
X65370103Y-16849500D01*
X65370098Y-16849500D01*
X65113506Y-16890140D01*
X64866423Y-16970422D01*
X64634945Y-17088368D01*
X64424774Y-17241066D01*
X64424768Y-17241071D01*
X64241071Y-17424768D01*
X64241066Y-17424774D01*
X64088368Y-17634945D01*
X64086921Y-17637785D01*
X64065412Y-17680000D01*
X64064497Y-17681795D01*
X64016523Y-17732591D01*
X63954012Y-17749500D01*
X61208594Y-17749500D01*
X61141555Y-17729815D01*
X61095800Y-17677011D01*
X61085856Y-17607853D01*
X61103055Y-17560403D01*
X61159356Y-17469124D01*
X61159358Y-17469119D01*
X61214505Y-17302697D01*
X61214506Y-17302690D01*
X61224999Y-17199986D01*
X61225000Y-17199973D01*
X61225000Y-17150000D01*
X58775001Y-17150000D01*
X58775001Y-17199986D01*
X58785494Y-17302697D01*
X58840641Y-17469119D01*
X58840643Y-17469124D01*
X58896945Y-17560403D01*
X58915385Y-17627796D01*
X58894462Y-17694459D01*
X58840820Y-17739229D01*
X58791406Y-17749500D01*
X55708594Y-17749500D01*
X55641555Y-17729815D01*
X55595800Y-17677011D01*
X55585856Y-17607853D01*
X55603055Y-17560403D01*
X55659356Y-17469124D01*
X55659358Y-17469119D01*
X55714505Y-17302697D01*
X55714506Y-17302690D01*
X55724999Y-17199986D01*
X55725000Y-17199973D01*
X55725000Y-17150000D01*
X53275001Y-17150000D01*
X53275001Y-17199986D01*
X53285494Y-17302697D01*
X53340641Y-17469119D01*
X53340643Y-17469124D01*
X53396945Y-17560403D01*
X53415385Y-17627796D01*
X53394462Y-17694459D01*
X53340820Y-17739229D01*
X53291406Y-17749500D01*
X51338582Y-17749500D01*
X51321340Y-17752929D01*
X51321328Y-17752932D01*
X51317448Y-17753704D01*
X51193588Y-17778341D01*
X51142847Y-17799359D01*
X51135261Y-17802500D01*
X51135254Y-17802503D01*
X51057008Y-17834914D01*
X51022308Y-17858100D01*
X50934082Y-17917049D01*
X50587950Y-18263181D01*
X50526627Y-18296666D01*
X50500269Y-18299500D01*
X50099998Y-18299500D01*
X50099980Y-18299501D01*
X49997203Y-18310000D01*
X49997200Y-18310001D01*
X49830668Y-18365185D01*
X49830663Y-18365187D01*
X49681342Y-18457289D01*
X49587681Y-18550951D01*
X49526358Y-18584436D01*
X49456666Y-18579452D01*
X49412319Y-18550951D01*
X49318657Y-18457289D01*
X49318656Y-18457288D01*
X49169334Y-18365186D01*
X49002797Y-18310001D01*
X49002795Y-18310000D01*
X48900016Y-18299500D01*
X48900009Y-18299500D01*
X48570600Y-18299500D01*
X48503561Y-18279815D01*
X48457806Y-18227011D01*
X48446600Y-18175500D01*
X48446600Y-15549499D01*
X48466285Y-15482460D01*
X48519089Y-15436705D01*
X48570595Y-15425499D01*
X49500008Y-15425499D01*
X49500016Y-15425498D01*
X49500019Y-15425498D01*
X49556302Y-15419748D01*
X49602797Y-15414999D01*
X49769334Y-15359814D01*
X49918656Y-15267712D01*
X50042712Y-15143656D01*
X50134814Y-14994334D01*
X50189999Y-14827797D01*
X50200500Y-14725009D01*
X50200499Y-14124499D01*
X50220183Y-14057461D01*
X50272987Y-14011706D01*
X50324499Y-14000500D01*
X53413770Y-14000500D01*
X53480809Y-14020185D01*
X53526564Y-14072989D01*
X53536508Y-14142147D01*
X53507483Y-14205703D01*
X53501451Y-14212181D01*
X53432289Y-14281342D01*
X53340187Y-14430663D01*
X53340186Y-14430666D01*
X53285001Y-14597203D01*
X53285001Y-14597204D01*
X53285000Y-14597204D01*
X53274500Y-14699983D01*
X53274500Y-15300001D01*
X53274501Y-15300019D01*
X53285000Y-15402796D01*
X53285001Y-15402799D01*
X53313735Y-15489511D01*
X53340186Y-15569334D01*
X53432288Y-15718656D01*
X53556344Y-15842712D01*
X53559628Y-15844737D01*
X53559653Y-15844753D01*
X53561445Y-15846746D01*
X53562011Y-15847193D01*
X53561934Y-15847289D01*
X53606379Y-15896699D01*
X53617603Y-15965661D01*
X53589761Y-16029744D01*
X53559665Y-16055826D01*
X53556660Y-16057679D01*
X53556655Y-16057683D01*
X53432684Y-16181654D01*
X53340643Y-16330875D01*
X53340641Y-16330880D01*
X53285494Y-16497302D01*
X53285493Y-16497309D01*
X53275000Y-16600013D01*
X53275000Y-16650000D01*
X55724999Y-16650000D01*
X55724999Y-16600028D01*
X55724998Y-16600013D01*
X55714505Y-16497302D01*
X55659358Y-16330880D01*
X55659356Y-16330875D01*
X55567315Y-16181654D01*
X55443344Y-16057683D01*
X55443341Y-16057681D01*
X55440339Y-16055829D01*
X55438713Y-16054021D01*
X55437677Y-16053202D01*
X55437817Y-16053024D01*
X55393617Y-16003880D01*
X55382397Y-15934917D01*
X55410243Y-15870836D01*
X55421157Y-15859341D01*
X55430036Y-15851112D01*
X55443656Y-15842712D01*
X55501214Y-15785153D01*
X55502947Y-15783548D01*
X55532197Y-15768991D01*
X55560872Y-15753334D01*
X55564428Y-15752951D01*
X55565499Y-15752419D01*
X55567419Y-15752630D01*
X55587230Y-15750500D01*
X55893670Y-15750500D01*
X55960709Y-15770185D01*
X55981351Y-15786819D01*
X56191427Y-15996895D01*
X56218307Y-16037123D01*
X56228104Y-16060775D01*
X56228109Y-16060785D01*
X56315710Y-16191888D01*
X56315713Y-16191892D01*
X56427207Y-16303386D01*
X56427211Y-16303389D01*
X56558314Y-16390990D01*
X56558327Y-16390997D01*
X56644929Y-16426868D01*
X56704003Y-16451337D01*
X56858653Y-16482099D01*
X56858656Y-16482100D01*
X56858658Y-16482100D01*
X57016344Y-16482100D01*
X57016345Y-16482099D01*
X57170997Y-16451337D01*
X57316679Y-16390994D01*
X57447789Y-16303389D01*
X57559289Y-16191889D01*
X57646894Y-16060779D01*
X57650033Y-16053202D01*
X57699070Y-15934814D01*
X57707237Y-15915097D01*
X57738000Y-15760442D01*
X57738000Y-15602758D01*
X57738000Y-15602755D01*
X57737999Y-15602753D01*
X57734889Y-15587118D01*
X57707237Y-15448103D01*
X57692415Y-15412319D01*
X57646897Y-15302427D01*
X57646890Y-15302414D01*
X57559289Y-15171311D01*
X57559286Y-15171307D01*
X57447792Y-15059813D01*
X57447788Y-15059810D01*
X57316685Y-14972209D01*
X57316675Y-14972204D01*
X57293023Y-14962407D01*
X57252795Y-14935527D01*
X56734313Y-14417045D01*
X56668604Y-14373142D01*
X56652255Y-14362218D01*
X56611395Y-14334916D01*
X56611394Y-14334915D01*
X56611392Y-14334914D01*
X56611390Y-14334913D01*
X56474817Y-14278343D01*
X56474807Y-14278340D01*
X56329820Y-14249500D01*
X56329818Y-14249500D01*
X55587230Y-14249500D01*
X55557789Y-14240855D01*
X55527803Y-14234332D01*
X55522787Y-14230577D01*
X55520191Y-14229815D01*
X55499549Y-14213181D01*
X55498549Y-14212181D01*
X55465064Y-14150858D01*
X55470048Y-14081166D01*
X55511920Y-14025233D01*
X55577384Y-14000816D01*
X55586230Y-14000500D01*
X57034218Y-14000500D01*
X57101257Y-14020185D01*
X57121899Y-14036819D01*
X58719735Y-15634655D01*
X58719764Y-15634686D01*
X58862215Y-15777137D01*
X58862218Y-15777139D01*
X59021320Y-15883447D01*
X59066124Y-15937057D01*
X59074831Y-16006382D01*
X59044677Y-16069410D01*
X59040110Y-16074229D01*
X58932682Y-16181657D01*
X58840643Y-16330875D01*
X58840641Y-16330880D01*
X58785494Y-16497302D01*
X58785493Y-16497309D01*
X58775000Y-16600013D01*
X58775000Y-16650000D01*
X61224999Y-16650000D01*
X61224999Y-16600028D01*
X61224998Y-16600013D01*
X61214505Y-16497302D01*
X61159358Y-16330880D01*
X61159356Y-16330875D01*
X61067315Y-16181654D01*
X60943344Y-16057683D01*
X60943341Y-16057681D01*
X60940339Y-16055829D01*
X60938713Y-16054021D01*
X60937677Y-16053202D01*
X60937817Y-16053024D01*
X60893617Y-16003880D01*
X60882397Y-15934917D01*
X60910243Y-15870836D01*
X60940344Y-15844754D01*
X60943656Y-15842712D01*
X61067712Y-15718656D01*
X61159814Y-15569334D01*
X61214999Y-15402797D01*
X61225500Y-15300009D01*
X61225499Y-14699992D01*
X61214999Y-14597203D01*
X61159814Y-14430666D01*
X61067712Y-14281344D01*
X60943656Y-14157288D01*
X60806985Y-14072989D01*
X60794336Y-14065187D01*
X60794331Y-14065185D01*
X60792862Y-14064698D01*
X60627797Y-14010001D01*
X60627795Y-14010000D01*
X60525016Y-13999500D01*
X60525009Y-13999500D01*
X60098543Y-13999500D01*
X60098541Y-13999500D01*
X59965782Y-13999500D01*
X59898743Y-13979815D01*
X59878101Y-13963181D01*
X58281479Y-12366559D01*
X58281459Y-12366537D01*
X58137785Y-12222863D01*
X58137781Y-12222860D01*
X57973920Y-12113371D01*
X57973911Y-12113366D01*
X57853253Y-12063388D01*
X57853251Y-12063387D01*
X57845165Y-12060038D01*
X57791836Y-12037949D01*
X57629539Y-12005666D01*
X57614374Y-12002649D01*
X57598542Y-11999500D01*
X57598541Y-11999500D01*
X55979154Y-11999500D01*
X55912115Y-11979815D01*
X55866360Y-11927011D01*
X55856416Y-11857853D01*
X55885441Y-11794297D01*
X55914055Y-11769962D01*
X55918345Y-11767315D01*
X56042315Y-11643345D01*
X56124572Y-11509986D01*
X63305001Y-11509986D01*
X63315494Y-11612697D01*
X63370641Y-11779119D01*
X63370643Y-11779124D01*
X63462684Y-11928345D01*
X63586654Y-12052315D01*
X63735875Y-12144356D01*
X63735880Y-12144358D01*
X63902302Y-12199505D01*
X63902309Y-12199506D01*
X64005019Y-12209999D01*
X64749999Y-12209999D01*
X65250000Y-12209999D01*
X65994972Y-12209999D01*
X65994986Y-12209998D01*
X66097697Y-12199505D01*
X66264119Y-12144358D01*
X66264124Y-12144356D01*
X66413345Y-12052315D01*
X66537315Y-11928345D01*
X66629356Y-11779124D01*
X66629358Y-11779119D01*
X66684505Y-11612697D01*
X66684506Y-11612690D01*
X66694999Y-11509986D01*
X66695000Y-11509973D01*
X66695000Y-11290000D01*
X65250000Y-11290000D01*
X65250000Y-12209999D01*
X64749999Y-12209999D01*
X64750000Y-12209998D01*
X64750000Y-11290000D01*
X63305001Y-11290000D01*
X63305001Y-11509986D01*
X56124572Y-11509986D01*
X56134356Y-11494124D01*
X56134358Y-11494119D01*
X56189505Y-11327697D01*
X56189506Y-11327690D01*
X56199892Y-11226035D01*
X56199893Y-11226031D01*
X56199893Y-11226029D01*
X56199999Y-11224990D01*
X56200000Y-11224973D01*
X56200000Y-11162500D01*
X53800001Y-11162500D01*
X53800001Y-11224986D01*
X53810494Y-11327697D01*
X53865641Y-11494119D01*
X53865643Y-11494124D01*
X53957684Y-11643345D01*
X54081654Y-11767315D01*
X54085945Y-11769962D01*
X54132668Y-11821911D01*
X54143889Y-11890874D01*
X54116045Y-11954956D01*
X54057975Y-11993811D01*
X54020846Y-11999500D01*
X50200218Y-11999500D01*
X50133179Y-11979815D01*
X50094679Y-11940597D01*
X50086715Y-11927685D01*
X50042712Y-11856344D01*
X49918656Y-11732288D01*
X49769334Y-11640186D01*
X49602797Y-11585001D01*
X49602795Y-11585000D01*
X49500016Y-11574500D01*
X49500009Y-11574500D01*
X49198937Y-11574500D01*
X49174745Y-11572117D01*
X49157688Y-11568724D01*
X49157688Y-11568723D01*
X49061044Y-11549500D01*
X49061041Y-11549500D01*
X43840782Y-11549500D01*
X43811341Y-11540855D01*
X43781355Y-11534332D01*
X43776339Y-11530577D01*
X43773743Y-11529815D01*
X43753101Y-11513181D01*
X43609209Y-11369289D01*
X43609207Y-11369286D01*
X43609206Y-11369285D01*
X43609206Y-11369286D01*
X43602139Y-11362219D01*
X43602139Y-11362218D01*
X43462782Y-11222861D01*
X43462781Y-11222860D01*
X43462780Y-11222859D01*
X43298920Y-11113371D01*
X43298911Y-11113366D01*
X43226315Y-11083296D01*
X43170165Y-11060038D01*
X43116836Y-11037949D01*
X43116832Y-11037948D01*
X43116828Y-11037946D01*
X43020188Y-11018724D01*
X42923544Y-10999500D01*
X42923541Y-10999500D01*
X42676002Y-10999500D01*
X42608963Y-10979815D01*
X42563208Y-10927011D01*
X42553264Y-10857853D01*
X42561441Y-10828047D01*
X42574137Y-10797397D01*
X42604900Y-10642742D01*
X42604900Y-10485058D01*
X42604900Y-10485055D01*
X42604899Y-10485053D01*
X42600116Y-10461007D01*
X42574137Y-10330403D01*
X42558311Y-10292195D01*
X42513797Y-10184727D01*
X42513790Y-10184714D01*
X42426189Y-10053611D01*
X42426186Y-10053607D01*
X42314692Y-9942113D01*
X42314688Y-9942110D01*
X42183585Y-9854509D01*
X42183572Y-9854502D01*
X42037899Y-9794163D01*
X42037892Y-9794161D01*
X41967372Y-9780133D01*
X41963314Y-9779117D01*
X41814420Y-9749500D01*
X41814418Y-9749500D01*
X32902282Y-9749500D01*
X32835243Y-9729815D01*
X32789488Y-9677011D01*
X32779544Y-9607853D01*
X32808569Y-9544297D01*
X32814601Y-9537819D01*
X33814240Y-8538181D01*
X34963102Y-7389319D01*
X35024425Y-7355834D01*
X35050783Y-7353000D01*
X42985270Y-7353000D01*
X43052309Y-7372685D01*
X43072951Y-7389319D01*
X43086344Y-7402712D01*
X43235666Y-7494814D01*
X43402203Y-7549999D01*
X43504991Y-7560500D01*
X44495008Y-7560499D01*
X44495016Y-7560498D01*
X44495019Y-7560498D01*
X44551302Y-7554748D01*
X44597797Y-7549999D01*
X44764334Y-7494814D01*
X44913656Y-7402712D01*
X44927049Y-7389319D01*
X44988372Y-7355834D01*
X45014730Y-7353000D01*
X49246042Y-7353000D01*
X49277066Y-7346828D01*
X49342688Y-7333775D01*
X49439336Y-7314551D01*
X49492665Y-7292461D01*
X49621414Y-7239132D01*
X49785282Y-7129639D01*
X49843579Y-7071342D01*
X49865603Y-7049318D01*
X49926926Y-7015833D01*
X49953284Y-7012999D01*
X50000002Y-7012999D01*
X50000008Y-7012999D01*
X50102797Y-7002499D01*
X50269334Y-6947314D01*
X50418656Y-6855212D01*
X50542712Y-6731156D01*
X50634814Y-6581834D01*
X50689999Y-6415297D01*
X50700500Y-6312509D01*
X50700499Y-5687492D01*
X50696260Y-5645999D01*
X50689999Y-5584703D01*
X50689998Y-5584700D01*
X50661246Y-5497933D01*
X50634814Y-5418166D01*
X50542712Y-5268844D01*
X50449049Y-5175181D01*
X50447499Y-5172342D01*
X50444741Y-5170651D01*
X50430863Y-5141876D01*
X50415564Y-5113858D01*
X50415794Y-5110632D01*
X50414389Y-5107718D01*
X50418270Y-5076018D01*
X50420548Y-5044166D01*
X50422604Y-5040615D01*
X50422880Y-5038366D01*
X50429880Y-5028053D01*
X50441334Y-5008281D01*
X50444992Y-5003875D01*
X50542712Y-4906156D01*
X50590558Y-4828584D01*
X50596125Y-4821881D01*
X50618173Y-4807048D01*
X50637930Y-4789279D01*
X50647985Y-4786993D01*
X50654098Y-4782882D01*
X50667297Y-4782604D01*
X50691521Y-4777100D01*
X53675500Y-4777100D01*
X53742539Y-4796785D01*
X53788294Y-4849589D01*
X53799500Y-4901100D01*
X53799500Y-5487501D01*
X53799501Y-5487519D01*
X53810000Y-5590296D01*
X53810001Y-5590299D01*
X53865185Y-5756831D01*
X53865187Y-5756836D01*
X53879946Y-5780764D01*
X53938910Y-5876361D01*
X53957289Y-5906157D01*
X54050951Y-5999819D01*
X54084436Y-6061142D01*
X54079452Y-6130834D01*
X54050951Y-6175181D01*
X53957289Y-6268842D01*
X53865187Y-6418163D01*
X53865185Y-6418168D01*
X53839174Y-6496666D01*
X53810001Y-6584703D01*
X53810001Y-6584704D01*
X53810000Y-6584704D01*
X53799500Y-6687483D01*
X53799500Y-7312501D01*
X53799501Y-7312519D01*
X53810000Y-7415296D01*
X53810001Y-7415299D01*
X53865185Y-7581831D01*
X53865187Y-7581836D01*
X53874535Y-7596992D01*
X53957288Y-7731156D01*
X54081344Y-7855212D01*
X54190597Y-7922599D01*
X54197421Y-7930186D01*
X54206703Y-7934425D01*
X54220391Y-7955724D01*
X54237321Y-7974547D01*
X54239965Y-7986182D01*
X54244477Y-7993203D01*
X54249500Y-8028138D01*
X54249500Y-8059362D01*
X54229815Y-8126401D01*
X54190598Y-8164899D01*
X54122288Y-8207033D01*
X54081342Y-8232289D01*
X54012951Y-8300681D01*
X53951628Y-8334166D01*
X53925270Y-8337000D01*
X46286380Y-8337000D01*
X46141392Y-8365840D01*
X46141386Y-8365842D01*
X46004808Y-8422414D01*
X46004796Y-8422421D01*
X45955570Y-8455311D01*
X45955571Y-8455312D01*
X45881881Y-8504549D01*
X45417503Y-8968927D01*
X45377280Y-8995805D01*
X45353619Y-9005606D01*
X45353618Y-9005607D01*
X45222515Y-9093207D01*
X45222507Y-9093213D01*
X45111013Y-9204707D01*
X45111010Y-9204711D01*
X45023409Y-9335814D01*
X45023402Y-9335827D01*
X44963064Y-9481498D01*
X44963061Y-9481510D01*
X44932300Y-9636153D01*
X44932300Y-9793846D01*
X44963061Y-9948489D01*
X44963064Y-9948501D01*
X45023402Y-10094172D01*
X45023409Y-10094185D01*
X45111010Y-10225288D01*
X45111013Y-10225292D01*
X45222507Y-10336786D01*
X45222511Y-10336789D01*
X45353614Y-10424390D01*
X45353627Y-10424397D01*
X45469311Y-10472314D01*
X45499303Y-10484737D01*
X45653315Y-10515372D01*
X45653953Y-10515499D01*
X45653956Y-10515500D01*
X45653958Y-10515500D01*
X45811644Y-10515500D01*
X45811645Y-10515499D01*
X45966297Y-10484737D01*
X46093252Y-10432151D01*
X46111972Y-10424397D01*
X46111972Y-10424396D01*
X46111979Y-10424394D01*
X46243089Y-10336789D01*
X46354589Y-10225289D01*
X46442194Y-10094179D01*
X46451991Y-10070524D01*
X46456623Y-10063592D01*
X46457721Y-10058547D01*
X46478865Y-10030301D01*
X46634850Y-9874317D01*
X46696173Y-9840834D01*
X46722530Y-9838000D01*
X53925270Y-9838000D01*
X53992309Y-9857685D01*
X54012951Y-9874319D01*
X54051304Y-9912672D01*
X54084789Y-9973995D01*
X54079805Y-10043687D01*
X54051305Y-10088034D01*
X53957682Y-10181657D01*
X53865643Y-10330875D01*
X53865641Y-10330880D01*
X53810494Y-10497302D01*
X53810493Y-10497309D01*
X53800000Y-10600013D01*
X53800000Y-10662500D01*
X56199999Y-10662500D01*
X56199999Y-10600028D01*
X56199998Y-10600013D01*
X56196933Y-10570013D01*
X63305000Y-10570013D01*
X63305000Y-10790000D01*
X64750000Y-10790000D01*
X65250000Y-10790000D01*
X66694999Y-10790000D01*
X66694999Y-10570028D01*
X66694998Y-10570013D01*
X66684505Y-10467302D01*
X66629358Y-10300880D01*
X66629356Y-10300875D01*
X66537315Y-10151654D01*
X66413345Y-10027684D01*
X66264124Y-9935643D01*
X66264119Y-9935641D01*
X66097697Y-9880494D01*
X66097690Y-9880493D01*
X65994986Y-9870000D01*
X65250000Y-9870000D01*
X65250000Y-10790000D01*
X64750000Y-10790000D01*
X64750000Y-9870000D01*
X64005028Y-9870000D01*
X64005012Y-9870001D01*
X63902302Y-9880494D01*
X63735880Y-9935641D01*
X63735875Y-9935643D01*
X63586654Y-10027684D01*
X63462684Y-10151654D01*
X63370643Y-10300875D01*
X63370641Y-10300880D01*
X63315494Y-10467302D01*
X63315493Y-10467309D01*
X63305000Y-10570013D01*
X56196933Y-10570013D01*
X56189505Y-10497302D01*
X56134358Y-10330880D01*
X56134356Y-10330875D01*
X56042315Y-10181654D01*
X55948695Y-10088034D01*
X55944633Y-10080595D01*
X55937802Y-10075580D01*
X55928139Y-10050388D01*
X55915210Y-10026711D01*
X55915814Y-10018258D01*
X55912779Y-10010345D01*
X55918269Y-9983930D01*
X55920194Y-9957019D01*
X55925643Y-9948452D01*
X55926998Y-9941937D01*
X55946656Y-9915419D01*
X55947886Y-9913488D01*
X55948206Y-9913161D01*
X56042712Y-9818656D01*
X56045645Y-9813899D01*
X56054545Y-9804834D01*
X56079479Y-9790916D01*
X56102780Y-9774415D01*
X56109596Y-9774107D01*
X56115555Y-9770782D01*
X56144054Y-9772555D01*
X56172579Y-9771270D01*
X56178480Y-9774697D01*
X56185290Y-9775121D01*
X56208302Y-9792017D01*
X56232998Y-9806360D01*
X56236162Y-9812473D01*
X56241609Y-9816472D01*
X56251267Y-9841651D01*
X56264652Y-9867507D01*
X56280761Y-9948491D01*
X56280764Y-9948501D01*
X56341102Y-10094172D01*
X56341109Y-10094185D01*
X56428710Y-10225288D01*
X56428713Y-10225292D01*
X56540207Y-10336786D01*
X56540211Y-10336789D01*
X56671314Y-10424390D01*
X56671327Y-10424397D01*
X56787011Y-10472314D01*
X56817003Y-10484737D01*
X56971015Y-10515372D01*
X56971653Y-10515499D01*
X56971656Y-10515500D01*
X56971658Y-10515500D01*
X57129344Y-10515500D01*
X57129345Y-10515499D01*
X57283997Y-10484737D01*
X57330447Y-10465497D01*
X57362301Y-10452303D01*
X57429672Y-10424397D01*
X57429672Y-10424396D01*
X57429679Y-10424394D01*
X57560789Y-10336789D01*
X57610758Y-10286820D01*
X57672081Y-10253334D01*
X57698440Y-10250500D01*
X58570210Y-10250500D01*
X58619461Y-10260701D01*
X58623602Y-10262492D01*
X58623605Y-10262494D01*
X58652893Y-10271003D01*
X58779002Y-10307642D01*
X58779005Y-10307642D01*
X58779007Y-10307643D01*
X58815310Y-10310500D01*
X58815318Y-10310500D01*
X59224682Y-10310500D01*
X59224690Y-10310500D01*
X59260993Y-10307643D01*
X59260995Y-10307642D01*
X59260997Y-10307642D01*
X59332665Y-10286820D01*
X59416395Y-10262494D01*
X59436879Y-10250379D01*
X59504601Y-10233196D01*
X59563119Y-10250379D01*
X59583605Y-10262494D01*
X59583607Y-10262494D01*
X59583608Y-10262495D01*
X59739002Y-10307642D01*
X59739005Y-10307642D01*
X59739007Y-10307643D01*
X59775310Y-10310500D01*
X59775318Y-10310500D01*
X60184682Y-10310500D01*
X60184690Y-10310500D01*
X60220993Y-10307643D01*
X60220995Y-10307642D01*
X60220997Y-10307642D01*
X60292665Y-10286820D01*
X60376395Y-10262494D01*
X60515687Y-10180117D01*
X60630117Y-10065687D01*
X60712494Y-9926395D01*
X60753033Y-9786862D01*
X60757642Y-9770997D01*
X60757643Y-9770991D01*
X60760500Y-9734690D01*
X60760500Y-9265310D01*
X60757643Y-9229007D01*
X60735423Y-9152528D01*
X60730702Y-9125014D01*
X60730500Y-9121481D01*
X60730500Y-8989882D01*
X60721625Y-8945263D01*
X60701659Y-8844888D01*
X60645084Y-8708306D01*
X60645084Y-8708305D01*
X60605792Y-8649500D01*
X60604559Y-8647655D01*
X60604550Y-8647640D01*
X60562953Y-8585385D01*
X60562947Y-8585378D01*
X59945621Y-7968052D01*
X59945614Y-7968046D01*
X59871929Y-7918812D01*
X59871929Y-7918813D01*
X59822691Y-7885913D01*
X59686117Y-7829343D01*
X59686107Y-7829340D01*
X59541120Y-7800500D01*
X59541118Y-7800500D01*
X58866762Y-7800500D01*
X58834265Y-7790957D01*
X58801605Y-7782001D01*
X58800832Y-7781140D01*
X58799723Y-7780815D01*
X58777561Y-7755239D01*
X58754910Y-7730027D01*
X58754724Y-7728884D01*
X58753968Y-7728011D01*
X58749150Y-7694505D01*
X58743727Y-7661058D01*
X58744188Y-7659997D01*
X58744024Y-7658853D01*
X58758092Y-7628047D01*
X58771607Y-7596992D01*
X58772739Y-7595974D01*
X58773049Y-7595297D01*
X58797862Y-7573404D01*
X58797863Y-7573403D01*
X58811635Y-7564201D01*
X58875316Y-7521652D01*
X60082952Y-6314016D01*
X60104954Y-6281087D01*
X60138682Y-6230610D01*
X60192294Y-6185804D01*
X60241784Y-6175500D01*
X60665686Y-6175500D01*
X60665694Y-6175500D01*
X60702569Y-6172598D01*
X60702571Y-6172597D01*
X60702573Y-6172597D01*
X60744191Y-6160505D01*
X60860398Y-6126744D01*
X61001865Y-6043081D01*
X61118081Y-5926865D01*
X61201744Y-5785398D01*
X61202307Y-5783456D01*
X61204067Y-5777404D01*
X61241674Y-5718518D01*
X61305147Y-5689313D01*
X61323143Y-5688000D01*
X63946609Y-5688000D01*
X64013648Y-5707685D01*
X64020016Y-5712063D01*
X64027617Y-5717646D01*
X64078997Y-5769026D01*
X64194869Y-5840497D01*
X64198907Y-5843463D01*
X64217177Y-5867413D01*
X64237321Y-5889809D01*
X64238618Y-5895520D01*
X64241284Y-5899014D01*
X64242313Y-5911775D01*
X64249500Y-5943400D01*
X64249500Y-6665500D01*
X64229815Y-6732539D01*
X64177011Y-6778294D01*
X64125501Y-6789500D01*
X64004999Y-6789500D01*
X64004980Y-6789501D01*
X63902203Y-6800000D01*
X63902200Y-6800001D01*
X63735668Y-6855185D01*
X63735663Y-6855187D01*
X63586342Y-6947289D01*
X63462289Y-7071342D01*
X63370187Y-7220663D01*
X63370185Y-7220668D01*
X63361351Y-7247329D01*
X63315001Y-7387203D01*
X63315001Y-7387204D01*
X63315000Y-7387204D01*
X63304500Y-7489983D01*
X63304500Y-8430001D01*
X63304501Y-8430019D01*
X63315000Y-8532796D01*
X63315001Y-8532799D01*
X63370185Y-8699331D01*
X63370187Y-8699336D01*
X63405069Y-8755888D01*
X63462288Y-8848656D01*
X63586344Y-8972712D01*
X63735666Y-9064814D01*
X63902203Y-9119999D01*
X64004991Y-9130500D01*
X65995008Y-9130499D01*
X66097797Y-9119999D01*
X66264334Y-9064814D01*
X66413656Y-8972712D01*
X66537712Y-8848656D01*
X66629814Y-8699334D01*
X66684999Y-8532797D01*
X66695500Y-8430009D01*
X66695499Y-7489992D01*
X66691310Y-7448988D01*
X66684999Y-7387203D01*
X66684998Y-7387200D01*
X66679647Y-7371053D01*
X66629814Y-7220666D01*
X66537712Y-7071344D01*
X66413656Y-6947288D01*
X66320888Y-6890069D01*
X66264336Y-6855187D01*
X66264331Y-6855185D01*
X66242325Y-6847893D01*
X66097797Y-6800001D01*
X66097795Y-6800000D01*
X65995016Y-6789500D01*
X65995009Y-6789500D01*
X65874500Y-6789500D01*
X65807461Y-6769815D01*
X65761706Y-6717011D01*
X65750500Y-6665500D01*
X65750500Y-5943400D01*
X65770185Y-5876361D01*
X65809400Y-5837863D01*
X65921003Y-5769026D01*
X66044026Y-5646003D01*
X66135362Y-5497925D01*
X66190087Y-5332775D01*
X66200500Y-5230848D01*
X66200500Y-4644152D01*
X66190087Y-4542225D01*
X66135362Y-4377075D01*
X66135358Y-4377069D01*
X66135357Y-4377066D01*
X66044028Y-4229000D01*
X66044025Y-4228996D01*
X65921004Y-4105975D01*
X65921003Y-4105974D01*
X65920301Y-4105541D01*
X65919921Y-4105118D01*
X65915336Y-4101493D01*
X65915955Y-4100709D01*
X65873575Y-4053598D01*
X65862349Y-3984636D01*
X65890188Y-3920552D01*
X65915455Y-3898657D01*
X65915336Y-3898507D01*
X65918687Y-3895856D01*
X65920299Y-3894459D01*
X65921003Y-3894026D01*
X66044026Y-3771003D01*
X66135362Y-3622925D01*
X66190087Y-3457775D01*
X66200500Y-3355848D01*
X66200500Y-2769152D01*
X66190087Y-2667225D01*
X66135362Y-2502075D01*
X66135358Y-2502069D01*
X66135357Y-2502066D01*
X66044028Y-2354000D01*
X66044025Y-2353996D01*
X65921003Y-2230974D01*
X65920999Y-2230971D01*
X65772933Y-2139642D01*
X65772927Y-2139639D01*
X65772925Y-2139638D01*
X65747895Y-2131344D01*
X65607776Y-2084913D01*
X65505855Y-2074500D01*
X65505848Y-2074500D01*
X65124729Y-2074500D01*
X65057690Y-2054815D01*
X65037048Y-2038181D01*
X63856921Y-858052D01*
X63856914Y-858046D01*
X63783229Y-808812D01*
X63783229Y-808813D01*
X63733991Y-775913D01*
X63645020Y-739061D01*
X63590616Y-695220D01*
X63568551Y-628926D01*
X63585830Y-561227D01*
X63636967Y-513616D01*
X63692472Y-500500D01*
X69375500Y-500500D01*
X69442539Y-520185D01*
X69488294Y-572989D01*
X69499500Y-624500D01*
X69499500Y-32375500D01*
X69479815Y-32442539D01*
X69427011Y-32488294D01*
X69375500Y-32499500D01*
X624500Y-32499500D01*
X557461Y-32479815D01*
X511706Y-32427011D01*
X500500Y-32375500D01*
X500500Y-27170142D01*
X2850000Y-27170142D01*
X2850000Y-27429857D01*
X2890629Y-27686377D01*
X2970883Y-27933377D01*
X3088796Y-28164791D01*
X3169951Y-28276492D01*
X3169952Y-28276493D01*
X3955799Y-27490646D01*
X3964185Y-27521942D01*
X4039885Y-27653058D01*
X4146942Y-27760115D01*
X4278058Y-27835815D01*
X4309353Y-27844200D01*
X3523505Y-28630046D01*
X3523506Y-28630048D01*
X3635208Y-28711203D01*
X3866622Y-28829116D01*
X4113622Y-28909370D01*
X4370143Y-28950000D01*
X4629857Y-28950000D01*
X4886377Y-28909370D01*
X5133377Y-28829116D01*
X5364788Y-28711205D01*
X5476492Y-28630046D01*
X5476493Y-28630046D01*
X4690646Y-27844200D01*
X4721942Y-27835815D01*
X4853058Y-27760115D01*
X4960115Y-27653058D01*
X5035815Y-27521942D01*
X5044200Y-27490646D01*
X5830046Y-28276493D01*
X5830046Y-28276492D01*
X5911205Y-28164788D01*
X5995177Y-27999986D01*
X9075001Y-27999986D01*
X9085494Y-28102697D01*
X9140641Y-28269119D01*
X9140643Y-28269124D01*
X9232684Y-28418345D01*
X9356654Y-28542315D01*
X9505875Y-28634356D01*
X9505880Y-28634358D01*
X9672302Y-28689505D01*
X9672309Y-28689506D01*
X9775019Y-28699999D01*
X9837499Y-28699998D01*
X9837500Y-28699998D01*
X9837500Y-27750000D01*
X9075001Y-27750000D01*
X9075001Y-27999986D01*
X5995177Y-27999986D01*
X6029116Y-27933377D01*
X6109369Y-27686380D01*
X6110500Y-27679244D01*
X6110500Y-27679242D01*
X6110501Y-27679240D01*
X6150000Y-27429857D01*
X6150000Y-27170142D01*
X6125628Y-27016262D01*
X6123054Y-27000013D01*
X9075000Y-27000013D01*
X9075000Y-27250000D01*
X9837500Y-27250000D01*
X9837500Y-26300000D01*
X10337500Y-26300000D01*
X10337500Y-28699999D01*
X10399972Y-28699999D01*
X10399986Y-28699998D01*
X10502697Y-28689505D01*
X10669119Y-28634358D01*
X10669124Y-28634356D01*
X10818342Y-28542317D01*
X10911964Y-28448695D01*
X10973287Y-28415210D01*
X11042979Y-28420194D01*
X11087327Y-28448695D01*
X11181344Y-28542712D01*
X11330666Y-28634814D01*
X11497203Y-28689999D01*
X11599991Y-28700500D01*
X12000269Y-28700499D01*
X12067308Y-28720183D01*
X12087950Y-28736818D01*
X15142078Y-31790947D01*
X15142085Y-31790953D01*
X15200204Y-31829786D01*
X15200206Y-31829787D01*
X15200209Y-31829789D01*
X15265005Y-31873084D01*
X15401587Y-31929658D01*
X15401591Y-31929658D01*
X15401592Y-31929659D01*
X15546579Y-31958500D01*
X15546582Y-31958500D01*
X15546583Y-31958500D01*
X15694417Y-31958500D01*
X18607896Y-31958500D01*
X18655344Y-31967937D01*
X18679003Y-31977737D01*
X18679008Y-31977738D01*
X18679011Y-31977739D01*
X18833653Y-32008499D01*
X18833656Y-32008500D01*
X18833658Y-32008500D01*
X18991344Y-32008500D01*
X18991345Y-32008499D01*
X19145997Y-31977737D01*
X19291679Y-31917394D01*
X19422789Y-31829789D01*
X19534289Y-31718289D01*
X19621894Y-31587179D01*
X19682237Y-31441497D01*
X19713000Y-31286842D01*
X19713000Y-31129158D01*
X19713000Y-31129155D01*
X19712999Y-31129153D01*
X19699343Y-31060499D01*
X19682237Y-30974503D01*
X19682235Y-30974498D01*
X19621897Y-30828827D01*
X19621890Y-30828814D01*
X19534289Y-30697711D01*
X19534286Y-30697707D01*
X19422792Y-30586213D01*
X19422788Y-30586210D01*
X19291685Y-30498609D01*
X19291672Y-30498602D01*
X19146001Y-30438264D01*
X19145990Y-30438261D01*
X19041059Y-30417388D01*
X18979148Y-30385002D01*
X18944574Y-30324286D01*
X18948315Y-30254517D01*
X18977570Y-30208089D01*
X19042317Y-30143342D01*
X19134356Y-29994124D01*
X19134358Y-29994119D01*
X19189505Y-29827697D01*
X19189506Y-29827690D01*
X19197445Y-29749986D01*
X21775001Y-29749986D01*
X21785494Y-29852697D01*
X21840641Y-30019119D01*
X21840643Y-30019124D01*
X21932684Y-30168345D01*
X22056654Y-30292315D01*
X22205875Y-30384356D01*
X22205880Y-30384358D01*
X22372302Y-30439505D01*
X22372309Y-30439506D01*
X22475019Y-30449999D01*
X22749999Y-30449999D01*
X23250000Y-30449999D01*
X23524972Y-30449999D01*
X23524986Y-30449998D01*
X23627697Y-30439505D01*
X23794119Y-30384358D01*
X23794124Y-30384356D01*
X23943345Y-30292315D01*
X24067315Y-30168345D01*
X24159356Y-30019124D01*
X24159358Y-30019119D01*
X24214505Y-29852697D01*
X24214506Y-29852690D01*
X24224999Y-29749986D01*
X27275001Y-29749986D01*
X27285494Y-29852697D01*
X27340641Y-30019119D01*
X27340643Y-30019124D01*
X27432684Y-30168345D01*
X27556654Y-30292315D01*
X27705875Y-30384356D01*
X27705880Y-30384358D01*
X27872302Y-30439505D01*
X27872309Y-30439506D01*
X27975019Y-30449999D01*
X28249999Y-30449999D01*
X28250000Y-30449998D01*
X28250000Y-29700000D01*
X27275001Y-29700000D01*
X27275001Y-29749986D01*
X24224999Y-29749986D01*
X24225000Y-29749973D01*
X24225000Y-29700000D01*
X23250000Y-29700000D01*
X23250000Y-30449999D01*
X22749999Y-30449999D01*
X22750000Y-30449998D01*
X22750000Y-29700000D01*
X21775001Y-29700000D01*
X21775001Y-29749986D01*
X19197445Y-29749986D01*
X19199999Y-29724986D01*
X19200000Y-29724973D01*
X19200000Y-29662500D01*
X16800001Y-29662500D01*
X16800001Y-29724986D01*
X16810494Y-29827697D01*
X16865641Y-29994119D01*
X16865643Y-29994124D01*
X16957684Y-30143345D01*
X17060158Y-30245819D01*
X17093643Y-30307142D01*
X17088659Y-30376834D01*
X17046787Y-30432767D01*
X16981323Y-30457184D01*
X16972477Y-30457500D01*
X15982730Y-30457500D01*
X15915691Y-30437815D01*
X15895049Y-30421181D01*
X12961818Y-27487950D01*
X12928333Y-27426627D01*
X12925499Y-27400269D01*
X12925499Y-26999998D01*
X12925498Y-26999981D01*
X12914999Y-26897203D01*
X12914998Y-26897200D01*
X12909519Y-26880666D01*
X12859814Y-26730666D01*
X12767712Y-26581344D01*
X12643656Y-26457288D01*
X12550888Y-26400069D01*
X12494336Y-26365187D01*
X12494331Y-26365185D01*
X12468586Y-26356654D01*
X12327797Y-26310001D01*
X12327795Y-26310000D01*
X12225010Y-26299500D01*
X11599998Y-26299500D01*
X11599980Y-26299501D01*
X11497203Y-26310000D01*
X11497200Y-26310001D01*
X11330668Y-26365185D01*
X11330663Y-26365187D01*
X11181345Y-26457287D01*
X11087327Y-26551305D01*
X11026003Y-26584789D01*
X10956312Y-26579805D01*
X10911965Y-26551304D01*
X10818345Y-26457684D01*
X10669124Y-26365643D01*
X10669119Y-26365641D01*
X10502697Y-26310494D01*
X10502690Y-26310493D01*
X10399986Y-26300000D01*
X10337500Y-26300000D01*
X9837500Y-26300000D01*
X9837499Y-26299999D01*
X9775028Y-26300000D01*
X9775011Y-26300001D01*
X9672302Y-26310494D01*
X9505880Y-26365641D01*
X9505875Y-26365643D01*
X9356654Y-26457684D01*
X9232684Y-26581654D01*
X9140643Y-26730875D01*
X9140641Y-26730880D01*
X9085494Y-26897302D01*
X9085493Y-26897309D01*
X9075000Y-27000013D01*
X6123054Y-27000013D01*
X6109370Y-26913622D01*
X6029116Y-26666622D01*
X5911203Y-26435208D01*
X5830048Y-26323506D01*
X5830046Y-26323505D01*
X5044200Y-27109352D01*
X5035815Y-27078058D01*
X4960115Y-26946942D01*
X4853058Y-26839885D01*
X4721942Y-26764185D01*
X4690646Y-26755799D01*
X5476493Y-25969952D01*
X5476492Y-25969951D01*
X5364791Y-25888796D01*
X5133377Y-25770883D01*
X4886377Y-25690629D01*
X4629857Y-25650000D01*
X4370143Y-25650000D01*
X4113622Y-25690629D01*
X3866622Y-25770883D01*
X3635215Y-25888792D01*
X3523506Y-25969952D01*
X4309353Y-26755799D01*
X4278058Y-26764185D01*
X4146942Y-26839885D01*
X4039885Y-26946942D01*
X3964185Y-27078058D01*
X3955799Y-27109353D01*
X3169952Y-26323506D01*
X3088792Y-26435215D01*
X2970883Y-26666622D01*
X2890629Y-26913622D01*
X2850000Y-27170142D01*
X500500Y-27170142D01*
X500500Y-24249986D01*
X16775001Y-24249986D01*
X16785494Y-24352697D01*
X16840641Y-24519119D01*
X16840643Y-24519124D01*
X16932684Y-24668345D01*
X17056654Y-24792315D01*
X17205875Y-24884356D01*
X17205880Y-24884358D01*
X17372302Y-24939505D01*
X17372309Y-24939506D01*
X17475019Y-24949999D01*
X17749999Y-24949999D01*
X18250000Y-24949999D01*
X18524972Y-24949999D01*
X18524986Y-24949998D01*
X18627697Y-24939505D01*
X18794119Y-24884358D01*
X18794124Y-24884356D01*
X18943345Y-24792315D01*
X19067315Y-24668345D01*
X19159356Y-24519124D01*
X19159358Y-24519119D01*
X19214505Y-24352697D01*
X19214506Y-24352690D01*
X19224999Y-24249986D01*
X19225000Y-24249973D01*
X19225000Y-24200000D01*
X18250000Y-24200000D01*
X18250000Y-24949999D01*
X17749999Y-24949999D01*
X17750000Y-24949998D01*
X17750000Y-24200000D01*
X16775001Y-24200000D01*
X16775001Y-24249986D01*
X500500Y-24249986D01*
X500500Y-624500D01*
X520185Y-557461D01*
X572989Y-511706D01*
X624500Y-500500D01*
X44795653Y-500500D01*
X44862692Y-520185D01*
G37*
%TD.AperFunction*%
%TD*%
M02*
