M48
; DRILL file {KiCad 9.0.2} date 2025-07-08T17:36:45+0300
; FORMAT={-:-/ absolute / metric / decimal}
; #@! TF.CreationDate,2025-07-08T17:36:45+03:00
; #@! TF.GenerationSoftware,Kicad,Pcbnew,9.0.2
; #@! TF.FileFunction,Plated,1,2,PTH
FMAT,2
METRIC
; #@! TA.AperFunction,Plated,PTH,ViaDrill
T1C0.300
; #@! TA.AperFunction,Plated,PTH,ComponentDrill
T2C1.150
%
G90
G05
T1
X7.043Y-28.36
X9.713Y-7.944
X9.728Y-16.584
X11.689Y-15.255
X13.039Y-10.295
X18.056Y-4.734
X19.012Y-27.981
X19.114Y-13.995
X19.527Y-22.416
X19.902Y-21.259
X27.657Y-15.825
X27.657Y-24.965
X32.626Y-22.088
X39.445Y-10.279
X42.136Y-13.957
X42.151Y-22.912
X45.188Y-31.158
X45.379Y-12.789
X45.795Y-7.435
X46.61Y-13.013
X48.311Y-3.867
X48.519Y-13.426
X48.537Y-16.445
X49.239Y-12.503
X50.5Y-19.724
X50.755Y-6.064
X50.836Y-11.319
X51.032Y-3.376
X51.032Y-17.165
X51.615Y-25.135
X51.797Y-28.09
X51.853Y-19.272
X54.087Y-19.955
X58.627Y-20.188
X58.916Y-10.304
X59.797Y-7.331
X62.719Y-7.784
X65.585Y-4.358
T2
X5.0Y-13.688
X5.0Y-18.488
X36.2Y-3.5
X41.0Y-3.5
X62.0Y-17.787
X62.0Y-22.587
X62.0Y-27.387
M30
