%TF.GenerationSoftware,KiCad,Pcbnew,9.0.2*%
%TF.CreationDate,2025-07-08T17:36:14+03:00*%
%TF.ProjectId,rechargeble_pack,72656368-6172-4676-9562-6c655f706163,rev?*%
%TF.SameCoordinates,Original*%
%TF.FileFunction,Copper,L2,Bot*%
%TF.FilePolarity,Positive*%
%FSLAX46Y46*%
G04 Gerber Fmt 4.6, Leading zero omitted, Abs format (unit mm)*
G04 Created by KiCad (PCBNEW 9.0.2) date 2025-07-08 17:36:14*
%MOMM*%
%LPD*%
G01*
G04 APERTURE LIST*
G04 Aperture macros list*
%AMRoundRect*
0 Rectangle with rounded corners*
0 $1 Rounding radius*
0 $2 $3 $4 $5 $6 $7 $8 $9 X,Y pos of 4 corners*
0 Add a 4 corners polygon primitive as box body*
4,1,4,$2,$3,$4,$5,$6,$7,$8,$9,$2,$3,0*
0 Add four circle primitives for the rounded corners*
1,1,$1+$1,$2,$3*
1,1,$1+$1,$4,$5*
1,1,$1+$1,$6,$7*
1,1,$1+$1,$8,$9*
0 Add four rect primitives between the rounded corners*
20,1,$1+$1,$2,$3,$4,$5,0*
20,1,$1+$1,$4,$5,$6,$7,0*
20,1,$1+$1,$6,$7,$8,$9,0*
20,1,$1+$1,$8,$9,$2,$3,0*%
G04 Aperture macros list end*
%TA.AperFunction,ComponentPad*%
%ADD10RoundRect,0.250001X-0.899999X-0.899999X0.899999X-0.899999X0.899999X0.899999X-0.899999X0.899999X0*%
%TD*%
%TA.AperFunction,ComponentPad*%
%ADD11C,2.300000*%
%TD*%
%TA.AperFunction,ComponentPad*%
%ADD12RoundRect,0.250001X-0.899999X0.899999X-0.899999X-0.899999X0.899999X-0.899999X0.899999X0.899999X0*%
%TD*%
%TA.AperFunction,ViaPad*%
%ADD13C,0.600000*%
%TD*%
%TA.AperFunction,Conductor*%
%ADD14C,0.300000*%
%TD*%
%TA.AperFunction,Conductor*%
%ADD15C,0.600000*%
%TD*%
%TA.AperFunction,Conductor*%
%ADD16C,0.500000*%
%TD*%
G04 APERTURE END LIST*
D10*
%TO.P,J2,1,Pin_1*%
%TO.N,+BATT*%
X36200000Y-3500000D03*
D11*
%TO.P,J2,2,Pin_2*%
%TO.N,GND*%
X41000000Y-3500000D03*
%TD*%
D12*
%TO.P,J1,1,Pin_1*%
%TO.N,+9V*%
X62000000Y-17787500D03*
D11*
%TO.P,J1,2,Pin_2*%
%TO.N,GND*%
X62000000Y-22587500D03*
%TO.P,J1,3,Pin_3*%
%TO.N,/OUT_EN*%
X62000000Y-27387500D03*
%TD*%
D12*
%TO.P,J3,1,Pin_1*%
%TO.N,VBUS*%
X5000000Y-13687500D03*
D11*
%TO.P,J3,2,Pin_2*%
%TO.N,GND*%
X5000000Y-18487500D03*
%TD*%
D13*
%TO.N,Net-(U1-PROG)*%
X9728200Y-16583600D03*
X19526800Y-22415600D03*
%TO.N,Net-(Q7-C)*%
X51031500Y-17165300D03*
X50835900Y-11319400D03*
%TO.N,Net-(Q7-B)*%
X51853400Y-19272200D03*
X45187900Y-31157900D03*
%TO.N,Net-(D4-K)*%
X11689100Y-15255000D03*
X7043400Y-28360300D03*
%TO.N,Net-(D3-K)*%
X13039500Y-10295400D03*
X9712800Y-7944000D03*
%TO.N,Net-(D1-A)*%
X49239300Y-12503100D03*
X51031500Y-3375900D03*
%TO.N,Net-(D2-K)*%
X18056000Y-4734500D03*
X19114400Y-13995400D03*
%TO.N,Net-(U2-FB)*%
X42136300Y-13957000D03*
X42151100Y-22912500D03*
%TO.N,Net-(Q2-C)*%
X51615500Y-25134700D03*
X50499900Y-19724100D03*
%TO.N,Net-(D1-K)*%
X19012300Y-27981300D03*
X19902200Y-21259300D03*
%TO.N,VCC*%
X50754800Y-6064100D03*
X48518600Y-13426300D03*
X27657100Y-15824800D03*
X27657100Y-24965300D03*
%TO.N,Net-(C4-Pad2)*%
X45795500Y-7435300D03*
X45379200Y-12788900D03*
%TO.N,+9V*%
X65584800Y-4358400D03*
X32626200Y-22087800D03*
X48310800Y-3866700D03*
%TO.N,+10V*%
X59796900Y-7331200D03*
X54087500Y-19954900D03*
X51796600Y-28090100D03*
%TO.N,Net-(Q6-B)*%
X58627000Y-20188000D03*
X62718700Y-7784100D03*
X48536900Y-16444700D03*
X46609600Y-13013500D03*
%TO.N,GND*%
X58916500Y-10304000D03*
X39444800Y-10279000D03*
%TD*%
D14*
%TO.N,Net-(U1-PROG)*%
X19100500Y-21989300D02*
X19526800Y-22415600D01*
X19100500Y-21520600D02*
X19100500Y-21989300D01*
X11999200Y-14419300D02*
X19100500Y-21520600D01*
X11351400Y-14419300D02*
X11999200Y-14419300D01*
X9728200Y-16042500D02*
X11351400Y-14419300D01*
X9728200Y-16583600D02*
X9728200Y-16042500D01*
%TO.N,Net-(Q7-C)*%
X51031500Y-11515000D02*
X50835900Y-11319400D01*
X51031500Y-17165300D02*
X51031500Y-11515000D01*
%TO.N,Net-(Q7-B)*%
X46797000Y-31157900D02*
X45187900Y-31157900D01*
X52428200Y-25526700D02*
X46797000Y-31157900D01*
X52428200Y-19847000D02*
X52428200Y-25526700D01*
X51853400Y-19272200D02*
X52428200Y-19847000D01*
%TO.N,Net-(D4-K)*%
X11689100Y-23714600D02*
X7043400Y-28360300D01*
X11689100Y-15255000D02*
X11689100Y-23714600D01*
%TO.N,Net-(D3-K)*%
X12064200Y-10295400D02*
X9712800Y-7944000D01*
X13039500Y-10295400D02*
X12064200Y-10295400D01*
%TO.N,Net-(D1-A)*%
X49239300Y-9922600D02*
X49239300Y-12503100D01*
X51562800Y-7599100D02*
X49239300Y-9922600D01*
X51562800Y-3907200D02*
X51562800Y-7599100D01*
X51031500Y-3375900D02*
X51562800Y-3907200D01*
%TO.N,Net-(D2-K)*%
X19114400Y-5792800D02*
X19114400Y-13995400D01*
X19114300Y-5792800D02*
X19114400Y-5792800D01*
X18056000Y-4734500D02*
X19114300Y-5792800D01*
%TO.N,Net-(U2-FB)*%
X42151100Y-13971800D02*
X42151100Y-22912500D01*
X42136300Y-13957000D02*
X42151100Y-13971800D01*
%TO.N,Net-(Q2-C)*%
X50499900Y-24019100D02*
X50499900Y-19724100D01*
X51615500Y-25134700D02*
X50499900Y-24019100D01*
X50499900Y-19724100D02*
X50499900Y-19900800D01*
X50499900Y-19900800D02*
X50499900Y-19724100D01*
%TO.N,Net-(D1-K)*%
X20336300Y-21693400D02*
X19902200Y-21259300D01*
X20336300Y-26657300D02*
X20336300Y-21693400D01*
X19012300Y-27981300D02*
X20336300Y-26657300D01*
X19902200Y-21259300D02*
X19902200Y-21084000D01*
X19902200Y-21084000D02*
X19902200Y-21259300D01*
X19012300Y-27981300D02*
X18618500Y-27587500D01*
X18618500Y-27587500D02*
X19012300Y-27981300D01*
D15*
%TO.N,VCC*%
X27657100Y-15824800D02*
X27657100Y-24965300D01*
X48287600Y-13195300D02*
X48518600Y-13426300D01*
X48287600Y-8531300D02*
X48287600Y-13195300D01*
X50754800Y-6064100D02*
X48287600Y-8531300D01*
D14*
%TO.N,Net-(C4-Pad2)*%
X45795500Y-12372600D02*
X45379200Y-12788900D01*
X45795500Y-7435300D02*
X45795500Y-12372600D01*
D15*
%TO.N,+9V*%
X65584800Y-14202700D02*
X62000000Y-17787500D01*
X65584800Y-4358400D02*
X65584800Y-14202700D01*
X32626200Y-19258700D02*
X32626200Y-22087800D01*
X48018200Y-3866700D02*
X32626200Y-19258700D01*
X48310800Y-3866700D02*
X48018200Y-3866700D01*
%TO.N,+10V*%
X54087500Y-13040600D02*
X54087500Y-19954900D01*
X59796900Y-7331200D02*
X54087500Y-13040600D01*
X54087500Y-25799200D02*
X51796600Y-28090100D01*
X54087500Y-19954900D02*
X54087500Y-25799200D01*
D14*
%TO.N,Net-(Q6-B)*%
X58627000Y-11875800D02*
X58627000Y-20188000D01*
X62718700Y-7784100D02*
X58627000Y-11875800D01*
X48536900Y-14940800D02*
X48536900Y-16444700D01*
X46609600Y-13013500D02*
X48536900Y-14940800D01*
D16*
%TO.N,GND*%
X57648800Y-11571700D02*
X58916500Y-10304000D01*
X57648800Y-20524000D02*
X57648800Y-11571700D01*
X59712300Y-22587500D02*
X57648800Y-20524000D01*
X62000000Y-22587500D02*
X59712300Y-22587500D01*
X41000000Y-8723800D02*
X39444800Y-10279000D01*
X41000000Y-3500000D02*
X41000000Y-8723800D01*
%TD*%
M02*
