%TF.GenerationSoftware,KiCad,Pcbnew,9.0.5*%
%TF.CreationDate,2025-10-22T07:49:07+03:00*%
%TF.ProjectId,rechargeble_pack,72656368-6172-4676-9562-6c655f706163,rev?*%
%TF.SameCoordinates,Original*%
%TF.FileFunction,Paste,Top*%
%TF.FilePolarity,Positive*%
%FSLAX46Y46*%
G04 Gerber Fmt 4.6, Leading zero omitted, Abs format (unit mm)*
G04 Created by KiCad (PCBNEW 9.0.5) date 2025-10-22 07:49:07*
%MOMM*%
%LPD*%
G01*
G04 APERTURE LIST*
G04 Aperture macros list*
%AMRoundRect*
0 Rectangle with rounded corners*
0 $1 Rounding radius*
0 $2 $3 $4 $5 $6 $7 $8 $9 X,Y pos of 4 corners*
0 Add a 4 corners polygon primitive as box body*
4,1,4,$2,$3,$4,$5,$6,$7,$8,$9,$2,$3,0*
0 Add four circle primitives for the rounded corners*
1,1,$1+$1,$2,$3*
1,1,$1+$1,$4,$5*
1,1,$1+$1,$6,$7*
1,1,$1+$1,$8,$9*
0 Add four rect primitives between the rounded corners*
20,1,$1+$1,$2,$3,$4,$5,0*
20,1,$1+$1,$4,$5,$6,$7,0*
20,1,$1+$1,$6,$7,$8,$9,0*
20,1,$1+$1,$8,$9,$2,$3,0*%
G04 Aperture macros list end*
%ADD10RoundRect,0.250000X-0.457500X-0.445000X0.457500X-0.445000X0.457500X0.445000X-0.457500X0.445000X0*%
%ADD11RoundRect,0.140000X-0.140000X-0.170000X0.140000X-0.170000X0.140000X0.170000X-0.140000X0.170000X0*%
%ADD12RoundRect,0.250000X-0.945000X0.420000X-0.945000X-0.420000X0.945000X-0.420000X0.945000X0.420000X0*%
%ADD13RoundRect,0.250000X-0.450000X0.262500X-0.450000X-0.262500X0.450000X-0.262500X0.450000X0.262500X0*%
%ADD14RoundRect,0.250000X-0.475000X0.250000X-0.475000X-0.250000X0.475000X-0.250000X0.475000X0.250000X0*%
%ADD15RoundRect,0.150000X0.150000X-0.587500X0.150000X0.587500X-0.150000X0.587500X-0.150000X-0.587500X0*%
%ADD16RoundRect,0.250000X-0.262500X-0.450000X0.262500X-0.450000X0.262500X0.450000X-0.262500X0.450000X0*%
%ADD17RoundRect,0.218750X-0.218750X-0.381250X0.218750X-0.381250X0.218750X0.381250X-0.218750X0.381250X0*%
%ADD18RoundRect,0.250000X0.450000X-0.262500X0.450000X0.262500X-0.450000X0.262500X-0.450000X-0.262500X0*%
%ADD19RoundRect,0.250000X0.475000X-0.250000X0.475000X0.250000X-0.475000X0.250000X-0.475000X-0.250000X0*%
%ADD20RoundRect,0.243750X-0.456250X0.243750X-0.456250X-0.243750X0.456250X-0.243750X0.456250X0.243750X0*%
%ADD21RoundRect,0.250000X-0.250000X-0.475000X0.250000X-0.475000X0.250000X0.475000X-0.250000X0.475000X0*%
%ADD22RoundRect,0.150000X0.587500X0.150000X-0.587500X0.150000X-0.587500X-0.150000X0.587500X-0.150000X0*%
%ADD23RoundRect,0.218750X-0.381250X0.218750X-0.381250X-0.218750X0.381250X-0.218750X0.381250X0.218750X0*%
%ADD24RoundRect,0.243750X0.456250X-0.243750X0.456250X0.243750X-0.456250X0.243750X-0.456250X-0.243750X0*%
%ADD25RoundRect,0.250000X0.445000X-0.457500X0.445000X0.457500X-0.445000X0.457500X-0.445000X-0.457500X0*%
%ADD26RoundRect,0.250000X0.457500X0.445000X-0.457500X0.445000X-0.457500X-0.445000X0.457500X-0.445000X0*%
%ADD27RoundRect,0.150000X-0.512500X-0.150000X0.512500X-0.150000X0.512500X0.150000X-0.512500X0.150000X0*%
%ADD28RoundRect,0.250000X-0.785000X-1.045000X0.785000X-1.045000X0.785000X1.045000X-0.785000X1.045000X0*%
%ADD29RoundRect,0.218750X0.218750X0.381250X-0.218750X0.381250X-0.218750X-0.381250X0.218750X-0.381250X0*%
%ADD30RoundRect,0.150000X0.825000X0.150000X-0.825000X0.150000X-0.825000X-0.150000X0.825000X-0.150000X0*%
%ADD31RoundRect,0.250000X0.262500X0.450000X-0.262500X0.450000X-0.262500X-0.450000X0.262500X-0.450000X0*%
G04 APERTURE END LIST*
D10*
%TO.C,C13*%
X14647500Y-4000000D03*
X17352500Y-4000000D03*
%TD*%
D11*
%TO.C,C10*%
X59020000Y-9500000D03*
X59980000Y-9500000D03*
%TD*%
D12*
%TO.C,C7*%
X65000000Y-7960000D03*
X65000000Y-11040000D03*
%TD*%
D13*
%TO.C,R11*%
X4500000Y-14587500D03*
X4500000Y-16412500D03*
%TD*%
D14*
%TO.C,C9*%
X54500000Y-15000000D03*
X54500000Y-16900000D03*
%TD*%
%TO.C,C11*%
X60000000Y-15000000D03*
X60000000Y-16900000D03*
%TD*%
%TO.C,C14*%
X18000000Y-22050000D03*
X18000000Y-23950000D03*
%TD*%
D13*
%TO.C,R1*%
X43500000Y-28087500D03*
X43500000Y-29912500D03*
%TD*%
D15*
%TO.C,Q6*%
X42550000Y-22375000D03*
X44450000Y-22375000D03*
X43500000Y-20500000D03*
%TD*%
D16*
%TO.C,R2*%
X58587500Y-21500000D03*
X60412500Y-21500000D03*
%TD*%
D13*
%TO.C,R10*%
X8500000Y-14587500D03*
X8500000Y-16412500D03*
%TD*%
D17*
%TO.C,L1*%
X29937500Y-11000000D03*
X32062500Y-11000000D03*
%TD*%
D18*
%TO.C,R3*%
X60000000Y-28912500D03*
X60000000Y-27087500D03*
%TD*%
D19*
%TO.C,C1*%
X49500000Y-29900000D03*
X49500000Y-28000000D03*
%TD*%
D13*
%TO.C,R9*%
X18000000Y-27587500D03*
X18000000Y-29412500D03*
%TD*%
D14*
%TO.C,C8*%
X28500000Y-27550000D03*
X28500000Y-29450000D03*
%TD*%
D20*
%TO.C,D4*%
X8500000Y-9625000D03*
X8500000Y-11500000D03*
%TD*%
D21*
%TO.C,C4*%
X53050000Y-21000000D03*
X54950000Y-21000000D03*
%TD*%
D22*
%TO.C,Q7*%
X43375000Y-14450000D03*
X43375000Y-12550000D03*
X41500000Y-13500000D03*
%TD*%
D23*
%TO.C,L3*%
X24000000Y-9437500D03*
X24000000Y-11562500D03*
%TD*%
D24*
%TO.C,D2*%
X23000000Y-24000000D03*
X23000000Y-22125000D03*
%TD*%
%TO.C,D1*%
X65000000Y-4937500D03*
X65000000Y-3062500D03*
%TD*%
D15*
%TO.C,Q1*%
X27500000Y-4000000D03*
X26500000Y-6000000D03*
X28500000Y-6000000D03*
%TD*%
D25*
%TO.C,C6*%
X44000000Y-6352500D03*
X44000000Y-3647500D03*
%TD*%
D26*
%TO.C,C2*%
X37352500Y-28000000D03*
X34647500Y-28000000D03*
%TD*%
D16*
%TO.C,R5*%
X48587500Y-19500000D03*
X50412500Y-19500000D03*
%TD*%
D13*
%TO.C,R6*%
X49500000Y-4175000D03*
X49500000Y-6000000D03*
%TD*%
D27*
%TO.C,U2*%
X35362500Y-20050000D03*
X35362500Y-21000000D03*
X35362500Y-21950000D03*
X37637500Y-21950000D03*
X37637500Y-20050000D03*
%TD*%
D28*
%TO.C,C5*%
X24260000Y-18000000D03*
X30500000Y-18000000D03*
%TD*%
D29*
%TO.C,L2*%
X50562500Y-25000000D03*
X48437500Y-25000000D03*
%TD*%
D25*
%TO.C,C3*%
X55000000Y-29852500D03*
X55000000Y-27147500D03*
%TD*%
D13*
%TO.C,R7*%
X55000000Y-5175000D03*
X55000000Y-7000000D03*
%TD*%
D30*
%TO.C,U1*%
X18070000Y-16880000D03*
X18070000Y-15610000D03*
X18070000Y-14340000D03*
X18070000Y-13070000D03*
X13120000Y-13070000D03*
X13120000Y-14340000D03*
X13120000Y-15610000D03*
X13120000Y-16880000D03*
%TD*%
D15*
%TO.C,Q2*%
X58550000Y-4937500D03*
X60450000Y-4937500D03*
X59500000Y-3062500D03*
%TD*%
D13*
%TO.C,R8*%
X55000000Y-9087500D03*
X55000000Y-10912500D03*
%TD*%
%TO.C,R4*%
X49000000Y-12587500D03*
X49000000Y-14412500D03*
%TD*%
D14*
%TO.C,C12*%
X23000000Y-27550000D03*
X23000000Y-29450000D03*
%TD*%
D31*
%TO.C,Rref1*%
X11912500Y-27500000D03*
X10087500Y-27500000D03*
%TD*%
D20*
%TO.C,D3*%
X4500000Y-9562500D03*
X4500000Y-11437500D03*
%TD*%
M02*
