%TF.GenerationSoftware,KiCad,Pcbnew,9.0.2*%
%TF.CreationDate,2025-07-10T14:50:25+03:00*%
%TF.ProjectId,rechargeble_pack,72656368-6172-4676-9562-6c655f706163,rev?*%
%TF.SameCoordinates,Original*%
%TF.FileFunction,Copper,L2,Bot*%
%TF.FilePolarity,Positive*%
%FSLAX46Y46*%
G04 Gerber Fmt 4.6, Leading zero omitted, Abs format (unit mm)*
G04 Created by KiCad (PCBNEW 9.0.2) date 2025-07-10 14:50:25*
%MOMM*%
%LPD*%
G01*
G04 APERTURE LIST*
G04 Aperture macros list*
%AMRoundRect*
0 Rectangle with rounded corners*
0 $1 Rounding radius*
0 $2 $3 $4 $5 $6 $7 $8 $9 X,Y pos of 4 corners*
0 Add a 4 corners polygon primitive as box body*
4,1,4,$2,$3,$4,$5,$6,$7,$8,$9,$2,$3,0*
0 Add four circle primitives for the rounded corners*
1,1,$1+$1,$2,$3*
1,1,$1+$1,$4,$5*
1,1,$1+$1,$6,$7*
1,1,$1+$1,$8,$9*
0 Add four rect primitives between the rounded corners*
20,1,$1+$1,$2,$3,$4,$5,0*
20,1,$1+$1,$4,$5,$6,$7,0*
20,1,$1+$1,$6,$7,$8,$9,0*
20,1,$1+$1,$8,$9,$2,$3,0*%
G04 Aperture macros list end*
%TA.AperFunction,ComponentPad*%
%ADD10RoundRect,0.250001X-0.899999X-0.899999X0.899999X-0.899999X0.899999X0.899999X-0.899999X0.899999X0*%
%TD*%
%TA.AperFunction,ComponentPad*%
%ADD11C,2.300000*%
%TD*%
%TA.AperFunction,ComponentPad*%
%ADD12RoundRect,0.250001X0.899999X-0.899999X0.899999X0.899999X-0.899999X0.899999X-0.899999X-0.899999X0*%
%TD*%
%TA.AperFunction,ComponentPad*%
%ADD13RoundRect,0.250001X-0.899999X0.899999X-0.899999X-0.899999X0.899999X-0.899999X0.899999X0.899999X0*%
%TD*%
%TA.AperFunction,ViaPad*%
%ADD14C,0.600000*%
%TD*%
%TA.AperFunction,Conductor*%
%ADD15C,1.000000*%
%TD*%
%TA.AperFunction,Conductor*%
%ADD16C,0.600000*%
%TD*%
%TA.AperFunction,Conductor*%
%ADD17C,0.500000*%
%TD*%
G04 APERTURE END LIST*
D10*
%TO.P,J2,1,Pin_1*%
%TO.N,+BATT*%
X34500000Y-3500000D03*
D11*
%TO.P,J2,2,Pin_2*%
%TO.N,GND*%
X39300000Y-3500000D03*
%TD*%
D12*
%TO.P,J1,1,Pin_1*%
%TO.N,+9V*%
X65500000Y-28100000D03*
D11*
%TO.P,J1,2,Pin_2*%
%TO.N,GND*%
X65500000Y-23300000D03*
%TO.P,J1,3,Pin_3*%
%TO.N,/OUT_EN*%
X65500000Y-18500000D03*
%TD*%
D13*
%TO.P,J3,1,Pin_1*%
%TO.N,VBUS*%
X4500000Y-22500000D03*
D11*
%TO.P,J3,2,Pin_2*%
%TO.N,GND*%
X4500000Y-27300000D03*
%TD*%
D14*
%TO.N,GND*%
X33387200Y-19217700D03*
X39300000Y-7735000D03*
%TO.N,+10V*%
X51087500Y-22740800D03*
X47326800Y-19843900D03*
%TO.N,+9V*%
X61545300Y-23332600D03*
%TO.N,Net-(Q2-C)*%
X56937500Y-15681600D03*
X57050500Y-6938700D03*
X54012500Y-25060300D03*
X57050500Y-9715000D03*
%TO.N,Net-(U2-FB)*%
X45732800Y-9715000D03*
X38112800Y-22966100D03*
%TO.N,Net-(D2-K)*%
X25291300Y-9849200D03*
X24963000Y-25168000D03*
%TO.N,Net-(D1-A)*%
X45237500Y-1441000D03*
X41804400Y-10563900D03*
X35987200Y-18889300D03*
%TO.N,Net-(U1-PROG)*%
X16413000Y-15513200D03*
X18912500Y-31208000D03*
%TD*%
D15*
%TO.N,GND*%
X39300000Y-7735000D02*
X39300000Y-13304900D01*
D16*
X39387500Y-7735000D02*
X39300000Y-7735000D01*
D15*
X39300000Y-3500000D02*
X39300000Y-7735000D01*
D16*
X39387500Y-7735000D02*
X39300000Y-7735000D01*
D15*
X39300000Y-13304900D02*
X33387200Y-19217700D01*
%TO.N,+10V*%
X47326800Y-19843900D02*
X48190600Y-19843900D01*
D16*
X51087500Y-22740800D02*
X50696700Y-22740800D01*
D15*
X50696700Y-22740800D02*
X51087500Y-22740800D01*
X48190600Y-19843900D02*
X51087500Y-22740800D01*
%TO.N,+9V*%
X61545300Y-24145300D02*
X65500000Y-28100000D01*
X61545300Y-23332600D02*
X61545300Y-24145300D01*
%TO.N,Net-(Q2-C)*%
X54012500Y-25060300D02*
X56937500Y-22135300D01*
D17*
X56937500Y-15681600D02*
X57050500Y-15568600D01*
D15*
X56937500Y-22135300D02*
X56937500Y-15681600D01*
X57050500Y-9715000D02*
X57050500Y-6938700D01*
X57050500Y-15568600D02*
X57050500Y-9715000D01*
%TO.N,Net-(U2-FB)*%
X45732800Y-15346100D02*
X45732800Y-9715000D01*
X38112800Y-22966100D02*
X45732800Y-15346100D01*
D17*
%TO.N,Net-(D2-K)*%
X24963000Y-10177500D02*
X25291300Y-9849200D01*
D15*
X24963000Y-25168000D02*
X24963000Y-10177500D01*
%TO.N,Net-(D1-A)*%
X41804400Y-13072100D02*
X35831000Y-19045500D01*
X41804400Y-10563900D02*
X41804400Y-13072100D01*
D17*
X35831000Y-19045500D02*
X35987200Y-18889300D01*
D15*
X45237500Y-7130800D02*
X45237500Y-1441000D01*
X41804400Y-10563900D02*
X45237500Y-7130800D01*
%TO.N,Net-(U1-PROG)*%
X18912500Y-31208000D02*
X16413000Y-28708500D01*
X16413000Y-28708500D02*
X16413000Y-15513200D01*
%TD*%
M02*
