%TF.GenerationSoftware,KiCad,Pcbnew,9.0.2*%
%TF.CreationDate,2025-07-08T17:36:14+03:00*%
%TF.ProjectId,rechargeble_pack,72656368-6172-4676-9562-6c655f706163,rev?*%
%TF.SameCoordinates,Original*%
%TF.FileFunction,Copper,L1,Top*%
%TF.FilePolarity,Positive*%
%FSLAX46Y46*%
G04 Gerber Fmt 4.6, Leading zero omitted, Abs format (unit mm)*
G04 Created by KiCad (PCBNEW 9.0.2) date 2025-07-08 17:36:14*
%MOMM*%
%LPD*%
G01*
G04 APERTURE LIST*
G04 Aperture macros list*
%AMRoundRect*
0 Rectangle with rounded corners*
0 $1 Rounding radius*
0 $2 $3 $4 $5 $6 $7 $8 $9 X,Y pos of 4 corners*
0 Add a 4 corners polygon primitive as box body*
4,1,4,$2,$3,$4,$5,$6,$7,$8,$9,$2,$3,0*
0 Add four circle primitives for the rounded corners*
1,1,$1+$1,$2,$3*
1,1,$1+$1,$4,$5*
1,1,$1+$1,$6,$7*
1,1,$1+$1,$8,$9*
0 Add four rect primitives between the rounded corners*
20,1,$1+$1,$2,$3,$4,$5,0*
20,1,$1+$1,$4,$5,$6,$7,0*
20,1,$1+$1,$6,$7,$8,$9,0*
20,1,$1+$1,$8,$9,$2,$3,0*%
G04 Aperture macros list end*
%TA.AperFunction,SMDPad,CuDef*%
%ADD10RoundRect,0.250000X0.457500X0.445000X-0.457500X0.445000X-0.457500X-0.445000X0.457500X-0.445000X0*%
%TD*%
%TA.AperFunction,SMDPad,CuDef*%
%ADD11RoundRect,0.140000X-0.170000X0.140000X-0.170000X-0.140000X0.170000X-0.140000X0.170000X0.140000X0*%
%TD*%
%TA.AperFunction,SMDPad,CuDef*%
%ADD12RoundRect,0.250000X0.420000X0.945000X-0.420000X0.945000X-0.420000X-0.945000X0.420000X-0.945000X0*%
%TD*%
%TA.AperFunction,SMDPad,CuDef*%
%ADD13RoundRect,0.250000X-0.450000X0.262500X-0.450000X-0.262500X0.450000X-0.262500X0.450000X0.262500X0*%
%TD*%
%TA.AperFunction,SMDPad,CuDef*%
%ADD14RoundRect,0.250000X-0.475000X0.250000X-0.475000X-0.250000X0.475000X-0.250000X0.475000X0.250000X0*%
%TD*%
%TA.AperFunction,SMDPad,CuDef*%
%ADD15RoundRect,0.250000X0.475000X-0.250000X0.475000X0.250000X-0.475000X0.250000X-0.475000X-0.250000X0*%
%TD*%
%TA.AperFunction,SMDPad,CuDef*%
%ADD16RoundRect,0.250000X0.250000X0.475000X-0.250000X0.475000X-0.250000X-0.475000X0.250000X-0.475000X0*%
%TD*%
%TA.AperFunction,SMDPad,CuDef*%
%ADD17RoundRect,0.250000X-0.262500X-0.450000X0.262500X-0.450000X0.262500X0.450000X-0.262500X0.450000X0*%
%TD*%
%TA.AperFunction,SMDPad,CuDef*%
%ADD18RoundRect,0.150000X0.587500X0.150000X-0.587500X0.150000X-0.587500X-0.150000X0.587500X-0.150000X0*%
%TD*%
%TA.AperFunction,SMDPad,CuDef*%
%ADD19RoundRect,0.250000X0.262500X0.450000X-0.262500X0.450000X-0.262500X-0.450000X0.262500X-0.450000X0*%
%TD*%
%TA.AperFunction,SMDPad,CuDef*%
%ADD20RoundRect,0.218750X0.218750X0.381250X-0.218750X0.381250X-0.218750X-0.381250X0.218750X-0.381250X0*%
%TD*%
%TA.AperFunction,ComponentPad*%
%ADD21RoundRect,0.250001X-0.899999X-0.899999X0.899999X-0.899999X0.899999X0.899999X-0.899999X0.899999X0*%
%TD*%
%TA.AperFunction,ComponentPad*%
%ADD22C,2.300000*%
%TD*%
%TA.AperFunction,SMDPad,CuDef*%
%ADD23RoundRect,0.243750X0.456250X-0.243750X0.456250X0.243750X-0.456250X0.243750X-0.456250X-0.243750X0*%
%TD*%
%TA.AperFunction,SMDPad,CuDef*%
%ADD24RoundRect,0.218750X-0.218750X-0.381250X0.218750X-0.381250X0.218750X0.381250X-0.218750X0.381250X0*%
%TD*%
%TA.AperFunction,SMDPad,CuDef*%
%ADD25RoundRect,0.243750X0.243750X0.456250X-0.243750X0.456250X-0.243750X-0.456250X0.243750X-0.456250X0*%
%TD*%
%TA.AperFunction,SMDPad,CuDef*%
%ADD26RoundRect,0.243750X-0.456250X0.243750X-0.456250X-0.243750X0.456250X-0.243750X0.456250X0.243750X0*%
%TD*%
%TA.AperFunction,SMDPad,CuDef*%
%ADD27RoundRect,0.150000X0.150000X-0.587500X0.150000X0.587500X-0.150000X0.587500X-0.150000X-0.587500X0*%
%TD*%
%TA.AperFunction,SMDPad,CuDef*%
%ADD28RoundRect,0.250000X-0.457500X-0.445000X0.457500X-0.445000X0.457500X0.445000X-0.457500X0.445000X0*%
%TD*%
%TA.AperFunction,SMDPad,CuDef*%
%ADD29RoundRect,0.250000X0.445000X-0.457500X0.445000X0.457500X-0.445000X0.457500X-0.445000X-0.457500X0*%
%TD*%
%TA.AperFunction,SMDPad,CuDef*%
%ADD30RoundRect,0.250000X0.450000X-0.262500X0.450000X0.262500X-0.450000X0.262500X-0.450000X-0.262500X0*%
%TD*%
%TA.AperFunction,SMDPad,CuDef*%
%ADD31RoundRect,0.150000X0.512500X0.150000X-0.512500X0.150000X-0.512500X-0.150000X0.512500X-0.150000X0*%
%TD*%
%TA.AperFunction,SMDPad,CuDef*%
%ADD32RoundRect,0.250000X-0.785000X-1.045000X0.785000X-1.045000X0.785000X1.045000X-0.785000X1.045000X0*%
%TD*%
%TA.AperFunction,ComponentPad*%
%ADD33RoundRect,0.250001X-0.899999X0.899999X-0.899999X-0.899999X0.899999X-0.899999X0.899999X0.899999X0*%
%TD*%
%TA.AperFunction,SMDPad,CuDef*%
%ADD34RoundRect,0.218750X-0.381250X0.218750X-0.381250X-0.218750X0.381250X-0.218750X0.381250X0.218750X0*%
%TD*%
%TA.AperFunction,SMDPad,CuDef*%
%ADD35RoundRect,0.150000X0.150000X-0.825000X0.150000X0.825000X-0.150000X0.825000X-0.150000X-0.825000X0*%
%TD*%
%TA.AperFunction,SMDPad,CuDef*%
%ADD36RoundRect,0.150000X-0.587500X-0.150000X0.587500X-0.150000X0.587500X0.150000X-0.587500X0.150000X0*%
%TD*%
%TA.AperFunction,SMDPad,CuDef*%
%ADD37RoundRect,0.250000X-0.250000X-0.475000X0.250000X-0.475000X0.250000X0.475000X-0.250000X0.475000X0*%
%TD*%
%TA.AperFunction,ViaPad*%
%ADD38C,0.600000*%
%TD*%
%TA.AperFunction,Conductor*%
%ADD39C,0.300000*%
%TD*%
%TA.AperFunction,Conductor*%
%ADD40C,0.600000*%
%TD*%
%TA.AperFunction,Conductor*%
%ADD41C,0.500000*%
%TD*%
G04 APERTURE END LIST*
D10*
%TO.P,C13,1*%
%TO.N,+BATT*%
X29352500Y-5087500D03*
%TO.P,C13,2*%
%TO.N,GND*%
X26647500Y-5087500D03*
%TD*%
D11*
%TO.P,C10,1*%
%TO.N,Net-(Q2-C)*%
X44500000Y-22087500D03*
%TO.P,C10,2*%
%TO.N,Net-(U2-FB)*%
X44500000Y-23047500D03*
%TD*%
D12*
%TO.P,C7,1*%
%TO.N,Net-(D1-K)*%
X17249800Y-27587500D03*
%TO.P,C7,2*%
%TO.N,GND*%
X14169800Y-27587500D03*
%TD*%
D13*
%TO.P,R11,1*%
%TO.N,Net-(D3-A)*%
X10500000Y-4675000D03*
%TO.P,R11,2*%
%TO.N,VBUS*%
X10500000Y-6500000D03*
%TD*%
D14*
%TO.P,C9,1*%
%TO.N,Net-(Q2-C)*%
X50500000Y-21137500D03*
%TO.P,C9,2*%
%TO.N,GND*%
X50500000Y-23037500D03*
%TD*%
D15*
%TO.P,C11,1*%
%TO.N,VCC*%
X62000000Y-13450000D03*
%TO.P,C11,2*%
%TO.N,GND*%
X62000000Y-11550000D03*
%TD*%
D16*
%TO.P,C14,1*%
%TO.N,VBUS*%
X10950000Y-23587500D03*
%TO.P,C14,2*%
%TO.N,GND*%
X9050000Y-23587500D03*
%TD*%
D17*
%TO.P,R1,1*%
%TO.N,+10V*%
X54087500Y-18500000D03*
%TO.P,R1,2*%
%TO.N,Net-(Q6-B)*%
X55912500Y-18500000D03*
%TD*%
D18*
%TO.P,Q6,1,B*%
%TO.N,Net-(Q6-B)*%
X62875000Y-6450000D03*
%TO.P,Q6,2,E*%
%TO.N,+9V*%
X62875000Y-4550000D03*
%TO.P,Q6,3,C*%
%TO.N,+10V*%
X61000000Y-5500000D03*
%TD*%
D19*
%TO.P,R2,1*%
%TO.N,Net-(C4-Pad2)*%
X46412500Y-11587500D03*
%TO.P,R2,2*%
%TO.N,GND*%
X44587500Y-11587500D03*
%TD*%
D17*
%TO.P,R10,1*%
%TO.N,Net-(D4-A)*%
X9087500Y-28087500D03*
%TO.P,R10,2*%
%TO.N,VBUS*%
X10912500Y-28087500D03*
%TD*%
D20*
%TO.P,L1,1,1*%
%TO.N,VCC*%
X23562500Y-11587500D03*
%TO.P,L1,2,2*%
%TO.N,Net-(D1-A)*%
X21437500Y-11587500D03*
%TD*%
D13*
%TO.P,R3,1*%
%TO.N,+9V*%
X28000000Y-21262500D03*
%TO.P,R3,2*%
%TO.N,GND*%
X28000000Y-23087500D03*
%TD*%
D14*
%TO.P,C1,1*%
%TO.N,Net-(Q6-B)*%
X56500000Y-24187500D03*
%TO.P,C1,2*%
%TO.N,GND*%
X56500000Y-26087500D03*
%TD*%
D21*
%TO.P,J2,1,Pin_1*%
%TO.N,+BATT*%
X36200000Y-3500000D03*
D22*
%TO.P,J2,2,Pin_2*%
%TO.N,GND*%
X41000000Y-3500000D03*
%TD*%
D19*
%TO.P,R9,1*%
%TO.N,VBUS*%
X18912500Y-11500000D03*
%TO.P,R9,2*%
%TO.N,GND*%
X17087500Y-11500000D03*
%TD*%
D15*
%TO.P,C8,1*%
%TO.N,+10V*%
X44500000Y-28087500D03*
%TO.P,C8,2*%
%TO.N,GND*%
X44500000Y-26187500D03*
%TD*%
D23*
%TO.P,D4,1,K*%
%TO.N,Net-(D4-K)*%
X5000000Y-28587500D03*
%TO.P,D4,2,A*%
%TO.N,Net-(D4-A)*%
X5000000Y-26712500D03*
%TD*%
D16*
%TO.P,C4,1*%
%TO.N,+9V*%
X48450000Y-5587500D03*
%TO.P,C4,2*%
%TO.N,Net-(C4-Pad2)*%
X46550000Y-5587500D03*
%TD*%
D18*
%TO.P,Q7,1,B*%
%TO.N,Net-(Q7-B)*%
X46375000Y-18537500D03*
%TO.P,Q7,2,E*%
%TO.N,VCC*%
X46375000Y-16637500D03*
%TO.P,Q7,3,C*%
%TO.N,Net-(Q7-C)*%
X44500000Y-17587500D03*
%TD*%
D24*
%TO.P,L3,1,1*%
%TO.N,Net-(D2-K)*%
X21437500Y-16087500D03*
%TO.P,L3,2,2*%
%TO.N,VCC*%
X23562500Y-16087500D03*
%TD*%
D25*
%TO.P,D2,1,K*%
%TO.N,Net-(D2-K)*%
X18937500Y-16087500D03*
%TO.P,D2,2,A*%
%TO.N,VBUS*%
X17062500Y-16087500D03*
%TD*%
D26*
%TO.P,D1,1,K*%
%TO.N,Net-(D1-K)*%
X18000000Y-21087500D03*
%TO.P,D1,2,A*%
%TO.N,Net-(D1-A)*%
X18000000Y-22962500D03*
%TD*%
D27*
%TO.P,Q1,1,D*%
%TO.N,+BATT*%
X16100000Y-6587500D03*
%TO.P,Q1,2,G*%
%TO.N,VBUS*%
X18000000Y-6587500D03*
%TO.P,Q1,3,S*%
%TO.N,Net-(D2-K)*%
X17050000Y-4712500D03*
%TD*%
D28*
%TO.P,C6,1*%
%TO.N,VCC*%
X52647500Y-5587500D03*
%TO.P,C6,2*%
%TO.N,GND*%
X55352500Y-5587500D03*
%TD*%
D29*
%TO.P,C2,1*%
%TO.N,+10V*%
X39500000Y-28440000D03*
%TO.P,C2,2*%
%TO.N,GND*%
X39500000Y-25735000D03*
%TD*%
D30*
%TO.P,R5,1*%
%TO.N,Net-(Q7-B)*%
X34000000Y-28587500D03*
%TO.P,R5,2*%
%TO.N,/OUT_EN*%
X34000000Y-26762500D03*
%TD*%
D19*
%TO.P,R6,1*%
%TO.N,Net-(Q2-B)*%
X29325000Y-17587500D03*
%TO.P,R6,2*%
%TO.N,VCC*%
X27500000Y-17587500D03*
%TD*%
D31*
%TO.P,U2,1,SW*%
%TO.N,Net-(D1-A)*%
X54637500Y-13450000D03*
%TO.P,U2,2,GND*%
%TO.N,GND*%
X54637500Y-12500000D03*
%TO.P,U2,3,FB*%
%TO.N,Net-(U2-FB)*%
X54637500Y-11550000D03*
%TO.P,U2,4,EN*%
%TO.N,Net-(Q7-C)*%
X52362500Y-11550000D03*
%TO.P,U2,5,VIN*%
%TO.N,VCC*%
X52362500Y-13450000D03*
%TD*%
D32*
%TO.P,C5,1*%
%TO.N,VCC*%
X27880000Y-11587500D03*
%TO.P,C5,2*%
%TO.N,GND*%
X34120000Y-11587500D03*
%TD*%
D33*
%TO.P,J1,1,Pin_1*%
%TO.N,+9V*%
X62000000Y-17787500D03*
D22*
%TO.P,J1,2,Pin_2*%
%TO.N,GND*%
X62000000Y-22587500D03*
%TO.P,J1,3,Pin_3*%
%TO.N,/OUT_EN*%
X62000000Y-27387500D03*
%TD*%
D34*
%TO.P,L2,1,1*%
%TO.N,Net-(Q2-C)*%
X50500000Y-26025000D03*
%TO.P,L2,2,2*%
%TO.N,+10V*%
X50500000Y-28150000D03*
%TD*%
D28*
%TO.P,C3,1*%
%TO.N,Net-(Q6-B)*%
X38147500Y-11587500D03*
%TO.P,C3,2*%
%TO.N,GND*%
X40852500Y-11587500D03*
%TD*%
D13*
%TO.P,R7,1*%
%TO.N,Net-(Q2-C)*%
X39500000Y-21087500D03*
%TO.P,R7,2*%
%TO.N,Net-(U2-FB)*%
X39500000Y-22912500D03*
%TD*%
D35*
%TO.P,U1,1,TEMP*%
%TO.N,GND*%
X10095000Y-18562500D03*
%TO.P,U1,2,PROG*%
%TO.N,Net-(U1-PROG)*%
X11365000Y-18562500D03*
%TO.P,U1,3,GND*%
%TO.N,GND*%
X12635000Y-18562500D03*
%TO.P,U1,4,V_{CC}*%
%TO.N,VBUS*%
X13905000Y-18562500D03*
%TO.P,U1,5,BAT*%
%TO.N,+BATT*%
X13905000Y-13612500D03*
%TO.P,U1,6,~{STDBY}*%
%TO.N,Net-(D3-K)*%
X12635000Y-13612500D03*
%TO.P,U1,7,~{CHRG}*%
%TO.N,Net-(D4-K)*%
X11365000Y-13612500D03*
%TO.P,U1,8,CE*%
%TO.N,VBUS*%
X10095000Y-13612500D03*
%TD*%
D36*
%TO.P,Q2,1,B*%
%TO.N,Net-(Q2-B)*%
X33062500Y-19137500D03*
%TO.P,Q2,2,E*%
%TO.N,Net-(D1-K)*%
X33062500Y-21037500D03*
%TO.P,Q2,3,C*%
%TO.N,Net-(Q2-C)*%
X34937500Y-20087500D03*
%TD*%
D30*
%TO.P,R8,1*%
%TO.N,Net-(U2-FB)*%
X39500000Y-17500000D03*
%TO.P,R8,2*%
%TO.N,GND*%
X39500000Y-15675000D03*
%TD*%
D33*
%TO.P,J3,1,Pin_1*%
%TO.N,VBUS*%
X5000000Y-13687500D03*
D22*
%TO.P,J3,2,Pin_2*%
%TO.N,GND*%
X5000000Y-18487500D03*
%TD*%
D13*
%TO.P,R4,1*%
%TO.N,VCC*%
X28000000Y-26762500D03*
%TO.P,R4,2*%
%TO.N,Net-(Q7-B)*%
X28000000Y-28587500D03*
%TD*%
D37*
%TO.P,C12,1*%
%TO.N,Net-(D2-K)*%
X21709800Y-27175000D03*
%TO.P,C12,2*%
%TO.N,GND*%
X23609800Y-27175000D03*
%TD*%
D17*
%TO.P,Rref1,1*%
%TO.N,Net-(U1-PROG)*%
X21500000Y-21587500D03*
%TO.P,Rref1,2*%
%TO.N,GND*%
X23325000Y-21587500D03*
%TD*%
D23*
%TO.P,D3,1,K*%
%TO.N,Net-(D3-K)*%
X5000000Y-6525000D03*
%TO.P,D3,2,A*%
%TO.N,Net-(D3-A)*%
X5000000Y-4650000D03*
%TD*%
D38*
%TO.N,Net-(U1-PROG)*%
X9728200Y-16583600D03*
X19526800Y-22415600D03*
%TO.N,Net-(Q7-C)*%
X51031500Y-17165300D03*
X50835900Y-11319400D03*
%TO.N,Net-(Q7-B)*%
X51853400Y-19272200D03*
X45187900Y-31157900D03*
%TO.N,Net-(D4-K)*%
X11689100Y-15255000D03*
X7043400Y-28360300D03*
%TO.N,Net-(D3-K)*%
X13039500Y-10295400D03*
X9712800Y-7944000D03*
%TO.N,Net-(D1-A)*%
X49239300Y-12503100D03*
X51031500Y-3375900D03*
%TO.N,Net-(D2-K)*%
X18056000Y-4734500D03*
X19114400Y-13995400D03*
%TO.N,Net-(U2-FB)*%
X42136300Y-13957000D03*
X42151100Y-22912500D03*
%TO.N,Net-(Q2-C)*%
X51615500Y-25134700D03*
X50499900Y-19724100D03*
%TO.N,Net-(D1-K)*%
X19012300Y-27981300D03*
X19902200Y-21259300D03*
%TO.N,VCC*%
X50754800Y-6064100D03*
X48518600Y-13426300D03*
X27657100Y-15824800D03*
X27657100Y-24965300D03*
%TO.N,Net-(C4-Pad2)*%
X45795500Y-7435300D03*
X45379200Y-12788900D03*
%TO.N,+9V*%
X65584800Y-4358400D03*
X32626200Y-22087800D03*
X48310800Y-3866700D03*
%TO.N,+10V*%
X59796900Y-7331200D03*
X54087500Y-19954900D03*
X51796600Y-28090100D03*
%TO.N,Net-(Q6-B)*%
X58627000Y-20188000D03*
X62718700Y-7784100D03*
X48536900Y-16444700D03*
X46609600Y-13013500D03*
%TO.N,GND*%
X58916500Y-10304000D03*
X39444800Y-10279000D03*
%TD*%
D39*
%TO.N,Net-(U1-PROG)*%
X10067500Y-16583600D02*
X9728200Y-16583600D01*
X11365000Y-17881100D02*
X10067500Y-16583600D01*
X11365000Y-18562500D02*
X11365000Y-17881100D01*
X20671900Y-22415600D02*
X21500000Y-21587500D01*
X19526800Y-22415600D02*
X20671900Y-22415600D01*
%TO.N,Net-(Q7-C)*%
X50609300Y-17587500D02*
X51031500Y-17165300D01*
X44500000Y-17587500D02*
X50609300Y-17587500D01*
X51066500Y-11550000D02*
X52362500Y-11550000D01*
X50835900Y-11319400D02*
X51066500Y-11550000D01*
%TO.N,Net-(Q7-B)*%
X28000000Y-28587500D02*
X34000000Y-28587500D01*
X51118700Y-18537500D02*
X46375000Y-18537500D01*
X51853400Y-19272200D02*
X51118700Y-18537500D01*
X36570400Y-31157900D02*
X34000000Y-28587500D01*
X45187900Y-31157900D02*
X36570400Y-31157900D01*
%TO.N,Net-(Q2-B)*%
X31512500Y-17587500D02*
X33062500Y-19137500D01*
X29325000Y-17587500D02*
X31512500Y-17587500D01*
%TO.N,/OUT_EN*%
X36913300Y-29675800D02*
X34000000Y-26762500D01*
X59711700Y-29675800D02*
X36913300Y-29675800D01*
X62000000Y-27387500D02*
X59711700Y-29675800D01*
%TO.N,Net-(D4-A)*%
X7712500Y-26712500D02*
X5000000Y-26712500D01*
X9087500Y-28087500D02*
X7712500Y-26712500D01*
%TO.N,Net-(D4-K)*%
X11689100Y-13936600D02*
X11689100Y-15255000D01*
X11365000Y-13612500D02*
X11689100Y-13936600D01*
X5227200Y-28360300D02*
X5000000Y-28587500D01*
X7043400Y-28360300D02*
X5227200Y-28360300D01*
%TO.N,Net-(D3-K)*%
X12635000Y-10699900D02*
X13039500Y-10295400D01*
X12635000Y-13612500D02*
X12635000Y-10699900D01*
X6419000Y-7944000D02*
X5000000Y-6525000D01*
X9712800Y-7944000D02*
X6419000Y-7944000D01*
%TO.N,Net-(D3-A)*%
X10475000Y-4650000D02*
X10500000Y-4675000D01*
X5000000Y-4650000D02*
X10475000Y-4650000D01*
%TO.N,Net-(D1-A)*%
X53975000Y-13450000D02*
X54637500Y-13450000D01*
X53028100Y-12503100D02*
X53975000Y-13450000D01*
X49239300Y-12503100D02*
X53028100Y-12503100D01*
X22435600Y-12585600D02*
X21437500Y-11587500D01*
X22435600Y-16749900D02*
X22435600Y-12585600D01*
X21469700Y-17715800D02*
X22435600Y-16749900D01*
X19576800Y-17715800D02*
X21469700Y-17715800D01*
X16762100Y-20530500D02*
X19576800Y-17715800D01*
X16762100Y-21724600D02*
X16762100Y-20530500D01*
X18000000Y-22962500D02*
X16762100Y-21724600D01*
X24791700Y-8233300D02*
X21437500Y-11587500D01*
X40761300Y-8233300D02*
X24791700Y-8233300D01*
X46002100Y-2992500D02*
X40761300Y-8233300D01*
X50648100Y-2992500D02*
X46002100Y-2992500D01*
X51031500Y-3375900D02*
X50648100Y-2992500D01*
D40*
%TO.N,VBUS*%
X10095000Y-13687500D02*
X5000000Y-13687500D01*
X10095000Y-13612500D02*
X10095000Y-13687500D01*
X11294900Y-16206700D02*
X13905000Y-16206700D01*
X10095000Y-15006800D02*
X11294900Y-16206700D01*
X10095000Y-13687500D02*
X10095000Y-15006800D01*
X13905000Y-16206700D02*
X13905000Y-18562500D01*
X10095000Y-9964000D02*
X10095000Y-13612500D01*
X12029500Y-8029500D02*
X10095000Y-9964000D01*
X10500000Y-6500000D02*
X12029500Y-8029500D01*
X16943300Y-16206700D02*
X17062500Y-16087500D01*
X13905000Y-16206700D02*
X16943300Y-16206700D01*
X18912500Y-12657900D02*
X18912500Y-11500000D01*
X17062500Y-14507900D02*
X18912500Y-12657900D01*
X17062500Y-16087500D02*
X17062500Y-14507900D01*
X10912500Y-23625000D02*
X10950000Y-23587500D01*
X10912500Y-28087500D02*
X10912500Y-23625000D01*
X13905000Y-20632500D02*
X13905000Y-18562500D01*
X10950000Y-23587500D02*
X13905000Y-20632500D01*
X16558000Y-8029500D02*
X12029500Y-8029500D01*
X18000000Y-6587500D02*
X16558000Y-8029500D01*
%TO.N,+BATT*%
X36200000Y-3500000D02*
X29352500Y-3500000D01*
X29352500Y-3500000D02*
X29352500Y-5087500D01*
X18775700Y-3268000D02*
X19007700Y-3500000D01*
X16618500Y-3268000D02*
X18775700Y-3268000D01*
X16009300Y-3877200D02*
X16618500Y-3268000D01*
X16009300Y-6496800D02*
X16009300Y-3877200D01*
X16100000Y-6587500D02*
X16009300Y-6496800D01*
X19007700Y-7568800D02*
X19007700Y-3500000D01*
X13905000Y-12671500D02*
X19007700Y-7568800D01*
X13905000Y-13612500D02*
X13905000Y-12671500D01*
X29352500Y-3500000D02*
X19007700Y-3500000D01*
D39*
%TO.N,Net-(D2-K)*%
X18937500Y-16087500D02*
X21437500Y-16087500D01*
X16064400Y-18960600D02*
X18937500Y-16087500D01*
X16064400Y-22839900D02*
X16064400Y-18960600D01*
X20399500Y-27175000D02*
X16064400Y-22839900D01*
X21709800Y-27175000D02*
X20399500Y-27175000D01*
X18034000Y-4712500D02*
X18056000Y-4734500D01*
X17050000Y-4712500D02*
X18034000Y-4712500D01*
X19114400Y-15910600D02*
X18937500Y-16087500D01*
X19114400Y-13995400D02*
X19114400Y-15910600D01*
%TO.N,Net-(U2-FB)*%
X42151100Y-22912500D02*
X39500000Y-22912500D01*
X42286100Y-23047500D02*
X44500000Y-23047500D01*
X42151100Y-22912500D02*
X42286100Y-23047500D01*
X53605200Y-10517700D02*
X54637500Y-11550000D01*
X50091100Y-10517700D02*
X53605200Y-10517700D01*
X47411300Y-13197500D02*
X50091100Y-10517700D01*
X47411300Y-13345600D02*
X47411300Y-13197500D01*
X46461100Y-14295800D02*
X47411300Y-13345600D01*
X42475100Y-14295800D02*
X46461100Y-14295800D01*
X42136300Y-13957000D02*
X42475100Y-14295800D01*
X42136300Y-14863700D02*
X39500000Y-17500000D01*
X42136300Y-13957000D02*
X42136300Y-14863700D01*
%TO.N,Net-(Q2-C)*%
X38500000Y-20087500D02*
X39500000Y-21087500D01*
X34937500Y-20087500D02*
X38500000Y-20087500D01*
X50725200Y-26025000D02*
X51615500Y-25134700D01*
X50500000Y-26025000D02*
X50725200Y-26025000D01*
X50499900Y-21137400D02*
X50500000Y-21137500D01*
X50499900Y-19724100D02*
X50499900Y-21137400D01*
X40500000Y-22087500D02*
X44500000Y-22087500D01*
X39500000Y-21087500D02*
X40500000Y-22087500D01*
X45450000Y-21137500D02*
X50500000Y-21137500D01*
X44500000Y-22087500D02*
X45450000Y-21137500D01*
X50499900Y-19724100D02*
X50499900Y-19900800D01*
X50499900Y-19900800D02*
X50499900Y-19724100D01*
%TO.N,Net-(D1-K)*%
X18618500Y-27587500D02*
X19012300Y-27981300D01*
X17249800Y-27587500D02*
X18618500Y-27587500D01*
X32238100Y-20213100D02*
X33062500Y-21037500D01*
X20597800Y-20213100D02*
X32238100Y-20213100D01*
X19726900Y-21084000D02*
X20597800Y-20213100D01*
X18003500Y-21084000D02*
X18000000Y-21087500D01*
X19726900Y-21084000D02*
X18003500Y-21084000D01*
X19902200Y-21259300D02*
X19726900Y-21084000D01*
X19902200Y-21259300D02*
X19902200Y-21084000D01*
X19902200Y-21084000D02*
X19902200Y-21259300D01*
X19012300Y-27981300D02*
X18618500Y-27587500D01*
X18618500Y-27587500D02*
X19012300Y-27981300D01*
D40*
%TO.N,VCC*%
X27880000Y-11587500D02*
X23562500Y-11587500D01*
X61012200Y-14437800D02*
X52362500Y-14437800D01*
X62000000Y-13450000D02*
X61012200Y-14437800D01*
X52362500Y-13450000D02*
X52362500Y-14437800D01*
X23562500Y-16087500D02*
X23562500Y-11587500D01*
X48574700Y-14437800D02*
X52362500Y-14437800D01*
X46375000Y-16637500D02*
X48574700Y-14437800D01*
X51231400Y-5587500D02*
X50754800Y-6064100D01*
X52647500Y-5587500D02*
X51231400Y-5587500D01*
X28000000Y-25308200D02*
X28000000Y-26762500D01*
X27657100Y-24965300D02*
X28000000Y-25308200D01*
X26697200Y-16784700D02*
X27657100Y-15824800D01*
X26000000Y-16087500D02*
X26697200Y-16784700D01*
X23562500Y-16087500D02*
X26000000Y-16087500D01*
X26697200Y-16784700D02*
X27500000Y-17587500D01*
X52357700Y-13454800D02*
X52362500Y-13450000D01*
X48547100Y-13454800D02*
X52357700Y-13454800D01*
X48518600Y-13426300D02*
X48547100Y-13454800D01*
X47608800Y-9210100D02*
X50754800Y-6064100D01*
X30257400Y-9210100D02*
X47608800Y-9210100D01*
X27880000Y-11587500D02*
X30257400Y-9210100D01*
D39*
%TO.N,Net-(C4-Pad2)*%
X45795500Y-6342000D02*
X45795500Y-7435300D01*
X46550000Y-5587500D02*
X45795500Y-6342000D01*
X46412500Y-11755600D02*
X46412500Y-11587500D01*
X45379200Y-12788900D02*
X46412500Y-11755600D01*
D40*
%TO.N,+9V*%
X62875000Y-4550000D02*
X62875000Y-4364900D01*
X65578300Y-4364900D02*
X65584800Y-4358400D01*
X62875000Y-4364900D02*
X65578300Y-4364900D01*
X29450700Y-22087800D02*
X32626200Y-22087800D01*
X28625400Y-21262500D02*
X29450700Y-22087800D01*
X28000000Y-21262500D02*
X28625400Y-21262500D01*
X48310800Y-3866700D02*
X49240800Y-4796700D01*
X49240800Y-4796700D02*
X48450000Y-5587500D01*
X62689900Y-4179800D02*
X62875000Y-4364900D01*
X51573600Y-4179800D02*
X62689900Y-4179800D01*
X51425800Y-4327600D02*
X51573600Y-4179800D01*
X49709900Y-4327600D02*
X51425800Y-4327600D01*
X49240800Y-4796700D02*
X49709900Y-4327600D01*
%TO.N,+10V*%
X44562500Y-28150000D02*
X44500000Y-28087500D01*
X50500000Y-28150000D02*
X44562500Y-28150000D01*
X59796900Y-6703100D02*
X59796900Y-7331200D01*
X61000000Y-5500000D02*
X59796900Y-6703100D01*
X54087500Y-18500000D02*
X54087500Y-19954900D01*
X44147500Y-28440000D02*
X44500000Y-28087500D01*
X39500000Y-28440000D02*
X44147500Y-28440000D01*
X50559900Y-28090100D02*
X50500000Y-28150000D01*
X51796600Y-28090100D02*
X50559900Y-28090100D01*
D39*
%TO.N,Net-(Q6-B)*%
X56500000Y-24187500D02*
X56500000Y-20188000D01*
X55912500Y-19600500D02*
X56500000Y-20188000D01*
X55912500Y-18500000D02*
X55912500Y-19600500D01*
X56500000Y-20188000D02*
X58627000Y-20188000D01*
X62875000Y-7627800D02*
X62718700Y-7784100D01*
X62875000Y-6450000D02*
X62875000Y-7627800D01*
X48618000Y-16363600D02*
X48536900Y-16444700D01*
X53776100Y-16363600D02*
X48618000Y-16363600D01*
X55912500Y-18500000D02*
X53776100Y-16363600D01*
X46029200Y-13593900D02*
X46609600Y-13013500D01*
X42968400Y-13593900D02*
X46029200Y-13593900D01*
X42163200Y-12788700D02*
X42968400Y-13593900D01*
X39348700Y-12788700D02*
X42163200Y-12788700D01*
X38147500Y-11587500D02*
X39348700Y-12788700D01*
D41*
%TO.N,GND*%
X5075000Y-18562500D02*
X5000000Y-18487500D01*
X10095000Y-18562500D02*
X5075000Y-18562500D01*
X11797500Y-20189600D02*
X10095000Y-20189600D01*
X12635000Y-19352100D02*
X11797500Y-20189600D01*
X12635000Y-18562500D02*
X12635000Y-19352100D01*
X10095000Y-20189600D02*
X10095000Y-18562500D01*
X44587500Y-11587500D02*
X40852500Y-11587500D01*
X58500000Y-26087500D02*
X56500000Y-26087500D01*
X62000000Y-22587500D02*
X58500000Y-26087500D01*
X10095000Y-22214700D02*
X10095000Y-20189600D01*
X9050000Y-22214700D02*
X10095000Y-22214700D01*
X9050000Y-23587500D02*
X9050000Y-22214700D01*
X24825000Y-25959800D02*
X23609800Y-27175000D01*
X24825000Y-23087500D02*
X24825000Y-25959800D01*
X24825000Y-23087500D02*
X23325000Y-21587500D01*
X24825000Y-23087500D02*
X28000000Y-23087500D01*
X36852500Y-23087500D02*
X39500000Y-25735000D01*
X28000000Y-23087500D02*
X36852500Y-23087500D01*
X26647500Y-5087500D02*
X26647500Y-6385200D01*
X39938200Y-26173200D02*
X39500000Y-25735000D01*
X44500000Y-26173200D02*
X39938200Y-26173200D01*
X44500000Y-26187500D02*
X44500000Y-26173200D01*
X47364300Y-26173200D02*
X44500000Y-26173200D01*
X50500000Y-23037500D02*
X47364300Y-26173200D01*
X35412500Y-11587500D02*
X34120000Y-11587500D01*
X39500000Y-15675000D02*
X35412500Y-11587500D01*
X22037600Y-6385200D02*
X26647500Y-6385200D01*
X17087500Y-11335300D02*
X22037600Y-6385200D01*
X17087500Y-11500000D02*
X17087500Y-11335300D01*
X60162500Y-11550000D02*
X62000000Y-11550000D01*
X58916500Y-10304000D02*
X60162500Y-11550000D01*
X35428500Y-10279000D02*
X34120000Y-11587500D01*
X39444800Y-10279000D02*
X35428500Y-10279000D01*
X50793600Y-23037500D02*
X50500000Y-23037500D01*
X53843600Y-26087500D02*
X50793600Y-23037500D01*
X56500000Y-26087500D02*
X53843600Y-26087500D01*
X23609800Y-27306000D02*
X23609800Y-27175000D01*
X21503200Y-29412600D02*
X23609800Y-27306000D01*
X15994900Y-29412600D02*
X21503200Y-29412600D01*
X14169800Y-27587500D02*
X15994900Y-29412600D01*
X6203300Y-23587500D02*
X9050000Y-23587500D01*
X3670900Y-26119900D02*
X6203300Y-23587500D01*
X3670900Y-29182100D02*
X3670900Y-26119900D01*
X4192400Y-29703600D02*
X3670900Y-29182100D01*
X12053700Y-29703600D02*
X4192400Y-29703600D01*
X14169800Y-27587500D02*
X12053700Y-29703600D01*
X58854800Y-10242300D02*
X57683100Y-10242300D01*
X58916500Y-10304000D02*
X58854800Y-10242300D01*
X55425400Y-12500000D02*
X54637500Y-12500000D01*
X57683100Y-10242300D02*
X55425400Y-12500000D01*
X39544000Y-10279000D02*
X39444800Y-10279000D01*
X40852500Y-11587500D02*
X39544000Y-10279000D01*
X42155200Y-10284800D02*
X40852500Y-11587500D01*
X48246000Y-10284800D02*
X42155200Y-10284800D01*
X48764800Y-9766000D02*
X48246000Y-10284800D01*
X55352500Y-9766000D02*
X48764800Y-9766000D01*
X55352500Y-5587500D02*
X55352500Y-9766000D01*
X55828800Y-10242300D02*
X57683100Y-10242300D01*
X55352500Y-9766000D02*
X55828800Y-10242300D01*
X38114800Y-6385200D02*
X26647500Y-6385200D01*
X41000000Y-3500000D02*
X38114800Y-6385200D01*
%TD*%
M02*
